<?xml version="1.0" standalone="no"?>
<!DOCTYPE svg PUBLIC "-//W3C//DTD SVG 1.1//EN" "http://www.w3.org/Graphics/SVG/1.1/DTD/svg11.dtd" >
<svg xmlns="http://www.w3.org/2000/svg" xmlns:xlink="http://www.w3.org/1999/xlink" version="1.1">
<metadata></metadata>
<defs>
<font id="blogger_sansregular" horiz-adv-x="512" >
<font-face units-per-em="2048" ascent="1556" descent="-492" />
<missing-glyph horiz-adv-x="614" />
<glyph unicode="ff" horiz-adv-x="1224" d="M152 68v1032q0 187 97.5 283t260.5 102q19 1 44 -1t60 -9t58.5 -28t23.5 -54q0 -34 -23 -55t-55 -21q-15 0 -54 7t-70 7q-87 0 -135 -61.5t-48 -153.5v-127h213q31 0 52.5 -22t21.5 -54t-22 -53.5t-52 -21.5h-213v-770q0 -34 -21 -56t-59 -22t-58.5 22t-20.5 56zM702 68 v1032q0 187 98 283t261 102q19 1 44 -1t60 -9t58.5 -28t23.5 -54q0 -34 -23 -55t-55 -21q-15 0 -54.5 7t-70.5 7q-87 0 -134.5 -61t-47.5 -154v-127h213q31 0 52.5 -22t21.5 -54t-22 -53.5t-52 -21.5h-213v-770q0 -34 -21 -56t-59 -22t-59 22t-21 56z" />
<glyph unicode="fi" horiz-adv-x="1058" d="M152 68v1032q0 186 87 282.5t230 102.5q19 1 44 -1t60 -9t58.5 -28t23.5 -54q0 -34 -22.5 -55t-54.5 -21q-15 0 -54.5 7t-70.5 7q-66 0 -104 -61.5t-38 -153.5v-127h213q31 0 52.5 -22t21.5 -54t-21.5 -53.5t-52.5 -21.5h-213v-770q0 -33 -21.5 -55.5t-58.5 -22.5t-58 22 t-21 56zM725 1368q0 41 28.5 69.5t69.5 28.5t70 -28.5t29 -69.5q0 -40 -29 -69t-70 -29t-69.5 29t-28.5 69zM743 63v904q0 33 23.5 56.5t56.5 23.5t56.5 -23.5t23.5 -56.5v-904q0 -34 -23 -56.5t-57 -22.5t-57 22.5t-23 56.5z" />
<glyph unicode="fl" horiz-adv-x="1058" d="M152 68v1032q0 186 87 282.5t230 102.5q19 1 44 -1t60 -9t58.5 -28t23.5 -54q0 -34 -22.5 -55t-54.5 -21q-15 0 -54.5 7t-70.5 7q-66 0 -104 -61.5t-38 -153.5v-127h213q31 0 52.5 -22t21.5 -54t-21.5 -53.5t-52.5 -21.5h-213v-770q0 -33 -21.5 -55.5t-58.5 -22.5t-58 22 t-21 56zM743 193v1212q0 33 23.5 56.5t56.5 23.5q34 0 57 -23t23 -57v-1212q0 -65 29 -97q14 -28 14 -39q0 -31 -21.5 -52t-52.5 -21q-129 0 -129 209z" />
<glyph unicode="ffi" horiz-adv-x="1544" d="M152 68v1032q0 187 97.5 283t260.5 102q19 1 44 -1t60 -9t58.5 -28t23.5 -54q0 -34 -23 -55t-55 -21q-15 0 -54 7t-70 7q-87 0 -135 -61.5t-48 -153.5v-127h213q30 0 52 -22t22 -54t-22 -53.5t-52 -21.5h-213v-770q0 -34 -21 -56t-59 -22t-58.5 22t-20.5 56zM680 68v1032 q0 186 87 282.5t230 102.5q15 1 34.5 -1t47 -9t46 -28t18.5 -54q0 -34 -23 -55t-55 -21q-10 0 -37 7t-47 7q-66 0 -103.5 -61.5t-37.5 -153.5v-127h213q31 0 52 -22t21 -54t-21 -53.5t-52 -21.5h-213v-770q0 -33 -21.5 -55.5t-58.5 -22.5t-58.5 22.5t-21.5 55.5zM1212 1368 q0 41 29 69.5t70 28.5t69.5 -28.5t28.5 -69.5q0 -40 -28.5 -69t-69.5 -29t-70 29t-29 69zM1231 63v904q0 33 23.5 56.5t56.5 23.5t56.5 -23.5t23.5 -56.5v-904q0 -34 -23 -56.5t-57 -22.5t-57 22.5t-23 56.5z" />
<glyph unicode="ffl" horiz-adv-x="1607" d="M152 68v1032q0 187 97.5 283t260.5 102q19 1 44 -1t60 -9t58.5 -28t23.5 -54q0 -34 -23 -55t-55 -21q-15 0 -54 7t-70 7q-87 0 -135 -61.5t-48 -153.5v-127h213q31 0 52.5 -22t21.5 -54t-22 -53.5t-52 -21.5h-213v-770q0 -34 -21 -56t-59 -22t-58.5 22t-20.5 56zM700 68 v1032q0 186 87.5 282.5t230.5 102.5q19 1 44 -1t60 -9t58.5 -28t23.5 -54q0 -34 -23 -55t-55 -21q-15 0 -54.5 7t-70.5 7q-66 0 -103.5 -61.5t-37.5 -153.5v-127h213q31 0 52.5 -22t21.5 -54t-21.5 -53.5t-52.5 -21.5h-213v-770q0 -33 -21.5 -55.5t-58.5 -22.5t-58.5 22.5 t-21.5 55.5zM1292 193v1212q0 33 23.5 56.5t56.5 23.5q34 0 57 -23t23 -57v-1212q0 -37 5.5 -58t23.5 -39q14 -19 14 -39q0 -31 -21.5 -52t-52.5 -21q-129 0 -129 209z" />
<glyph unicode="&#x457;&#x457;" horiz-adv-x="983" d="M-49 1268q0 43 31 74.5t75 31.5q46 0 77.5 -31t31.5 -75q0 -46 -31.5 -78.5t-77.5 -32.5q-44 0 -75 33t-31 78zM170 63v904q0 33 23.5 56.5t56.5 23.5t56.5 -23.5t23.5 -56.5v-904q0 -34 -23 -56.5t-57 -22.5t-57 22.5t-23 56.5zM383 1268q0 43 31.5 74.5t74.5 31.5 q46 0 77.5 -31t31.5 -75q0 -46 -31.5 -78.5t-77.5 -32.5q-44 0 -75 33t-31 78zM651 63v904q0 33 23.5 56.5t56.5 23.5t56.5 -23.5t23.5 -56.5v-904q0 -34 -23 -56.5t-57 -22.5t-57 22.5t-23 56.5zM815 1268q0 43 32.5 74.5t76.5 31.5t76 -31t32 -75q0 -46 -32 -78.5 t-76 -32.5t-76.5 33.5t-32.5 77.5z" />
<glyph unicode=" "  horiz-adv-x="614" />
<glyph unicode="&#x09;" horiz-adv-x="614" />
<glyph unicode="&#xa0;" horiz-adv-x="614" />
<glyph unicode="!" horiz-adv-x="464" d="M125 92q0 44 32.5 76.5t78.5 32.5q44 0 76 -32.5t32 -76.5q0 -46 -32 -79t-76 -33q-46 0 -78.5 33t-32.5 79zM150 1382q0 33 24 57.5t57 24.5t57.5 -24.5t24.5 -57.5l-20 -968q0 -26 -18.5 -46t-43.5 -20q-26 0 -43.5 19.5t-17.5 46.5z" />
<glyph unicode="&#x22;" horiz-adv-x="700" d="M115 993l59 498q6 29 34 47t62 14q36 -6 56.5 -31.5t13.5 -54.5l-115 -493q-4 -23 -23.5 -37.5t-41.5 -11.5q-23 4 -35.5 24.5t-9.5 44.5zM381 993l59 498q6 29 34.5 47t62.5 14q35 -6 55.5 -31.5t13.5 -54.5l-114 -493q-4 -23 -24 -37.5t-42 -11.5q-23 4 -35.5 24.5 t-9.5 44.5z" />
<glyph unicode="#" horiz-adv-x="1107" d="M86 541q0 33 24.5 56.5t55.5 23.5h102l47 208h-88q-34 0 -57 23t-23 57q0 33 24.5 56.5t55.5 23.5h123l92 412q15 57 76 57q28 -3 48.5 -25t19.5 -51q0 -10 -2 -16l-84 -377h219l92 412q15 57 76 57q29 -3 48.5 -25t18.5 -51q0 -10 -2 -16l-84 -377h72q31 0 55.5 -23.5 t24.5 -56.5q0 -34 -23 -57t-57 -23h-106l-48 -208h93q31 0 55 -23.5t24 -56.5q0 -34 -22.5 -57t-56.5 -23h-127l-93 -416q-15 -59 -75 -59q-30 3 -50 25t-20 52l4 19l84 379h-219l-92 -416q-15 -59 -76 -59q-29 3 -49.5 25t-20.5 52l5 19l83 379h-67q-34 0 -57 23t-23 57z M418 621h219l47 208h-219z" />
<glyph unicode="$" horiz-adv-x="1024" d="M100 193q0 31 22 55t54 24q20 0 59 -16.5t98.5 -34t127.5 -20.5v467q-47 16 -76.5 26.5t-71.5 29.5t-68.5 37.5t-56.5 47t-46.5 60t-28 75t-11.5 94.5q0 160 95.5 254.5t263.5 108.5v100q0 22 15.5 37.5t37.5 15.5t37.5 -15.5t15.5 -37.5v-100q51 -3 98 -11t95 -23 t77 -41.5t29 -61.5q0 -32 -22.5 -55t-59.5 -23q-26 0 -90.5 25t-126.5 30v-440q46 -15 76 -26.5t71.5 -30.5t68.5 -37.5t56.5 -47t46.5 -60.5t28.5 -75t11.5 -94q0 -161 -98.5 -262t-260.5 -123v-102q0 -22 -15.5 -38t-37.5 -16t-37.5 16t-15.5 38v98q-57 2 -116 11 t-116 26.5t-93 47t-36 67.5zM272 1051q0 -127 119 -185q20 -10 70 -30v403q-189 -26 -189 -188zM567 207q92 15 139.5 68t47.5 139q0 42 -10.5 75t-29.5 55t-36.5 34.5t-40.5 23.5q-57 25 -70 29v-424z" />
<glyph unicode="%" horiz-adv-x="1439" d="M113 1139q0 143 76 235t212 92q137 0 213 -92t76 -235t-76 -235.5t-213 -92.5q-135 0 -211.5 92.5t-76.5 235.5zM252 1143q0 -205 149 -205q150 0 150 205q0 94 -37.5 145t-112.5 51q-149 0 -149 -196zM305 90l8 16l691 1324q13 24 37 33t51 1q27 -9 40.5 -36t4.5 -54 q0 -7 -7 -14l-690 -1325q-13 -25 -37 -35t-51 -4q-28 10 -41.5 37.5t-5.5 56.5zM750 307q0 144 76 236t212 92q135 0 212 -92.5t77 -235.5t-76 -235t-213 -92q-136 0 -212 92t-76 235zM889 311q0 -205 149 -205q150 0 150 205q0 94 -37.5 145.5t-112.5 51.5t-112 -51 t-37 -146z" />
<glyph unicode="&#x26;" horiz-adv-x="1314" d="M96 369q0 79 25.5 147t73 121.5t95.5 91t113 76.5q-167 182 -167 336q0 144 102.5 231.5t245.5 87.5q135 0 233 -82t98 -184q0 -32 -23.5 -55t-53.5 -23q-27 0 -46.5 17.5t-27.5 44.5q-15 55 -62 96t-112 41q-80 0 -137.5 -49t-57.5 -129q0 -16 4.5 -34.5t10 -33 t18.5 -36.5t20.5 -33.5t26.5 -36t26 -32.5t29.5 -35t26.5 -32l379 -436q53 83 123 238q14 34 28.5 42.5t42.5 8.5q30 0 53 -23t23 -55q0 -57 -50 -152t-116 -186l160 -190q19 -22 19 -50q0 -33 -22.5 -57t-55.5 -24q-23 0 -37.5 10t-34.5 33l-131 155q-89 -91 -189.5 -144.5 t-228.5 -53.5q-187 0 -305.5 110.5t-118.5 278.5zM254 385q0 -106 71 -182t183 -76q99 0 177.5 45t152.5 127l-340 389q-51 -28 -89.5 -55.5t-76 -64.5t-58 -83.5t-20.5 -99.5z" />
<glyph unicode="'" horiz-adv-x="454" d="M115 993l59 498q6 29 34 47t62 14q36 -6 56.5 -31.5t13.5 -54.5l-115 -493q-4 -23 -23.5 -37.5t-41.5 -11.5q-23 4 -35.5 24.5t-9.5 44.5z" />
<glyph unicode="(" horiz-adv-x="565" d="M133 453q0 241 58 475.5t176 429.5q23 39 67 39q37 0 57.5 -25.5t20.5 -60.5q0 -20 -20 -56q-197 -351 -197 -802q0 -452 197 -803q20 -36 20 -56q0 -35 -20.5 -60.5t-57.5 -25.5q-44 0 -67 39q-118 195 -176 430t-58 476z" />
<glyph unicode=")" horiz-adv-x="563" d="M51 -406q0 18 21 56q196 349 196 803q0 453 -196 802q-21 38 -21 56q0 35 20.5 60.5t57.5 25.5q45 0 68 -39q118 -195 175.5 -429t57.5 -476t-57.5 -476.5t-175.5 -429.5q-23 -39 -68 -39q-37 0 -57.5 25.5t-20.5 60.5z" />
<glyph unicode="*" horiz-adv-x="1013" d="M117 1219q11 34 40 45t56 0q30 -11 109.5 -43t123.5 -47l-12 249q-2 30 17 53t55 23t55 -23t17 -53l-13 -249q44 15 124.5 47t109.5 43q27 11 56 0t40 -45q11 -32 -6 -57.5t-47 -35.5l-238 -65l154 -195q21 -22 19 -53t-32 -51q-33 -20 -59 -13.5t-43 31.5l-137 211 q-22 -33 -68 -105.5t-69 -105.5q-19 -24 -45 -30t-58 12q-28 19 -29.5 50.5t17.5 53.5l156 195l-240 65q-30 10 -46.5 35.5t-6.5 57.5z" />
<glyph unicode="+" horiz-adv-x="1024" d="M25 725q0 33 24 56.5t55 23.5h328v348q0 31 23.5 55.5t56.5 24.5q34 0 57 -23t23 -57v-348h328q31 0 55 -23.5t24 -56.5q0 -34 -22.5 -57t-56.5 -23h-328v-348q0 -34 -23 -57t-57 -23q-33 0 -56.5 24.5t-23.5 55.5v348h-328q-34 0 -56.5 23t-22.5 57z" />
<glyph unicode="," horiz-adv-x="471" d="M125 92q0 44 32.5 76.5t78.5 32.5q44 0 76 -32.5t32 -76.5q0 -65 -27.5 -146t-64.5 -135.5t-64 -54.5q-38 0 -38 35q0 36 32 94.5t43 94.5q-43 5 -71.5 36.5t-28.5 75.5z" />
<glyph unicode="-" horiz-adv-x="817" d="M78 604q0 31 22 53.5t54 22.5h510q30 0 51.5 -22.5t21.5 -53.5t-21 -52.5t-52 -21.5h-510q-32 0 -54 21.5t-22 52.5z" />
<glyph unicode="." horiz-adv-x="471" d="M125 92q0 44 32.5 76.5t78.5 32.5q44 0 76 -32.5t32 -76.5q0 -46 -32 -79t-76 -33q-46 0 -78.5 33t-32.5 79z" />
<glyph unicode="/" horiz-adv-x="573" d="M-53 2q0 4 4 16l526 1483q9 27 33 40.5t53 8.5q30 -6 48 -32t14 -56q0 -6 -4 -14l-527 -1485q-9 -27 -33.5 -41.5t-52.5 -9.5q-31 6 -48.5 32t-12.5 58z" />
<glyph unicode="0" horiz-adv-x="1024" d="M100 406v610q0 99 24.5 182.5t73.5 148.5t129 101.5t185 36.5t185 -36.5t129 -101.5t73.5 -148.5t24.5 -182.5v-610q0 -185 -109.5 -305.5t-302.5 -120.5t-302.5 120.5t-109.5 305.5zM262 406q0 -126 65.5 -200.5t184.5 -74.5t184.5 74.5t65.5 200.5v626q0 140 -61 221.5 t-189 81.5t-189 -81.5t-61 -221.5v-626z" />
<glyph unicode="1" horiz-adv-x="1024" d="M141 1120q0 48 37 72l404 258q22 14 49 14q37 0 62.5 -25.5t25.5 -62.5v-1313q0 -33 -24.5 -57t-57.5 -24t-57.5 24t-24.5 57v1190l-252 -161q-3 -2 -14.5 -9t-16 -10t-14.5 -8t-16 -7.5t-14 -4.5t-15 -2q-27 0 -49.5 21t-22.5 48z" />
<glyph unicode="2" horiz-adv-x="1024" d="M92 86q0 52 12 80q38 92 109 185.5t137.5 158.5t157 153.5t141.5 147.5q113 130 113 260q0 117 -66 190.5t-188 73.5q-109 0 -195 -39q-18 -8 -44 -24t-44.5 -24.5t-34.5 -8.5q-30 0 -53.5 21.5t-23.5 54.5q0 43 53 78q143 92 344 92q190 0 301 -111.5t111 -279.5 q0 -119 -38.5 -209.5t-109.5 -169.5q-49 -55 -130.5 -134.5t-139.5 -135.5t-120 -135t-97 -154h563q34 0 57 -23t23 -55t-23 -55t-57 -23h-674q-37 0 -60.5 24.5t-23.5 61.5z" />
<glyph unicode="3" horiz-adv-x="1024" d="M106 133q0 31 22 54.5t54 23.5q22 0 43 -12q56 -33 108.5 -51.5t123.5 -18.5q82 0 142.5 27.5t93.5 74t48 99t15 110.5q0 135 -76 200t-203 65q-51 0 -88 -13q-4 -1 -9.5 -4.5t-11.5 -5.5t-14 -2q-41 0 -61 42.5t8 82.5l367 477h-455q-34 0 -57 23t-23 57t23.5 59 t56.5 25h571q39 0 63.5 -25.5t24.5 -66.5q0 -34 -20 -60l-344 -444q183 -5 296.5 -110.5t113.5 -290.5q0 -65 -14.5 -129.5t-47.5 -126t-80 -108t-118 -75t-156 -28.5q-32 0 -74 3t-101 13t-106.5 25.5t-81 44t-33.5 65.5z" />
<glyph unicode="4" horiz-adv-x="1024" d="M72 393q0 24 16 56l393 985q9 21 28.5 34t41.5 13q30 0 55 -24.5t25 -57.5q0 -19 -4 -27l-367 -913h408v401q0 34 23 57t57 23q32 0 55.5 -23t23.5 -57v-401h88q32 0 54 -22.5t22 -53.5q0 -32 -22 -55t-54 -23h-88v-244q0 -34 -22.5 -56.5t-56.5 -22.5t-57 22.5t-23 56.5 v244h-512q-36 0 -60 26t-24 62z" />
<glyph unicode="5" horiz-adv-x="1024" d="M106 133q0 31 22 54.5t54 23.5q22 0 43 -12q35 -21 61.5 -34t73 -24.5t97.5 -11.5q66 0 118.5 18.5t86 49t55 73t30.5 87.5t9 96q0 148 -71.5 224.5t-186.5 76.5q-79 0 -150 -41q-15 -8 -37 -24.5t-38.5 -25t-34.5 -8.5q-35 0 -59 25.5t-23 62.5l20 613q1 41 29.5 65.5 t64.5 24.5h494q38 0 66 -19t28 -59q0 -38 -28 -57t-66 -19h-442l-17 -442q83 49 197 49q186 0 301 -118t115 -320q0 -71 -14.5 -138t-47 -129.5t-79.5 -109t-117.5 -74.5t-155.5 -28q-43 0 -99.5 6t-129 20t-121 46.5t-48.5 78.5z" />
<glyph unicode="6" horiz-adv-x="1024" d="M84 680q0 383 113 583.5t338 200.5q36 0 80.5 -4t101.5 -14.5t95 -35t38 -58.5q0 -29 -22 -52.5t-52 -23.5q-15 0 -45 10q-100 31 -170 31q-73 0 -128 -27t-89 -72.5t-55 -113.5t-29 -141t-8 -164q107 96 276 96q86 0 160 -28.5t130.5 -82.5t89 -139.5t32.5 -193.5 q0 -98 -26.5 -182t-78 -149t-134 -102.5t-187.5 -37.5q-98 0 -172.5 34t-123 94t-79 150t-43 192t-12.5 230zM248 575q0 -93 11.5 -165t40 -136.5t84.5 -99.5t138 -35q70 0 121 25t79.5 69.5t42 97.5t13.5 115q0 146 -68 219.5t-188 73.5q-83 0 -157.5 -31.5t-116.5 -82.5 v-50z" />
<glyph unicode="7" horiz-adv-x="1024" d="M102 1364q0 35 22.5 58.5t55.5 23.5h656q35 0 60.5 -24.5t25.5 -59.5q0 -24 -9 -45l-510 -1284q-19 -51 -73 -51q-32 0 -55.5 20t-26.5 51q0 21 6 39l481 1192h-555q-31 0 -54.5 24t-23.5 56z" />
<glyph unicode="8" horiz-adv-x="1024" d="M57 391q0 237 252 373q-200 122 -200 332q0 164 116 265t285 101q171 0 286 -102t115 -260q0 -200 -198 -324q252 -136 252 -377q0 -182 -127 -300.5t-326 -118.5q-197 0 -326 116t-129 295zM219 399q0 -116 84 -193t209 -77q127 0 209 78t82 194q0 118 -85.5 192.5 t-211.5 98.5q-126 -26 -206.5 -103t-80.5 -190zM268 1092q0 -99 71.5 -165.5t176.5 -86.5q103 23 170.5 90t67.5 162q0 98 -69.5 161.5t-172.5 63.5q-104 0 -174 -63t-70 -162z" />
<glyph unicode="9" horiz-adv-x="1024" d="M84 997q0 97 25 179.5t74.5 148t131 102.5t187.5 37q99 0 174.5 -33.5t125 -94t81 -151.5t44.5 -197t13 -240q0 -384 -111 -576t-340 -192q-37 0 -81.5 4t-101.5 14.5t-94.5 35t-37.5 58.5q0 29 22 52.5t52 23.5q15 0 45 -10q100 -31 170 -31q73 0 128 27t89 72.5 t55 113.5t29 141t8 164q-107 -96 -276 -96q-179 0 -295.5 115t-116.5 333zM246 995q0 -145 68.5 -217.5t189.5 -72.5q83 0 156.5 31.5t115.5 82.5v49q0 96 -15 173t-47 137.5t-87.5 93.5t-130.5 33q-66 0 -116 -26t-78.5 -70.5t-42 -98t-13.5 -115.5z" />
<glyph unicode=":" horiz-adv-x="471" d="M125 92q0 44 32.5 76.5t78.5 32.5q44 0 76 -32.5t32 -76.5q0 -46 -32 -79t-76 -33q-46 0 -78.5 33t-32.5 79zM125 706q0 44 32.5 76.5t78.5 32.5q44 0 76 -32.5t32 -76.5q0 -46 -32 -79t-76 -33q-46 0 -78.5 33t-32.5 79z" />
<glyph unicode=";" horiz-adv-x="471" d="M125 92q0 44 32.5 76.5t78.5 32.5q44 0 76 -32.5t32 -76.5q0 -65 -27.5 -146t-64.5 -135.5t-64 -54.5q-38 0 -38 35q0 36 32 94.5t43 94.5q-43 5 -71.5 36.5t-28.5 75.5zM125 707q0 44 32.5 76t78.5 32q44 0 76 -32t32 -76q0 -46 -32 -79.5t-76 -33.5q-46 0 -78.5 33.5 t-32.5 79.5z" />
<glyph unicode="&#x3c;" horiz-adv-x="1280" d="M139 721q0 12 2 22t7 19t8.5 14.5t14 13t15 10.5t18.5 11.5t19 11.5l811 420q41 13 74 -11.5t33 -66.5q0 -47 -58 -75l-733 -369l733 -369q26 -12 42 -32t16 -41q0 -43 -35 -70.5t-72 -7.5l-811 420q-4 3 -16 10t-16.5 9.5t-13.5 9t-13 10.5t-10 11.5t-8.5 14t-4.5 16 t-2 19.5z" />
<glyph unicode="=" horiz-adv-x="1024" d="M106 541q0 33 24.5 56.5t55.5 23.5h652q31 0 55.5 -23.5t24.5 -56.5q0 -34 -23 -57t-57 -23h-652q-34 0 -57 23t-23 57zM106 909q0 33 24.5 56.5t55.5 23.5h652q31 0 55.5 -23.5t24.5 -56.5q0 -34 -23 -57t-57 -23h-652q-34 0 -57 23t-23 57z" />
<glyph unicode="&#x3e;" horiz-adv-x="1280" d="M139 279q0 21 16 41t42 32l733 369l-733 369q-58 28 -58 75q0 43 35 70.5t72 7.5l811 -420q5 -3 19 -11.5t18.5 -11.5t15 -10.5t14 -13t8.5 -14.5t7 -19t2 -22t-1.5 -21.5t-7.5 -18.5t-9 -14.5t-14.5 -13.5t-14.5 -10t-18.5 -11t-18.5 -11l-811 -420q-37 -20 -72 7.5 t-35 70.5z" />
<glyph unicode="?" horiz-adv-x="946" d="M76 1315q0 43 53 78q143 92 344 92q190 0 301 -111.5t111 -279.5q0 -119 -38.5 -209.5t-109.5 -169.5q-21 -25 -61.5 -64t-70.5 -72.5t-46 -68.5q-12 -28 -12 -80q0 -33 -24.5 -57.5t-57.5 -24.5t-57.5 24.5t-24.5 57.5q0 52 12 80q20 56 53.5 104.5t89.5 111t74 85.5 q113 130 113 260q0 117 -66 190.5t-188 73.5q-109 0 -195 -39q-19 -8 -44 -24t-43.5 -24.5t-34.5 -8.5q-31 0 -54.5 21.5t-23.5 54.5zM356 92q0 44 32.5 76.5t78.5 32.5q44 0 76 -32.5t32 -76.5q0 -46 -32 -79t-76 -33q-46 0 -78.5 33t-32.5 79z" />
<glyph unicode="@" horiz-adv-x="1523" d="M131 641q0 195 71 342.5t214 232t342 84.5q152 0 274 -50.5t200 -138.5t119.5 -204t41.5 -250q0 -155 -59 -244t-189 -89q-127 0 -189 88q-104 -109 -225 -109q-127 0 -199.5 94.5t-72.5 243.5q0 155 80 246.5t227 91.5q73 0 125 -23.5t83 -69t47 -102t23 -133.5 q3 -36 7 -61t14.5 -55.5t30.5 -47t49 -16.5q88 0 88 172q0 148 -52.5 261.5t-161 181t-259.5 67.5q-224 0 -346.5 -141t-122.5 -375q0 -235 124 -375.5t355 -140.5q65 0 114.5 10.5t92 28t51.5 20.5q80 22 98 -45q10 -39 -12 -63.5t-65 -42.5q-56 -24 -140.5 -40t-167.5 -16 q-281 0 -445.5 183.5t-164.5 484.5zM618 635q0 -189 127 -189q81 0 160 76q-13 55 -20 133q-2 27 -3.5 39.5t-6.5 38t-13 39t-21 29.5t-34 23t-49 7q-140 0 -140 -196z" />
<glyph unicode="A" horiz-adv-x="1124" d="M51 61q0 19 4 31l400 1264q32 108 106 108q43 0 67.5 -27.5t41.5 -80.5l399 -1264q4 -12 4 -31q0 -36 -24.5 -58.5t-61.5 -22.5q-25 0 -49 17t-31 44l-88 285h-518l-86 -285q-9 -27 -32 -44t-46 -17q-36 0 -61 22.5t-25 58.5zM350 485h422l-211 695z" />
<glyph unicode="B" horiz-adv-x="1110" d="M150 98v1248q0 41 29 69.5t69 28.5h346q96 0 174 -31.5t126 -84t73.5 -118.5t25.5 -139q0 -123 -68.5 -199t-195.5 -129q52 -16 85.5 -29t79 -40.5t72.5 -60t46.5 -85t19.5 -118.5q0 -177 -121.5 -293.5t-324.5 -116.5h-338q-41 0 -69.5 29t-28.5 69zM313 160h250 q149 0 227 67t78 181q0 124 -87 193t-226 69h-242v-510zM313 829h236q70 0 132 25.5t105 82.5t43 136q0 92 -58.5 151.5t-186.5 59.5h-271v-455z" />
<glyph unicode="C" horiz-adv-x="987" d="M92 504v438q0 244 115.5 383t345.5 139q141 0 251.5 -53t110.5 -123q0 -30 -20.5 -50.5t-52.5 -20.5q-10 0 -19.5 3t-15 6t-18.5 11.5t-21 13.5q-91 64 -205 64q-166 0 -236.5 -95.5t-70.5 -277.5v-438q0 -182 70.5 -277.5t236.5 -95.5q114 0 205 64q10 6 22 13.5t18 11 t15 6.5t19 3q32 0 52.5 -20.5t20.5 -50.5q0 -71 -110.5 -123.5t-251.5 -52.5q-230 0 -345.5 139t-115.5 383z" />
<glyph unicode="D" horiz-adv-x="1134" d="M150 98v1250q0 40 29 69t69 29h231q122 0 218.5 -28.5t160 -76.5t105 -115.5t59.5 -142t18 -159.5v-383q0 -88 -17.5 -164.5t-59.5 -147t-105 -120.5t-160 -79.5t-219 -29.5h-231q-40 0 -69 29t-29 69zM313 160h201q98 0 170 29.5t113 82.5t60.5 120t19.5 149v383 q0 79 -20 142.5t-61.5 114t-113 78t-168.5 27.5h-201v-1126z" />
<glyph unicode="E" horiz-adv-x="970" d="M150 96v1252q0 37 28 66.5t68 29.5h555q34 0 58 -24t24 -58q0 -33 -24 -55.5t-58 -22.5h-488v-479h449q31 0 55.5 -23.5t24.5 -56.5q0 -34 -23 -57t-57 -23h-449v-485h508q32 0 57 -22.5t25 -53.5q0 -35 -24 -59.5t-58 -24.5h-542q-129 0 -129 96z" />
<glyph unicode="F" horiz-adv-x="970" d="M150 61v1287q0 37 28 66.5t68 29.5h555q34 0 58 -24t24 -58q0 -33 -24 -55.5t-58 -22.5h-488v-479h449q31 0 55.5 -23.5t24.5 -56.5q0 -34 -23 -57t-57 -23h-449v-584q0 -33 -24.5 -57t-57.5 -24t-57 24t-24 57z" />
<glyph unicode="G" horiz-adv-x="1064" d="M92 504v438q0 244 115.5 383t345.5 139q141 0 251.5 -52.5t110.5 -123.5q0 -30 -20.5 -50.5t-52.5 -20.5q-10 0 -19.5 3t-15 6t-18.5 11.5t-21 13.5q-91 64 -205 64q-166 0 -236.5 -95.5t-70.5 -277.5v-438q0 -182 70.5 -277.5t236.5 -95.5q133 0 232 76v440h-199 q-31 0 -54.5 23t-23.5 55t23.5 55t54.5 23h244q52 0 84 -23.5t32 -70.5v-490q0 -59 -37 -106.5t-97 -75t-129 -41.5t-140 -14q-230 0 -345.5 139t-115.5 383z" />
<glyph unicode="H" horiz-adv-x="1187" d="M150 63v1319q0 33 24 57.5t57 24.5t57.5 -24.5t24.5 -57.5v-579h559v579q0 32 25 57t57 25t57 -25t25 -57v-1319q0 -34 -24 -58.5t-58 -24.5q-32 0 -57 25t-25 58v580h-559v-580q0 -34 -24 -58.5t-58 -24.5t-57.5 24.5t-23.5 58.5z" />
<glyph unicode="I" horiz-adv-x="464" d="M150 61v1321q0 33 24 57.5t57 24.5t57.5 -24.5t24.5 -57.5v-1321q0 -33 -24.5 -57t-57.5 -24t-57 24t-24 57z" />
<glyph unicode="J" horiz-adv-x="788" d="M51 72q0 36 23 58t49 22q7 0 48 -7.5t77 -7.5q69 0 114.5 21.5t69.5 66.5t33.5 100.5t9.5 135.5v921q0 34 23.5 58t58.5 24q32 0 57 -25t25 -57v-921q0 -117 -20.5 -202t-67.5 -149.5t-128 -97t-198 -32.5q-174 0 -174 92z" />
<glyph unicode="K" horiz-adv-x="1019" d="M150 63v1319q0 33 24 57.5t57 24.5t57.5 -24.5t24.5 -57.5v-596l518 639q11 16 32 27.5t42 11.5q27 0 51 -22q21 -19 21 -51v-9q-2 -28 -19 -51l-440 -540l477 -685q11 -19 11 -38q0 -35 -18 -61.5t-58 -26.5q-45 0 -70 38l-444 646l-103 -125v-476q0 -34 -24 -58.5 t-58 -24.5t-57.5 24.5t-23.5 58.5z" />
<glyph unicode="L" horiz-adv-x="917" d="M150 92v1290q0 33 24 57.5t57 24.5t57.5 -24.5t24.5 -57.5v-1224h506q31 0 54.5 -23t23.5 -55q0 -34 -23 -57t-55 -23h-577q-37 0 -64.5 27t-27.5 65z" />
<glyph unicode="M" horiz-adv-x="1431" d="M141 59v1319q0 37 24.5 61.5t61.5 24.5q61 0 88 -53l400 -856l399 858q28 51 86 51q36 0 61 -25t25 -61v-1319q0 -32 -24 -55.5t-56 -23.5q-34 0 -59 23.5t-25 55.5v998l-329 -705q-24 -49 -80 -49q-54 0 -78 49l-330 705v-998q0 -32 -25.5 -55.5t-60.5 -23.5 q-32 0 -55 23.5t-23 55.5z" />
<glyph unicode="N" horiz-adv-x="1228" d="M150 63v1311q0 38 25 64t63 26q27 0 50.5 -13t35.5 -36l589 -1089v1054q0 34 25 59t59 25q33 0 56.5 -25t23.5 -59v-1310q0 -37 -25.5 -63.5t-64.5 -26.5q-25 0 -48.5 13t-35.5 34l-590 1091v-1055q0 -34 -25 -58.5t-59 -24.5q-33 0 -56 24.5t-23 58.5z" />
<glyph unicode="O" horiz-adv-x="1128" d="M92 504v438q0 110 26.5 202t81.5 165t147.5 114t215.5 41t215.5 -41t147.5 -114t81.5 -165t26.5 -202v-438q0 -149 -51.5 -265.5t-159.5 -187.5t-260 -71t-260 71t-159.5 187.5t-51.5 265.5zM256 504q0 -168 77 -266.5t230 -98.5t230 98.5t77 266.5v438q0 363 -307 363 t-307 -363v-438z" />
<glyph unicode="P" horiz-adv-x="1085" d="M150 66v1280q0 40 29 69t69 29h301q123 0 214.5 -37.5t144 -103t77.5 -145t25 -173.5q0 -216 -123.5 -334.5t-337.5 -118.5h-236v-466q0 -34 -24.5 -60t-57.5 -26q-32 0 -56.5 25.5t-24.5 60.5zM313 692h236q297 0 297 295q0 297 -297 297h-236v-592z" />
<glyph unicode="Q" horiz-adv-x="1128" d="M92 504v438q0 110 26.5 202t81.5 165t147.5 114t215.5 41t215.5 -41t147.5 -114t81.5 -165t26.5 -202v-438q0 -206 -99.5 -347.5t-285.5 -168.5q3 -109 43.5 -156t118.5 -47q11 0 32.5 1t26.5 1q36 0 58 -20.5t22 -55.5q0 -18 -5 -30.5t-17.5 -20.5t-24.5 -12.5t-35 -6.5 t-38.5 -2.5t-45.5 -0.5q-133 0 -210.5 94t-86.5 254q-190 24 -292.5 167t-102.5 351zM256 504q0 -168 77 -266.5t230 -98.5t230 98.5t77 266.5v438q0 363 -307 363t-307 -363v-438z" />
<glyph unicode="R" horiz-adv-x="1177" d="M150 66v1280q0 40 28 69t66 29h356q122 0 212 -35t139.5 -95t72.5 -129.5t23 -150.5q0 -160 -84.5 -259.5t-233.5 -129.5l328 -539q10 -20 10 -47q0 -30 -30 -53.5t-58 -23.5q-47 0 -68 38l-362 615h-236v-569q0 -34 -25 -60t-59 -26q-32 0 -55.5 25.5t-23.5 60.5z M313 793h291q136 0 207.5 61.5t71.5 179.5q0 250 -291 250h-279v-491z" />
<glyph unicode="S" horiz-adv-x="995" d="M84 131q0 31 22 55.5t52 24.5q21 0 64.5 -18t107 -36t133.5 -18q135 0 204.5 65.5t69.5 186.5q0 89 -32.5 134.5t-83.5 72.5q-40 21 -106.5 45t-120 41t-113.5 49.5t-100.5 72t-67.5 106t-27 153.5q0 185 111.5 292t302.5 107q46 0 99 -6t113 -20t99 -43.5t39 -69.5 q0 -32 -22.5 -55t-59.5 -23q-24 0 -59.5 14.5t-86 29t-110.5 14.5q-52 0 -95.5 -11.5t-81 -36.5t-58.5 -71.5t-21 -110.5q0 -48 11 -84.5t31.5 -60t37 -36t39.5 -24.5q40 -21 107 -45t120 -41t113 -49.5t100 -71.5t67 -105t27 -152q0 -198 -125 -312t-323 -114 q-54 0 -115 8.5t-122 25t-100.5 47.5t-39.5 70z" />
<glyph unicode="T" horiz-adv-x="989" d="M51 1364q0 28 25 54t57 26h721q33 0 58.5 -23.5t25.5 -56.5q0 -32 -25 -56t-59 -24h-279v-1223q0 -33 -24 -57t-57 -24q-34 0 -58 24t-24 57v1223h-279q-35 0 -58.5 23.5t-23.5 56.5z" />
<glyph unicode="U" horiz-adv-x="1171" d="M133 471v907q0 37 24.5 61.5t59.5 24.5q32 0 56 -25.5t24 -60.5v-907q0 -153 73 -242.5t216 -89.5q142 0 214 90t72 242v907q0 34 23.5 60t56.5 26q36 0 61 -26t25 -60v-907q0 -218 -121 -354.5t-331 -136.5q-213 0 -333 136.5t-120 354.5z" />
<glyph unicode="V" horiz-adv-x="1083" d="M31 1382q0 36 25 59t61 23q23 0 46 -17t32 -44l346 -1139l346 1139q7 27 31 44t49 17q37 0 61.5 -23t24.5 -59q0 -18 -4 -30l-400 -1264q-17 -53 -41 -80.5t-67 -27.5q-75 0 -107 108l-399 1264q-4 12 -4 30z" />
<glyph unicode="W" horiz-adv-x="1589" d="M31 1384q0 32 28.5 52t63.5 20q26 0 46.5 -15t27.5 -44l254 -1092l237 1041q15 63 36.5 90.5t70.5 27.5q46 0 68.5 -29t35.5 -89l238 -1041l254 1092q19 59 69 59q37 0 68 -19.5t31 -54.5q0 -2 -1 -5t-2 -8t-2 -9l-305 -1266q-12 -50 -38.5 -82t-69.5 -32t-71 33.5 t-40 82.5l-235 1030l-238 -1032q-30 -114 -108 -114q-42 0 -71 32.5t-40 81.5l-305 1268z" />
<glyph unicode="X" horiz-adv-x="1024" d="M31 63q0 26 12 46l373 643l-342 587q-11 22 -11 45q0 31 23 55.5t53 24.5q50 0 88 -71l285 -510l285 510q41 71 90 71q30 0 52 -24.5t22 -57.5q0 -21 -11 -43l-342 -587l373 -643q12 -20 12 -46q0 -32 -23 -57.5t-52 -25.5q-47 0 -80 59l-326 582l-326 -582 q-31 -59 -77 -59q-31 0 -54.5 25.5t-23.5 57.5z" />
<glyph unicode="Y" horiz-adv-x="974" d="M31 1380q0 33 25.5 58.5t58.5 25.5q46 0 63 -32l309 -674l310 674q17 32 63 32q33 0 58.5 -25.5t25.5 -58.5q0 -19 -8 -39l-365 -778v-497q0 -34 -24.5 -60t-59.5 -26t-59.5 25.5t-24.5 60.5v501l-364 774q-8 20 -8 39z" />
<glyph unicode="Z" horiz-adv-x="991" d="M59 90q0 29 21 66l631 1124h-568q-34 0 -57 23.5t-23 58.5q0 33 23.5 57.5t56.5 24.5h695q38 0 63 -25.5t25 -62.5q0 -26 -21 -64l-635 -1128h578q33 0 57.5 -23.5t24.5 -56.5q0 -35 -24 -59.5t-58 -24.5h-703q-36 0 -61 26.5t-25 63.5z" />
<glyph unicode="[" horiz-adv-x="602" d="M158 -170v1733q0 40 29.5 58.5t76.5 18.5h209q29 0 52.5 -22.5t23.5 -52.5q0 -41 -30 -59.5t-73 -18.5h-127v-1581h127q45 0 74 -18t29 -58q0 -41 -31 -59.5t-74 -18.5h-208q-31 0 -54.5 23.5t-23.5 54.5z" />
<glyph unicode="\" horiz-adv-x="573" d="M-53 1462q-4 31 14 56.5t47 31.5q29 5 53 -8.5t33 -40.5l527 -1483q4 -12 4 -16q4 -32 -13.5 -58t-48.5 -32q-28 -5 -52.5 9.5t-33.5 41.5l-526 1485q-4 8 -4 14z" />
<glyph unicode="]" horiz-adv-x="602" d="M49 -170q0 41 30.5 58.5t74.5 17.5h127v1581h-127q-44 0 -74.5 18t-30.5 60q0 39 31.5 57t75.5 18h209q29 0 53 -24t24 -53v-1733q0 -32 -22.5 -55t-54.5 -23h-209q-44 0 -75.5 18.5t-31.5 59.5z" />
<glyph unicode="^" horiz-adv-x="667" d="M4 1094q3 34 39 77l227 279q24 31 62 31q37 0 61 -31l228 -279q35 -41 38 -77q0 -25 -16.5 -40.5t-44.5 -15.5q-15 0 -30 8t-21 19l-215 266l-215 -266q-6 -11 -21 -19t-30 -8q-28 0 -45 15.5t-17 40.5z" />
<glyph unicode="_" horiz-adv-x="1228" d="M-70 -410q0 33 24.5 56.5t55.5 23.5h1209q31 0 55 -23.5t24 -56.5q0 -34 -22.5 -56.5t-56.5 -22.5h-1209q-34 0 -57 22.5t-23 56.5z" />
<glyph unicode="`" horiz-adv-x="403" d="M55 1423q0 28 20.5 48t43.5 20q13 0 24 -4.5t16 -8t18 -16.5l18 -18l159 -166q11 -14 11 -31q0 -31 -20.5 -51t-47.5 -20q-30 0 -66 36l-165 177q-11 14 -11 34z" />
<glyph unicode="a" horiz-adv-x="987" d="M92 293v8q0 303 361 303q105 0 206 -29v117q0 112 -54 165.5t-165 53.5q-49 0 -82 -10.5t-73 -32.5q-1 0 -7.5 -3t-13 -5.5t-16 -5t-17.5 -2.5q-27 0 -41 20.5t-16 47.5v7q0 29 21 53q24 26 66.5 41.5t93.5 23.5t106 8q188 0 273 -103t85 -311v-451q0 -61 37 -61 q3 0 7.5 1t8.5 1q28 0 44 -21t16 -49q0 -35 -27 -52t-65 -17q-50 0 -90 27t-64 75q-117 -108 -280 -108q-154 0 -234 83.5t-80 225.5zM250 291q0 -164 180 -164q123 0 229 90v221q-105 31 -208 31q-116 0 -158.5 -45t-42.5 -125v-8z" />
<glyph unicode="b" horiz-adv-x="993" d="M152 307v1100q0 32 21 55t58 23t58.5 -23t21.5 -55v-438q120 84 273 84q165 0 241 -87t76 -233v-385q0 -161 -97 -262.5t-278 -101.5q-173 0 -273.5 91.5t-100.5 231.5zM311 307q0 -83 57.5 -129.5t157.5 -46.5q108 0 161.5 56.5t53.5 160.5v385q0 180 -196 180 q-142 0 -234 -102v-504z" />
<glyph unicode="c" horiz-adv-x="804" d="M92 360v310q0 168 92 272.5t275 104.5q40 0 85.5 -6.5t92 -20t76.5 -39t30 -59.5q0 -28 -20 -49t-49 -21q-15 0 -33 6q-31 16 -50 24t-50.5 15.5t-65.5 7.5q-117 0 -170 -59.5t-53 -175.5v-310q0 -116 53 -175.5t170 -59.5q34 0 65.5 7.5t50.5 15.5t50 24q18 6 33 6 q29 0 49 -20.5t20 -48.5q0 -34 -30 -59.5t-76.5 -39t-92 -20t-85.5 -6.5q-183 0 -275 104t-92 272z" />
<glyph unicode="d" horiz-adv-x="999" d="M92 371v260q0 95 17.5 168t56 129.5t106 86t162.5 29.5q116 0 228 -38v401q0 34 21 56t58 22t58.5 -22.5t21.5 -55.5v-1174q0 -44 11.5 -71.5t41.5 -50.5q15 -23 15 -41q0 -31 -22 -51.5t-50 -20.5q-66 0 -108 65q-158 -79 -291 -79q-157 0 -241.5 105t-84.5 282z M252 371q0 -244 199 -244q103 0 215 59q-4 16 -4 47v629q-48 20 -107 31.5t-100 11.5q-111 0 -157 -64.5t-46 -209.5v-260z" />
<glyph unicode="e" horiz-adv-x="890" d="M92 324v383q0 153 98.5 249.5t276.5 96.5q167 0 253.5 -89t86.5 -245q0 -303 -346 -303q-101 0 -209 18v-121q0 -88 57.5 -138t165.5 -50q58 0 102.5 13.5t110.5 43.5q12 6 29 6q30 0 50.5 -21.5t20.5 -49.5q0 -35 -35.5 -62.5t-89.5 -42t-107 -21.5t-99 -7 q-169 0 -267 95.5t-98 244.5zM252 565q106 -14 215 -14q56 0 94 14t56 39.5t25 52.5t7 62q0 188 -186 188q-99 0 -155 -49.5t-56 -136.5v-156z" />
<glyph unicode="f" horiz-adv-x="673" d="M152 68v1032q0 187 97.5 283t260.5 102q19 1 44 -1t60 -9t58.5 -28t23.5 -54q0 -34 -23 -55t-55 -21q-15 0 -54 7t-70 7q-87 0 -135 -61.5t-48 -153.5v-127h213q31 0 52.5 -22t21.5 -54t-21.5 -53.5t-52.5 -21.5h-213v-770q0 -33 -21.5 -55.5t-58.5 -22.5t-58 22t-21 56z " />
<glyph unicode="g" horiz-adv-x="1009" d="M92 -182q0 139 109 245q-62 62 -62 158q0 98 78 168q-111 105 -111 289q0 167 94.5 271t272.5 104q147 0 268 -70q31 58 78 88.5t86 30.5q32 0 54 -20.5t22 -51.5q0 -27 -14 -41q-7 -6 -22 -21t-20 -19.5t-16.5 -16.5t-15 -17t-11 -15.5t-10 -17.5t-7 -18t-5.5 -21.5 t-2.5 -23.5t-1.5 -28v-127q0 -163 -96.5 -266t-274.5 -103q-91 0 -161 27q-25 -49 -25 -95q0 -48 34 -69t77 -21h86q183 0 296 -76.5t113 -224.5q0 -153 -117.5 -243.5t-302.5 -90.5q-176 0 -284.5 84.5t-108.5 231.5zM252 -160q0 -93 59.5 -141.5t177.5 -48.5 q115 0 185.5 46.5t70.5 135.5q0 81 -60.5 119.5t-184.5 38.5h-86q-47 0 -92 10q-70 -61 -70 -160zM266 674q0 -109 54 -170.5t165 -61.5q106 0 158.5 56.5t52.5 160.5v129q0 24 4 60q-99 61 -206 61q-113 0 -170.5 -60t-57.5 -175z" />
<glyph unicode="h" horiz-adv-x="1038" d="M152 63v1354q0 32 22 56t55 24q34 0 57 -23t23 -57v-450q114 86 256 86q159 0 239.5 -92t80.5 -248v-650q0 -33 -23.5 -56t-56.5 -23q-34 0 -57 22.5t-23 56.5v648q0 96 -42.5 144t-135.5 48q-67 0 -131.5 -30t-106.5 -87v-723q0 -34 -22 -56.5t-56 -22.5t-56.5 22.5 t-22.5 56.5z" />
<glyph unicode="i" horiz-adv-x="501" d="M152 1368q0 41 28.5 69.5t69.5 28.5t69.5 -28.5t28.5 -69.5q0 -40 -28.5 -69t-69.5 -29t-69.5 29t-28.5 69zM170 63v904q0 33 23.5 56.5t56.5 23.5t56.5 -23.5t23.5 -56.5v-904q0 -34 -23 -56.5t-57 -22.5t-57 22.5t-23 56.5z" />
<glyph unicode="j" horiz-adv-x="501" d="M-66 -362q-9 37 12 59.5t50 28.5q88 20 131 73.5t43 161.5v1006q0 33 23.5 56.5t56.5 23.5t56.5 -23.5t23.5 -56.5v-998q0 -162 -75.5 -262.5t-213.5 -120.5q-16 -2 -39 -2q-25 0 -43.5 14.5t-24.5 39.5zM152 1368q0 41 28.5 69.5t69.5 28.5t69.5 -28.5t28.5 -69.5 q0 -40 -28.5 -69t-69.5 -29t-69.5 29t-28.5 69z" />
<glyph unicode="k" horiz-adv-x="899" d="M152 63v1342q0 34 22.5 57t56.5 23t57 -23t23 -57v-764l371 385q15 18 49 18q32 0 54 -21t22 -52q0 -32 -21 -53l-301 -308l346 -512q13 -19 13 -47q-1 -30 -23 -48.5t-53 -18.5q-43 0 -66 39l-317 483l-74 -76v-367q0 -34 -23 -56.5t-57 -22.5t-56.5 22.5t-22.5 56.5z " />
<glyph unicode="l" horiz-adv-x="466" d="M152 193v1212q0 33 23 56.5t56 23.5q34 0 57 -23t23 -57v-1212q0 -37 5.5 -58t23.5 -39q14 -19 14 -39q0 -31 -21 -52t-52 -21q-129 0 -129 209z" />
<glyph unicode="m" horiz-adv-x="1593" d="M106 944q0 31 22 51.5t54 20.5q49 0 82 -55q145 92 299 92q159 0 238 -105q137 105 297 105q163 0 252.5 -94.5t89.5 -253.5v-642q0 -34 -21 -55.5t-59 -21.5t-59 21.5t-21 55.5v637q0 91 -48 148t-138 57q-64 0 -126 -30.5t-100 -77.5q11 -53 11 -92v-642 q0 -34 -21 -55.5t-59 -21.5t-59 21.5t-21 55.5v594q0 60 -6.5 101t-24 76.5t-52 53t-87.5 17.5q-64 0 -128 -23.5t-110 -58.5q6 -37 6 -63v-697q0 -34 -20.5 -55.5t-58.5 -21.5t-59 21.5t-21 55.5v697q0 40 -4 66.5t-7 35t-13 23t-13 18.5q-1 1 -4 6.5t-5 9.5t-4 11t-2 14z " />
<glyph unicode="n" horiz-adv-x="1042" d="M106 944q0 31 22 51.5t54 20.5q47 0 86 -60q133 93 293 93q159 0 242.5 -104.5t83.5 -282.5v-599q0 -33 -21.5 -55t-58.5 -22t-58.5 22t-21.5 55v599q0 118 -48 180.5t-140 62.5q-114 0 -228 -86q6 -35 6 -59v-697q0 -34 -20.5 -55.5t-58.5 -21.5t-59 21.5t-21 55.5v697 q0 40 -4 66.5t-7 35t-13 23t-13 18.5q-1 1 -4 6.5t-5 9.5t-4 11t-2 14z" />
<glyph unicode="o" horiz-adv-x="950" d="M92 348v342q0 160 101 262.5t282 102.5t282 -102.5t101 -262.5v-342q0 -160 -100.5 -262t-282.5 -102t-282.5 102t-100.5 262zM252 348q0 -103 57 -160t166 -57t166 57t57 160v344q0 101 -57 158t-166 57t-166 -57t-57 -158v-344z" />
<glyph unicode="p" horiz-adv-x="978" d="M111 940q0 31 21.5 51.5t49.5 20.5q46 0 80 -49q169 90 299 90q157 0 241.5 -105t84.5 -282v-267q0 -95 -17.5 -168t-56 -129.5t-106 -86t-162.5 -29.5q-113 0 -228 39v-387q0 -34 -21 -56t-58 -22t-58.5 22.5t-21.5 55.5v1118q0 94 -33 143q-14 21 -14 41zM307 840 q10 -52 10 -84v-588q92 -43 207 -43q111 0 157 64.5t46 209.5v267q0 243 -199 243q-109 0 -221 -69z" />
<glyph unicode="q" horiz-adv-x="993" d="M92 358v324q0 164 97 267.5t278 103.5q173 0 274 -93.5t101 -236.5v-1085q0 -34 -21 -56t-59 -22t-59 22t-21 56v423q-118 -75 -262 -75q-328 0 -328 372zM252 358q0 -233 201 -233q142 0 229 94v504q0 86 -57.5 134t-157.5 48q-108 0 -161.5 -58t-53.5 -165v-324z" />
<glyph unicode="r" horiz-adv-x="690" d="M111 940q0 31 21.5 51.5t51.5 20.5q48 0 82 -56q64 40 142.5 64t138.5 24q106 0 106 -77q0 -37 -23.5 -60.5t-56.5 -21.5h-28q-33 1 -56 -1q-31 -2 -79.5 -19.5t-96.5 -53.5q4 -40 4 -55v-693q0 -34 -22.5 -56.5t-56.5 -22.5t-57 22.5t-23 56.5v693q0 94 -33 143 q-14 21 -14 41z" />
<glyph unicode="s" horiz-adv-x="831" d="M96 102q0 29 20.5 51.5t55.5 22.5q9 0 21 -4q116 -47 204 -47q89 0 139 37t50 114q0 51 -20 79t-56 48q-26 14 -74 31.5t-88 31.5t-86 39.5t-78 56t-53.5 81.5t-21.5 115q0 135 86 215t245 80q43 0 88 -6t88 -19t70 -36t27 -54q0 -30 -21 -52t-53 -22q-17 0 -37 10 q-80 37 -156 37q-182 0 -182 -143q0 -47 21.5 -75.5t74.5 -55.5q29 -15 92 -37t105 -42t88.5 -54.5t71 -89.5t24.5 -131q0 -140 -88.5 -219.5t-255.5 -79.5q-44 0 -91.5 5.5t-97 18t-81 37t-31.5 57.5z" />
<glyph unicode="t" horiz-adv-x="657" d="M152 416v856q0 34 21 56t58 22t58.5 -22.5t21.5 -55.5v-283h213q31 0 52.5 -22t21.5 -54t-21.5 -53.5t-52.5 -21.5h-213v-408q0 -86 5.5 -135.5t23.5 -87t51 -52t88 -14.5q6 0 19.5 1t19.5 1q107 0 107 -73q0 -47 -31.5 -62.5t-85.5 -15.5q-106 0 -176.5 25.5 t-109.5 81.5t-54.5 130.5t-15.5 186.5z" />
<glyph unicode="u" horiz-adv-x="1042" d="M152 371v598q0 34 21 56t58 22t58.5 -22.5t21.5 -55.5v-598q0 -118 48.5 -181t140.5 -63q117 0 225 68q-4 40 -4 57v717q0 34 21 56t59 22t59 -22t21 -56v-717q0 -40 4 -66.5t8 -35.5t13 -22t12 -19q14 -28 14 -41q0 -30 -22 -51t-54 -21q-50 0 -88 61q-129 -73 -291 -73 q-159 0 -242 104.5t-83 282.5z" />
<glyph unicode="v" horiz-adv-x="880" d="M55 952q-4 11 -4 21q1 23 19 44q26 30 63 30q53 0 72 -54l239 -772l236 772q7 23 28 38.5t44 15.5q37 0 61 -31q17 -22 17 -48q0 -11 -3 -22l-278 -866q-17 -51 -41.5 -73.5t-63.5 -22.5q-40 0 -63 21.5t-41 72.5z" />
<glyph unicode="w" horiz-adv-x="1341" d="M51 971q0 30 23.5 53t56.5 23q26 0 46.5 -15.5t27.5 -42.5l192 -753q119 467 185 739q8 32 32 52t60 20q34 0 57 -20t31 -52q23 -96 186 -739l191 753q6 25 26.5 41.5t46.5 16.5q31 0 54.5 -23.5t23.5 -56.5q0 -2 -1 -7.5t-1 -7.5l-235 -876q-14 -48 -37 -70t-66 -22 q-33 0 -59 18t-35 51l-184 719l-183 -719q-20 -69 -96 -69t-102 92l-238 882q-2 4 -2 13z" />
<glyph unicode="x" horiz-adv-x="882" d="M51 63q0 20 10 35l287 426l-268 406q-12 15 -12 35q0 33 23 57.5t56 24.5q21 0 40 -12.5t28 -24.5t23 -33l206 -318l215 334q17 28 33.5 41t42.5 13q29 0 53.5 -22.5t24.5 -53.5q0 -24 -10 -39l-268 -404l286 -426q10 -15 10 -34q0 -35 -22.5 -59.5t-58.5 -24.5 q-26 0 -42 12t-36 43l-232 356l-241 -370q-25 -41 -66 -41q-34 0 -58 22t-24 57z" />
<glyph unicode="y" horiz-adv-x="843" d="M33 973q0 32 23 53t57 21q52 0 71 -54l256 -776l224 776q9 26 29 40t44 14q32 0 56 -23t24 -57q0 -9 -4 -25l-250 -813q-25 -81 -41.5 -131t-42 -114t-48 -102.5t-55.5 -80t-68.5 -63.5t-83 -37.5t-103.5 -16.5q-35 0 -58.5 22t-23.5 56q0 29 21 52t55 24 q95 4 147.5 62.5t99.5 203.5l-325 940q-4 6 -4 29z" />
<glyph unicode="z" horiz-adv-x="786" d="M31 86q0 29 14 51l508 750h-428q-31 0 -52.5 21.5t-21.5 52.5q0 32 21.5 52.5t52.5 20.5h543q35 0 59.5 -22.5t24.5 -59.5q0 -28 -19 -57l-506 -748h453q32 0 54 -21t22 -52t-22 -52.5t-54 -21.5h-567q-33 0 -57.5 25t-24.5 61z" />
<glyph unicode="{" horiz-adv-x="854" d="M63 494q0 36 21.5 54.5t58.5 18.5q78 0 117 45t45 140q3 48 11 181.5t12 196.5q7 116 95.5 184t225.5 68q25 0 43.5 -3t37.5 -11.5t29.5 -27t10.5 -46.5q0 -33 -15 -48.5t-34 -14.5t-37 2q-32 4 -55 4q-57 0 -100 -35.5t-46 -95.5l-16 -342q-9 -199 -148 -270 q139 -71 148 -271l16 -342q3 -60 45.5 -95.5t98.5 -35.5q25 0 57 4q18 1 37 2t34 -14.5t15 -48.5q0 -28 -10.5 -46.5t-29.5 -27t-37.5 -11.5t-43.5 -3q-137 0 -225.5 68t-95.5 184l-23 379q-6 95 -45 139.5t-117 44.5q-36 0 -58 19t-22 55z" />
<glyph unicode="|" horiz-adv-x="464" d="M158 -418v1899q0 30 21.5 51.5t51.5 21.5q31 0 52.5 -22t21.5 -51v-1899q0 -30 -22 -52t-52 -22t-51.5 22t-21.5 52z" />
<glyph unicode="}" horiz-adv-x="854" d="M84 -307q0 33 15 48.5t34 14.5t37 -2q32 -4 57 -4q56 0 98.5 35.5t45.5 95.5l16 342q10 202 145 271q-136 69 -145 270l-16 342q-3 60 -46 95.5t-100 35.5q-23 0 -55 -4q-18 -1 -37 -2t-34 14.5t-15 48.5q0 28 10.5 46.5t29.5 27t37.5 11.5t43.5 3q137 0 225.5 -68 t95.5 -184q4 -63 12 -196.5t11 -181.5q6 -95 45 -140t117 -45q37 0 58.5 -18.5t21.5 -54.5t-22 -55t-58 -19q-78 0 -117 -44.5t-45 -139.5l-23 -379q-7 -116 -95.5 -184t-225.5 -68q-25 0 -43.5 3t-37.5 11.5t-29.5 27t-10.5 46.5z" />
<glyph unicode="~" horiz-adv-x="929" d="M125 651q0 66 61 113t142 47q56 0 133.5 -38.5t111.5 -41.5q31 0 55 10t36.5 22t30 23.5t36.5 14.5q30 0 52 -23.5t22 -56.5q0 -60 -65 -102.5t-138 -47.5q-58 0 -137 38.5t-109 41.5q-30 0 -54.5 -10.5t-37.5 -23t-30 -23t-35 -10.5q-28 0 -49 18.5t-25 48.5z" />
<glyph unicode="&#xa1;" horiz-adv-x="464" d="M125 932q0 46 32.5 79t78.5 33q44 0 76 -33t32 -79q0 -44 -32 -76.5t-76 -32.5q-46 0 -78.5 32.5t-32.5 76.5zM150 -358l20 968q0 27 17.5 46.5t43.5 19.5q25 0 43.5 -20t18.5 -46l20 -968q0 -33 -24.5 -57.5t-57.5 -24.5t-57 24.5t-24 57.5z" />
<glyph unicode="&#xa2;" horiz-adv-x="1024" d="M147 422v207q0 154 78 254.5t234 117.5v91q0 22 15 37.5t38 15.5t38 -15.5t15 -37.5v-88q40 -3 78.5 -11.5t75 -22.5t58.5 -37.5t22 -51.5t-20.5 -49t-49.5 -21q-15 0 -33 6q-80 39 -131 45v-676q46 5 131 47q21 7 33 7q29 0 49.5 -21t20.5 -49q0 -29 -22 -52.5 t-58.5 -37.5t-75 -22t-78.5 -11v-104q0 -22 -15.5 -38t-37.5 -16t-37.5 16t-15.5 38v104q-156 17 -234 118t-78 257zM307 422q0 -97 36 -154t116 -75v663q-152 -32 -152 -227v-207z" />
<glyph unicode="&#xa5;" horiz-adv-x="974" d="M31 1380q0 33 25.5 58.5t58.5 25.5q46 0 63 -32l309 -674l310 674q17 32 63 32q33 0 58.5 -25.5t25.5 -58.5q0 -19 -8 -39l-277 -585h154q31 0 55.5 -22t24.5 -54t-23 -54t-57 -22h-223l-19 -41v-74h242q32 0 56 -22t24 -53q0 -32 -23 -54t-57 -22h-242v-272 q0 -34 -24.5 -60t-59.5 -26t-59.5 25.5t-24.5 60.5v272h-241q-34 0 -57 22t-23 54q0 31 24 53t56 22h241v78l-18 37h-223q-34 0 -57 22t-23 54t24.5 54t55.5 22h151l-274 585q-8 20 -8 39z" />
<glyph unicode="&#xa8;" horiz-adv-x="825" d="M147 1309q0 39 28 67.5t67 28.5q41 0 69.5 -28t28.5 -68q0 -42 -28.5 -71.5t-69.5 -29.5q-39 0 -67 30.5t-28 70.5zM492 1309q0 38 29 67t69 29t68 -28t28 -68q0 -41 -28 -71t-68 -30q-39 0 -68.5 30.5t-29.5 70.5z" />
<glyph unicode="&#xa9;" horiz-adv-x="1515" d="M131 641q0 195 71 342.5t214 232t342 84.5t341.5 -84.5t213.5 -232t71 -342.5t-71 -342.5t-213.5 -232t-341.5 -84.5t-342 84.5t-214 232t-71 342.5zM254 641q0 -242 132.5 -389.5t371.5 -147.5t371.5 147.5t132.5 389.5t-132.5 389.5t-371.5 147.5t-371.5 -147.5 t-132.5 -389.5zM483 580v125q0 134 73 217.5t220 83.5q46 0 94.5 -8t91 -32.5t42.5 -60.5q0 -22 -16.5 -38.5t-39.5 -16.5q-6 0 -26 4q-66 39 -131 39q-181 0 -181 -188v-125q0 -93 43.5 -141t137.5 -48q10 0 20.5 1t18 2t18 4t15.5 4.5t16 6t13.5 6t15 7t14.5 6.5 q15 6 26 6q23 0 39.5 -17t16.5 -40q0 -27 -24 -47t-61.5 -30.5t-73.5 -15.5t-69 -5q-147 0 -220 83t-73 218z" />
<glyph unicode="&#xab;" horiz-adv-x="882" d="M84 524l311 469q17 28 33.5 41t42.5 13q29 0 53.5 -22.5t24.5 -53.5q0 -24 -10 -39l-269 -404l287 -426q10 -15 10 -34q0 -35 -23 -59.5t-59 -24.5q-26 0 -41.5 12t-35.5 43zM412 524l233 353q17 27 33.5 40t42.5 13q29 0 53.5 -22.5t24.5 -53.5q0 -23 -11 -39l-190 -291 l190 -291q11 -17 11 -38q0 -31 -24.5 -53.5t-53.5 -22.5q-26 0 -42.5 13t-33.5 40z" />
<glyph unicode="&#xad;" horiz-adv-x="817" d="M78 604q0 31 22 53.5t54 22.5h510q30 0 51.5 -22.5t21.5 -53.5t-21 -52.5t-52 -21.5h-510q-32 0 -54 21.5t-22 52.5z" />
<glyph unicode="&#xae;" horiz-adv-x="1433" d="M131 866q0 183 66 321t200 218t320 80t320 -80t200 -218t66 -321q0 -177 -66 -310.5t-200 -210.5t-320 -77t-320 77t-200 210.5t-66 310.5zM254 866q0 -215 121 -345t342 -130t342 130t121 345q0 224 -121 360t-342 136t-342 -136t-121 -360zM496 606v522q0 28 20.5 49 t46.5 21h158q115 0 169 -59t54 -144q0 -128 -106 -178l131 -199q6 -18 6 -24q0 -16 -22.5 -27.5t-43.5 -11.5q-36 0 -53 20l-141 222h-97v-191q0 -20 -19 -35.5t-44 -15.5q-24 0 -41.5 15t-17.5 36zM618 915h105q98 0 98 80q0 82 -104 82h-99v-162z" />
<glyph unicode="&#xaf;" horiz-adv-x="825" d="M82 1305q0 31 22 53t54 22h510q31 0 52 -22t21 -53t-21 -52.5t-52 -21.5h-510q-32 0 -54 21.5t-22 52.5z" />
<glyph unicode="&#xb0;" horiz-adv-x="802" d="M113 1180q0 125 76 205.5t212 80.5t212.5 -80.5t76.5 -205.5t-76.5 -206t-212.5 -81q-135 0 -211.5 81t-76.5 206zM252 1184q0 -164 149 -164q150 0 150 164q0 155 -150 155q-149 0 -149 -155z" />
<glyph unicode="&#xb1;" horiz-adv-x="1024" d="M25 80q0 33 24 56.5t55 23.5h816q31 0 55 -23.5t24 -56.5q0 -34 -22.5 -57t-56.5 -23h-816q-34 0 -56.5 23t-22.5 57zM25 786q0 33 24 56.5t55 23.5h328v348q0 31 23.5 55.5t56.5 24.5q34 0 57 -23t23 -57v-348h328q31 0 55 -23.5t24 -56.5q0 -34 -22.5 -56.5 t-56.5 -22.5h-328v-349q0 -34 -23 -56.5t-57 -22.5q-33 0 -56.5 24t-23.5 55v349h-328q-34 0 -56.5 22.5t-22.5 56.5z" />
<glyph unicode="&#xb2;" d="M33 846q0 23 10 43q18 43 51 88t58 71t71 70q8 9 42.5 44.5t45.5 49.5q54 50 54 117q0 55 -29.5 88t-85.5 33q-38 0 -90 -18l-27 -13q-23 -14 -39 -14q-18 0 -34.5 12.5t-16.5 30.5q0 23 12 35q95 61 195 61q98 0 154.5 -57.5t56.5 -145.5q0 -110 -70 -194 q-11 -14 -65 -68l-21 -20q-106 -98 -145 -166h260q18 0 31.5 -15t13.5 -36q0 -19 -13.5 -31t-31.5 -12h-332q-25 0 -40 12.5t-15 34.5z" />
<glyph unicode="&#xb3;" d="M41 868q0 22 14 37t35 15q5 0 31 -13q50 -28 106 -28q70 0 101.5 41.5t31.5 99.5q0 63 -34.5 93t-92.5 30q-22 0 -34 -6l-6 -4q-3 -3 -17 -3q-27 0 -39.5 25.5t4.5 48.5l168 221h-203q-23 0 -38 12.5t-15 32.5q0 24 15 40t38 16h281q23 0 36 -16t13 -44t-6 -34l-160 -205 q82 -6 135.5 -61.5t53.5 -143.5q0 -56 -20.5 -107t-70.5 -89t-122 -38q-22 0 -50.5 3t-66.5 10.5t-63 25t-25 41.5z" />
<glyph unicode="&#xb4;" horiz-adv-x="565" d="M158 1247q0 19 10 31l160 166l18 18t17 16t16 8.5t24 4.5q23 0 43.5 -20t20.5 -48q0 -21 -10 -34l-166 -177q-16 -14 -23 -20t-18.5 -11t-24.5 -5q-28 0 -47.5 19.5t-19.5 51.5z" />
<glyph unicode="&#xb7;" horiz-adv-x="522" d="M145 561q0 44 32.5 76.5t76.5 32.5q46 0 78.5 -32.5t32.5 -76.5q0 -46 -32.5 -78t-78.5 -32q-44 0 -76.5 32.5t-32.5 77.5z" />
<glyph unicode="&#xb8;" horiz-adv-x="614" d="M119 -336q5 10 11.5 15t17.5 5t20 -2t27.5 -6.5t31.5 -7.5q66 -12 104 16.5t38 67.5q0 68 -123 74q-49 3 -65.5 16t-10.5 49l27 150h100l-21 -123q226 -3 226 -180q0 -83 -75 -136t-210 -34q-51 6 -83.5 34.5t-14.5 61.5z" />
<glyph unicode="&#xb9;" d="M57 1354q0 25 27 45l199 125q15 10 28 10q22 0 36.5 -15.5t14.5 -39.5v-645q0 -18 -14.5 -32t-34.5 -14q-23 0 -38 14t-15 32v569l-106 -74q-29 -18 -48 -18q-20 0 -34.5 13t-14.5 30z" />
<glyph unicode="&#xba;" horiz-adv-x="786" d="M102 1004v163q0 131 75.5 214t215.5 83t215.5 -83t75.5 -214v-163q0 -131 -75.5 -213t-215.5 -82t-215.5 82t-75.5 213zM240 999q0 -163 153 -163q154 0 154 163v160q0 87 -36 131.5t-118 44.5t-117.5 -44.5t-35.5 -131.5v-160z" />
<glyph unicode="&#xbb;" horiz-adv-x="882" d="M84 195q0 23 10 38l191 291l-191 291q-10 15 -10 39q0 31 24.5 53.5t53.5 22.5q26 0 42.5 -13t33.5 -40l233 -353l-233 -352q-17 -27 -33.5 -40t-42.5 -13q-29 0 -53.5 22.5t-24.5 53.5zM315 68q0 18 11 34l286 426l-268 404q-10 15 -10 39q0 31 24.5 53.5t53.5 22.5 q26 0 42 -13t33 -41l312 -469l-324 -485q-20 -31 -36 -43t-42 -12q-36 0 -59 24.5t-23 59.5z" />
<glyph unicode="&#xbf;" horiz-adv-x="946" d="M76 -70q0 -168 111 -279.5t300 -111.5q201 0 344 92q54 35 54 78q0 33 -23.5 54.5t-54.5 21.5q-16 0 -34.5 -8.5t-44.5 -24.5t-44 -24q-86 -39 -195 -39q-122 0 -187.5 73.5t-65.5 190.5q0 131 112 260q18 23 74 85.5t89.5 111t53.5 104.5q13 30 13 80q0 33 -24.5 57.5 t-57.5 24.5t-57.5 -24.5t-24.5 -57.5q0 -50 -13 -80q-16 -35 -46 -68.5t-70.5 -72.5t-61.5 -64q-71 -79 -109 -169t-38 -210zM385 932q0 46 32.5 79t76.5 33q46 0 78 -33t32 -79q0 -44 -32 -76.5t-78 -32.5q-44 0 -76.5 32.5t-32.5 76.5z" />
<glyph unicode="&#xc0;" horiz-adv-x="1124" d="M51 61q0 19 4 31l400 1264q32 108 106 108q43 0 67.5 -27.5t41.5 -80.5l399 -1264q4 -12 4 -31q0 -36 -24.5 -58.5t-61.5 -22.5q-25 0 -49 17t-31 44l-88 285h-518l-86 -285q-9 -27 -32 -44t-46 -17q-36 0 -61 22.5t-25 58.5zM325 1833q0 28 20.5 48t43.5 20 q13 0 24 -4.5t16 -8t18 -16.5l18 -18l159 -166q11 -14 11 -31q0 -31 -20.5 -51t-47.5 -20q-30 0 -66 36l-165 177q-11 14 -11 34zM350 485h422l-211 695z" />
<glyph unicode="&#xc1;" horiz-adv-x="1124" d="M51 61q0 -36 25 -58.5t61 -22.5q23 0 46 17t32 44l86 285h518l88 -285q7 -27 31 -44t49 -17q37 0 61.5 22.5t24.5 58.5q0 19 -4 31l-399 1264q-17 53 -41.5 80.5t-67.5 27.5q-74 0 -106 -108l-400 -1264q-4 -12 -4 -31zM350 485l211 695l211 -695h-422zM496 1657 q0 19 10 31l160 165q7 6 18.5 18t16.5 16.5t16 9t24 4.5q23 0 43.5 -20t20.5 -48q0 -23 -10 -35l-166 -176q-13 -12 -17.5 -16t-14 -10.5t-17 -8.5t-17.5 -2q-28 0 -47.5 20t-19.5 52z" />
<glyph unicode="&#xc2;" horiz-adv-x="1124" d="M51 61q0 19 4 31l400 1264q32 108 106 108q43 0 67.5 -27.5t41.5 -80.5l399 -1264q4 -12 4 -31q0 -36 -24.5 -58.5t-61.5 -22.5q-25 0 -49 17t-31 44l-88 285h-518l-86 -285q-9 -27 -32 -44t-46 -17q-36 0 -61 22.5t-25 58.5zM318 1629q0 28 37 61l161 137q26 17 45 17 q21 0 46 -17l161 -137q37 -33 37 -61q0 -21 -16 -37.5t-37 -16.5q-27 0 -37 13l-154 125l-153 -125q-10 -13 -39 -13q-20 0 -35.5 16.5t-15.5 37.5zM350 485h422l-211 695z" />
<glyph unicode="&#xc3;" horiz-adv-x="1124" d="M51 61q0 -36 25 -58.5t61 -22.5q23 0 46 17t32 44l86 285h518l88 -285q7 -27 31 -44t49 -17q37 0 61.5 22.5t24.5 58.5q0 19 -4 31l-399 1264q-17 53 -41.5 80.5t-67.5 27.5q-74 0 -106 -108l-400 -1264q-4 -12 -4 -31zM279 1681q0 56 50 95t117 39q47 0 112 -31.5 t93 -34.5q44 0 78 27.5t53 29.5q25 0 43.5 -19t18.5 -46q0 -51 -53.5 -86.5t-114.5 -38.5q-49 0 -115 31.5t-90 33.5q-42 0 -77 -27.5t-54 -27.5q-24 0 -41 15.5t-20 39.5zM350 485l211 695l211 -695h-422z" />
<glyph unicode="&#xc4;" horiz-adv-x="1124" d="M51 61q0 19 4 31l400 1264q32 108 106 108q43 0 67.5 -27.5t41.5 -80.5l399 -1264q4 -12 4 -31q0 -36 -24.5 -58.5t-61.5 -22.5q-25 0 -49 17t-31 44l-88 285h-518l-86 -285q-9 -27 -32 -44t-46 -17q-36 0 -61 22.5t-25 58.5zM292 1719q0 39 28 67.5t67 28.5 q41 0 69.5 -28t28.5 -68q0 -42 -28.5 -71.5t-69.5 -29.5q-39 0 -67 30.5t-28 70.5zM350 485h422l-211 695zM637 1719q0 38 29 67t69 29t68 -28t28 -68q0 -41 -28 -71t-68 -30q-39 0 -68.5 30.5t-29.5 70.5z" />
<glyph unicode="&#xc5;" horiz-adv-x="1124" d="M51 61q0 19 4 31l381 1204q-47 31 -73.5 80.5t-26.5 108.5q0 93 66 159t161 66q94 0 159.5 -65.5t65.5 -159.5q0 -58 -27 -107.5t-73 -81.5l381 -1204q4 -12 4 -31q0 -36 -24.5 -58.5t-61.5 -22.5q-25 0 -49 17t-31 44l-88 285h-518l-86 -285q-9 -27 -32 -44t-46 -17 q-36 0 -61 22.5t-25 58.5zM350 485h422l-211 695zM440 1485q0 -51 36 -87t87 -36t87 35.5t36 87.5q0 51 -36 88t-87 37t-87 -37t-36 -88z" />
<glyph unicode="&#xc6;" horiz-adv-x="1478" d="M51 61q0 19 4 31l396 1243q32 109 106 109h752q34 0 58 -24t24 -58q0 -33 -24 -55.5t-58 -22.5h-426v-479h387q31 0 55.5 -23.5t24.5 -56.5q0 -34 -23 -57t-57 -23h-387v-485h446q32 0 57 -22.5t25 -53.5q0 -35 -24 -59.5t-58 -24.5h-481q-129 0 -129 96v230h-418 l-86 -285q-7 -26 -31 -43.5t-47 -17.5q-37 0 -61.5 22.5t-24.5 58.5zM350 485h369v799h-103q-26 0 -26 -20z" />
<glyph unicode="&#xc7;" horiz-adv-x="987" d="M92 504v438q0 244 115.5 383t345.5 139q141 0 251.5 -52.5t110.5 -123.5q0 -30 -20.5 -50.5t-52.5 -20.5q-10 0 -19.5 3t-15 6t-18.5 11.5t-21 13.5q-91 64 -205 64q-166 0 -236.5 -95.5t-70.5 -277.5v-438q0 -182 70.5 -277.5t236.5 -95.5q114 0 205 64q10 6 22 13.5 t18 11t15 6.5t19 3q32 0 52.5 -20.5t20.5 -50.5q0 -71 -110.5 -123.5t-251.5 -52.5h-18l-11 -64q226 -3 226 -180q0 -83 -75 -136t-210 -34q-51 6 -83.5 34.5t-14.5 61.5q5 10 11.5 15t17.5 5t20 -2t27.5 -6.5t31.5 -7.5q66 -12 103.5 16.5t37.5 67.5q0 68 -122 74 q-49 3 -65.5 16t-10.5 49l18 101q-173 33 -258.5 166.5t-85.5 345.5z" />
<glyph unicode="&#xc8;" horiz-adv-x="970" d="M150 96v1252q0 37 28 66.5t68 29.5h555q34 0 58 -24t24 -58q0 -33 -24 -55.5t-58 -22.5h-488v-479h449q31 0 55.5 -23.5t24.5 -56.5q0 -34 -23 -57t-57 -23h-449v-485h508q32 0 57 -22.5t25 -53.5q0 -35 -24 -59.5t-58 -24.5h-542q-129 0 -129 96zM329 1833q0 28 20.5 48 t43.5 20q13 0 24 -4.5t16 -8t18 -16.5l18 -18l159 -166q11 -14 11 -31q0 -31 -20.5 -51t-47.5 -20q-30 0 -66 36l-165 177q-11 14 -11 34z" />
<glyph unicode="&#xc9;" horiz-adv-x="970" d="M150 96v1252q0 37 28 66.5t68 29.5h555q34 0 58 -24t24 -58q0 -33 -24 -55.5t-58 -22.5h-488v-479h449q31 0 55.5 -23.5t24.5 -56.5q0 -34 -23 -57t-57 -23h-449v-485h508q32 0 57 -22.5t25 -53.5q0 -35 -24 -59.5t-58 -24.5h-542q-129 0 -129 96zM414 1657q0 19 10 31 l160 165q7 6 18.5 18t16.5 16.5t16 9t24 4.5q23 0 43.5 -20t20.5 -48q0 -23 -10 -35l-166 -176q-13 -12 -17.5 -16t-14 -10.5t-17 -8.5t-17.5 -2q-28 0 -47.5 20t-19.5 52z" />
<glyph unicode="&#xca;" horiz-adv-x="970" d="M150 96v1252q0 37 28 66.5t68 29.5h555q34 0 58 -24t24 -58q0 -33 -24 -55.5t-58 -22.5h-488v-479h449q31 0 55.5 -23.5t24.5 -56.5q0 -34 -23 -57t-57 -23h-449v-485h508q32 0 57 -22.5t25 -53.5q0 -35 -24 -59.5t-58 -24.5h-542q-129 0 -129 96zM291 1629q0 28 37 61 l161 137q25 17 45 17t46 -17l161 -137q37 -33 37 -61q0 -21 -16 -37.5t-37 -16.5q-27 0 -37 13l-154 125l-153 -125q-10 -13 -39 -13q-20 0 -35.5 16.5t-15.5 37.5z" />
<glyph unicode="&#xcb;" horiz-adv-x="970" d="M150 96v1252q0 37 28 66.5t68 29.5h555q34 0 58 -24t24 -58q0 -33 -24 -55.5t-58 -22.5h-488v-479h449q31 0 55.5 -23.5t24.5 -56.5q0 -34 -23 -57t-57 -23h-449v-485h508q32 0 57 -22.5t25 -53.5q0 -35 -24 -59.5t-58 -24.5h-542q-129 0 -129 96zM264 1718q0 39 27.5 68 t66.5 29q41 0 70 -28.5t29 -68.5q0 -41 -29 -70.5t-70 -29.5q-39 0 -66.5 30t-27.5 70zM608 1718q0 38 29.5 67.5t69.5 29.5t68 -28.5t28 -68.5q0 -41 -28 -70.5t-68 -29.5t-69.5 30t-29.5 70z" />
<glyph unicode="&#xcc;" horiz-adv-x="464" d="M22 1833q0 28 20.5 48t43.5 20q13 0 24 -4.5t16 -8t18 -16.5l18 -18l159 -166q11 -14 11 -31q0 -31 -20.5 -51t-47.5 -20q-30 0 -66 36l-165 177q-11 14 -11 34zM150 61v1321q0 33 24 57.5t57 24.5t57.5 -24.5t24.5 -57.5v-1321q0 -33 -24.5 -57t-57.5 -24t-57 24t-24 57 z" />
<glyph unicode="&#xcd;" horiz-adv-x="464" d="M133 1657q0 19 10 31l160 165q6 6 18 18.5t17.5 16.5t16.5 8.5t24 4.5q23 0 43 -20t20 -48q0 -23 -10 -35l-166 -176l-5 -5q-31 -28 -49 -31q-5 -1 -11 -1q-28 0 -48 20t-20 52zM150 61v1321q0 33 24 57.5t57 24.5t57.5 -24.5t24.5 -57.5v-1321q0 -33 -24.5 -57 t-57.5 -24t-57 24t-24 57z" />
<glyph unicode="&#xce;" horiz-adv-x="464" d="M-10 1629q0 28 37 61l161 137q25 17 45 17q21 0 46 -17l161 -137q37 -33 37 -61q0 -21 -16 -37.5t-37 -16.5q-27 0 -37 13l-154 125l-153 -125q-10 -13 -39 -13q-20 0 -35.5 16.5t-15.5 37.5zM150 61v1321q0 33 24 57.5t57 24.5t57.5 -24.5t24.5 -57.5v-1321 q0 -33 -24.5 -57t-57.5 -24t-57 24t-24 57z" />
<glyph unicode="&#xcf;" horiz-adv-x="464" d="M-37 1718q0 39 27.5 68t66.5 29q41 0 70 -28.5t29 -68.5q0 -41 -29 -70.5t-70 -29.5q-39 0 -66.5 30t-27.5 70zM150 61v1321q0 33 24 57.5t57 24.5t57.5 -24.5t24.5 -57.5v-1321q0 -33 -24.5 -57t-57.5 -24t-57 24t-24 57zM307 1718q0 38 29.5 67.5t69.5 29.5t68 -28.5 t28 -68.5q0 -41 -28 -70.5t-68 -29.5t-69.5 30t-29.5 70z" />
<glyph unicode="&#xd0;" horiz-adv-x="1175" d="M35 723q0 31 22 53.5t54 22.5h79v549q0 40 29.5 69t69.5 29h231q122 0 218.5 -28.5t160 -76.5t105 -115.5t59.5 -142t18 -159.5v-383q0 -88 -17.5 -164.5t-59.5 -147t-105 -120.5t-160 -79.5t-219 -29.5h-231q-40 0 -69.5 29t-29.5 69v551h-79q-32 0 -54 21.5t-22 52.5z M354 160h201q98 0 170 29.5t113 82.5t60.5 120t19.5 149v383q0 79 -20 142.5t-61.5 114t-113 78t-168.5 27.5h-201v-487h267q30 0 51.5 -22.5t21.5 -53.5t-21 -52.5t-52 -21.5h-267v-489z" />
<glyph unicode="&#xd1;" horiz-adv-x="1228" d="M150 63v1311q0 38 25 64t63 26q27 0 50.5 -13t35.5 -36l589 -1089v1054q0 34 25 59t59 25q33 0 56.5 -25t23.5 -59v-1310q0 -37 -25.5 -63.5t-64.5 -26.5q-25 0 -48.5 13t-35.5 34l-590 1091v-1055q0 -34 -25 -58.5t-59 -24.5q-33 0 -56 24.5t-23 58.5zM332 1682 q0 56 50.5 94.5t117.5 38.5q47 0 111.5 -31.5t92.5 -34.5q44 0 78.5 28t53.5 30q25 0 43 -19t18 -47q0 -51 -53.5 -86.5t-114.5 -38.5q-49 0 -115 32t-90 34q-42 0 -77 -27.5t-54 -27.5q-24 0 -41 15.5t-20 39.5z" />
<glyph unicode="&#xd2;" horiz-adv-x="1128" d="M92 504v438q0 110 26.5 202t81.5 165t147.5 114t215.5 41t215.5 -41t147.5 -114t81.5 -165t26.5 -202v-438q0 -149 -51.5 -265.5t-159.5 -187.5t-260 -71t-260 71t-159.5 187.5t-51.5 265.5zM256 504q0 -168 77 -266.5t230 -98.5t230 98.5t77 266.5v438q0 363 -307 363 t-307 -363v-438zM366 1833q0 28 20.5 48t43.5 20q13 0 24 -4.5t16 -8t18 -16.5l18 -18l159 -166q11 -14 11 -31q0 -31 -20.5 -51t-47.5 -20q-30 0 -66 36l-165 177q-11 14 -11 34z" />
<glyph unicode="&#xd3;" horiz-adv-x="1128" d="M92 504v438q0 110 26.5 202t81.5 165t147.5 114t215.5 41t215.5 -41t147.5 -114t81.5 -165t26.5 -202v-438q0 -149 -51.5 -265.5t-159.5 -187.5t-260 -71t-260 71t-159.5 187.5t-51.5 265.5zM256 504q0 -168 77 -266.5t230 -98.5t230 98.5t77 266.5v438q0 363 -307 363 t-307 -363v-438zM469 1657q0 19 10 31l160 165q6 6 18 18.5t17.5 16.5t16.5 8.5t24 4.5q23 0 43 -20t20 -48q0 -23 -10 -35l-166 -176q-33 -30 -47 -35q-8 -2 -18 -2q-28 0 -48 20t-20 52z" />
<glyph unicode="&#xd4;" horiz-adv-x="1128" d="M92 504v438q0 110 26.5 202t81.5 165t147.5 114t215.5 41t215.5 -41t147.5 -114t81.5 -165t26.5 -202v-438q0 -149 -51.5 -265.5t-159.5 -187.5t-260 -71t-260 71t-159.5 187.5t-51.5 265.5zM256 504q0 -168 77 -266.5t230 -98.5t230 98.5t77 266.5v438q0 363 -307 363 t-307 -363v-438zM320 1629q0 28 37 61l161 137q25 17 45 17q21 0 46 -17l161 -137q37 -33 37 -61q0 -21 -16 -37.5t-37 -16.5q-27 0 -37 13l-154 125l-153 -125q-10 -13 -39 -13q-20 0 -35.5 16.5t-15.5 37.5z" />
<glyph unicode="&#xd5;" horiz-adv-x="1128" d="M92 504v438q0 110 26.5 202t81.5 165t147.5 114t215.5 41t215.5 -41t147.5 -114t81.5 -165t26.5 -202v-438q0 -149 -51.5 -265.5t-159.5 -187.5t-260 -71t-260 71t-159.5 187.5t-51.5 265.5zM256 504q0 -168 77 -266.5t230 -98.5t230 98.5t77 266.5v438q0 363 -307 363 t-307 -363v-438zM281 1681q0 56 50.5 95t117.5 39q47 0 111.5 -31.5t92.5 -34.5q44 0 78 27.5t53 29.5q25 0 43.5 -19t18.5 -46q0 -51 -53.5 -86.5t-114.5 -38.5q-49 0 -115 31.5t-90 33.5q-42 0 -77 -27.5t-54 -27.5q-24 0 -41 15.5t-20 39.5z" />
<glyph unicode="&#xd6;" horiz-adv-x="1128" d="M92 504v438q0 110 26.5 202t81.5 165t147.5 114t215.5 41t215.5 -41t147.5 -114t81.5 -165t26.5 -202v-438q0 -149 -51.5 -265.5t-159.5 -187.5t-260 -71t-260 71t-159.5 187.5t-51.5 265.5zM256 504q0 -168 77 -266.5t230 -98.5t230 98.5t77 266.5v438q0 363 -307 363 t-307 -363v-438zM294 1719q0 39 28 67.5t67 28.5q41 0 69.5 -28t28.5 -68q0 -42 -28.5 -71.5t-69.5 -29.5q-39 0 -67 30.5t-28 70.5zM639 1719q0 38 29 67t69 29t68 -28t28 -68q0 -41 -28 -71t-68 -30q-39 0 -68.5 30.5t-29.5 70.5z" />
<glyph unicode="&#xd7;" horiz-adv-x="1024" d="M129 422q0 32 25 57l245 246l-245 246q-24 22 -24 55t24 57q23 25 55 25t57 -25l246 -245l246 245q25 25 57 25t55 -25q24 -24 24 -57t-24 -55l-245 -246l245 -246q25 -25 25 -57t-25 -55q-24 -24 -57 -24t-55 24l-246 245l-246 -245q-22 -24 -55 -24t-57 24 q-25 23 -25 55z" />
<glyph unicode="&#xd8;" horiz-adv-x="1128" d="M41.5 39.5q-3.5 21.5 9.5 40.5l101 143q-60 126 -60 281v438q0 110 26.5 202t81.5 165t147.5 114t215.5 41q233 0 355 -145l73 104q12 19 34.5 23t41.5 -8q18 -12 21.5 -33.5t-9.5 -40.5l-100 -143q55 -119 55 -279v-438q0 -149 -51.5 -265.5t-159.5 -187.5t-260 -71 q-222 0 -350 147l-74 -107q-12 -18 -34.5 -22t-41.5 8q-18 12 -21.5 33.5zM256 504q0 -73 10 -117l553 791q-75 127 -256 127q-307 0 -307 -363v-438zM311 266q78 -127 252 -127q153 0 230 98.5t77 266.5v438q0 53 -10 111z" />
<glyph unicode="&#xd9;" horiz-adv-x="1171" d="M133 471v907q0 37 24.5 61.5t59.5 24.5q32 0 56 -25.5t24 -60.5v-907q0 -153 73 -242.5t216 -89.5q142 0 214 90t72 242v907q0 34 23.5 60t56.5 26q36 0 61 -26t25 -60v-907q0 -218 -121 -354.5t-331 -136.5q-213 0 -333 136.5t-120 354.5zM360 1833q0 28 20.5 48 t43.5 20q13 0 24 -4.5t16 -8t18 -16.5l18 -18l159 -166q11 -14 11 -31q0 -31 -20.5 -51t-47.5 -20q-30 0 -66 36l-165 177q-11 14 -11 34z" />
<glyph unicode="&#xda;" horiz-adv-x="1171" d="M133 471v907q0 37 24.5 61.5t59.5 24.5q32 0 56 -25.5t24 -60.5v-907q0 -153 73 -242.5t216 -89.5q142 0 214 90t72 242v907q0 34 23.5 60t56.5 26q36 0 61 -26t25 -60v-907q0 -218 -121 -354.5t-331 -136.5q-213 0 -333 136.5t-120 354.5zM504 1657q0 19 10 31l160 165 q6 6 18 18.5t17.5 16.5t16.5 8.5t24 4.5q23 0 43 -20t20 -48q0 -23 -10 -35l-166 -176q-13 -12 -17.5 -16t-14 -10.5t-17 -8.5t-17.5 -2q-28 0 -47.5 20t-19.5 52z" />
<glyph unicode="&#xdb;" horiz-adv-x="1171" d="M133 471v907q0 37 24.5 61.5t59.5 24.5q32 0 56 -25.5t24 -60.5v-907q0 -153 73 -242.5t216 -89.5q142 0 214 90t72 242v907q0 34 23.5 60t56.5 26q36 0 61 -26t25 -60v-907q0 -218 -121 -354.5t-331 -136.5q-213 0 -333 136.5t-120 354.5zM342 1629q0 28 37 61l161 137 q26 17 45 17q21 0 46 -17l161 -137q37 -33 37 -61q0 -21 -16 -37.5t-37 -16.5q-27 0 -37 13l-154 125l-153 -125q-10 -13 -39 -13q-20 0 -35.5 16.5t-15.5 37.5z" />
<glyph unicode="&#xdc;" horiz-adv-x="1171" d="M133 471v907q0 37 24.5 61.5t59.5 24.5q32 0 56 -25.5t24 -60.5v-907q0 -153 73 -242.5t216 -89.5q142 0 214 90t72 242v907q0 34 23.5 60t56.5 26q36 0 61 -26t25 -60v-907q0 -218 -121 -354.5t-331 -136.5q-213 0 -333 136.5t-120 354.5zM315 1718q0 39 28 68t67 29 q41 0 69.5 -28.5t28.5 -68.5q0 -41 -28.5 -70.5t-69.5 -29.5q-39 0 -67 30t-28 70zM659 1718q0 38 29.5 67.5t69.5 29.5t68 -28.5t28 -68.5q0 -41 -28 -70.5t-68 -29.5t-69.5 30t-29.5 70z" />
<glyph unicode="&#xdd;" horiz-adv-x="974" d="M31 1380q0 33 25.5 58.5t58.5 25.5q46 0 63 -32l309 -674l310 674q17 32 63 32q33 0 58.5 -25.5t25.5 -58.5q0 -19 -8 -39l-365 -778v-497q0 -34 -24.5 -60t-59.5 -26t-59.5 25.5t-24.5 60.5v501l-364 774q-8 20 -8 39zM334 1657q0 19 10 31l160 166l18 18t17 16t16 8.5 t24 4.5q23 0 43.5 -20t20.5 -48q0 -21 -10 -34l-166 -177q-16 -14 -23 -20t-18.5 -11t-24.5 -5q-28 0 -47.5 19.5t-19.5 51.5z" />
<glyph unicode="&#xde;" horiz-adv-x="1085" d="M150 61v1321q0 33 24 57.5t57 24.5t57.5 -24.5t24.5 -57.5v-182h236q123 0 214.5 -37.5t144 -103.5t77.5 -146t25 -174q0 -215 -123.5 -333.5t-337.5 -118.5h-236v-226q0 -33 -24.5 -57t-57.5 -24t-57 24t-24 57zM313 446h236q297 0 297 295q0 299 -297 299h-236v-594z " />
<glyph unicode="&#xdf;" horiz-adv-x="1114" d="M150 -53v1065q0 217 104.5 339t296.5 122q166 0 270.5 -90t104.5 -250q0 -106 -48 -179t-130 -110q-12 -5 -34 -13t-38 -14.5t-32 -14.5t-23.5 -17t-4.5 -19q2 -7 8.5 -12.5t19 -11t25 -9.5t36 -11.5t43.5 -14.5q303 -111 303 -373q0 -160 -95 -251t-270 -91 q-24 0 -46.5 1t-65 6t-73 14t-54 28t-23.5 45q0 29 20 51.5t62 22.5q22 0 84 -11.5t94 -11.5q81 0 144 48.5t63 144.5q0 55 -23 102.5t-61.5 80.5t-77.5 54.5t-82 36.5q-9 3 -30.5 10t-33 10.5t-31 11.5t-31 15t-25.5 18t-21 23t-12.5 28.5t-5.5 35.5q0 85 75 123 q14 7 53.5 23.5t65.5 31t56.5 38.5t46.5 60.5t16 83.5q0 99 -63.5 154t-167.5 55q-119 0 -174.5 -75t-55.5 -232v-1071q0 -33 -23.5 -56.5t-56.5 -23.5t-56 23.5t-23 56.5z" />
<glyph unicode="&#xe0;" horiz-adv-x="987" d="M92 293v8q0 303 361 303q105 0 206 -29v117q0 112 -54 165.5t-165 53.5q-49 0 -82 -10.5t-73 -32.5q-1 0 -7.5 -3t-13 -5.5t-16 -5t-17.5 -2.5q-27 0 -41 20.5t-16 47.5q-3 34 21 60.5t66.5 41.5t93.5 23t106 8q188 0 273 -103t85 -311v-451q0 -61 37 -61q3 0 7.5 1 t8.5 1q28 0 44 -21t16 -49q0 -35 -27 -52t-65 -17q-50 0 -90 27t-64 75q-117 -108 -280 -108q-154 0 -234 83.5t-80 225.5zM250 291q0 -164 180 -164q123 0 229 90v221q-105 31 -208 31q-116 0 -158.5 -45t-42.5 -125v-8zM297 1423q0 28 20.5 48t43.5 20q13 0 24 -4.5t16 -8 t18 -16.5l18 -18l159 -166q11 -14 11 -31q0 -31 -20.5 -51t-47.5 -20q-30 0 -66 36l-165 177q-11 14 -11 34z" />
<glyph unicode="&#xe1;" horiz-adv-x="987" d="M92 293q0 -142 80 -225.5t234 -83.5q163 0 280 108q24 -48 64 -75t90 -27q38 0 65 17t27 52q0 28 -16 49t-44 21q-4 0 -8.5 -1t-7.5 -1q-37 0 -37 61v451q0 208 -85 311t-273 103q-55 0 -106 -8t-93.5 -23t-66.5 -41.5t-21 -60.5q2 -27 16 -47.5t41 -20.5q8 0 17.5 2.5 t16 5t13 5.5t7.5 3q40 22 73 32.5t82 10.5q111 0 165 -53.5t54 -165.5v-117q-102 29 -206 29q-361 0 -361 -303v-8zM250 291v8q0 80 42.5 125t158.5 45q103 0 208 -31v-221q-106 -90 -229 -90q-180 0 -180 164zM399 1247q0 17 11 31l159 166l15 15t14 13.5t12.5 9.5t15.5 7 t19 2q23 0 43.5 -20t20.5 -48q0 -20 -11 -34l-166 -177q-16 -15 -22.5 -20.5t-18 -10.5t-24.5 -5q-29 0 -48.5 20t-19.5 51z" />
<glyph unicode="&#xe2;" horiz-adv-x="987" d="M92 293v8q0 303 361 303q105 0 206 -29v117q0 112 -54 165.5t-165 53.5q-49 0 -82 -10.5t-73 -32.5q-1 0 -7.5 -3t-13 -5.5t-16 -5t-17.5 -2.5q-27 0 -41 20.5t-16 47.5q-3 34 21 60.5t66.5 41.5t93.5 23t106 8q188 0 273 -103t85 -311v-451q0 -61 37 -61q3 0 7.5 1 t8.5 1q28 0 44 -21t16 -49q0 -35 -27 -52t-65 -17q-50 0 -90 27t-64 75q-117 -108 -280 -108q-154 0 -234 83.5t-80 225.5zM250 291q0 -164 180 -164q123 0 229 90v221q-105 31 -208 31q-116 0 -158.5 -45t-42.5 -125v-8zM250 1219q0 28 37 61l161 137q25 17 45 17 q21 0 46 -17l161 -137q37 -33 37 -61q0 -21 -16 -37.5t-37 -16.5q-27 0 -37 13l-154 125l-153 -125q-10 -13 -39 -13q-20 0 -35.5 16.5t-15.5 37.5z" />
<glyph unicode="&#xe3;" horiz-adv-x="987" d="M92 293q0 -142 80 -225.5t234 -83.5q163 0 280 108q24 -48 64 -75t90 -27q38 0 65 17t27 52q0 28 -16 49t-44 21q-4 0 -8.5 -1t-7.5 -1q-37 0 -37 61v451q0 208 -85 311t-273 103q-55 0 -106 -8t-93.5 -23t-66.5 -41.5t-21 -60.5q2 -27 16 -47.5t41 -20.5q8 0 17.5 2.5 t16 5t13 5.5t7.5 3q40 22 73 32.5t82 10.5q111 0 165 -53.5t54 -165.5v-117q-102 29 -206 29q-361 0 -361 -303v-8zM211 1272q0 56 50.5 94.5t117.5 38.5q47 0 112 -31.5t93 -34.5q44 0 78 28t53 30q25 0 43 -19t18 -47q0 -51 -53.5 -86.5t-114.5 -38.5q-49 0 -115 32 t-90 34q-42 0 -77 -27.5t-54 -27.5q-24 0 -41 15.5t-20 39.5zM250 291v8q0 80 42.5 125t158.5 45q103 0 208 -31v-221q-106 -90 -229 -90q-180 0 -180 164z" />
<glyph unicode="&#xe4;" horiz-adv-x="987" d="M92 293v8q0 303 361 303q105 0 206 -29v117q0 112 -54 165.5t-165 53.5q-49 0 -82 -10.5t-73 -32.5q-1 0 -7.5 -3t-13 -5.5t-16 -5t-17.5 -2.5q-27 0 -41 20.5t-16 47.5q-3 34 21 60.5t66.5 41.5t93.5 23t106 8q188 0 273 -103t85 -311v-451q0 -61 37 -61q3 0 7.5 1 t8.5 1q28 0 44 -21t16 -49q0 -35 -27 -52t-65 -17q-50 0 -90 27t-64 75q-117 -108 -280 -108q-154 0 -234 83.5t-80 225.5zM223 1309q0 39 28 67.5t67 28.5q41 0 69.5 -28t28.5 -68q0 -42 -28.5 -71.5t-69.5 -29.5q-39 0 -67 30.5t-28 70.5zM250 291q0 -164 180 -164 q123 0 229 90v221q-105 31 -208 31q-116 0 -158.5 -45t-42.5 -125v-8zM568 1309q0 38 29 67t69 29t68 -28t28 -68q0 -41 -28 -71t-68 -30q-39 0 -68.5 30.5t-29.5 70.5z" />
<glyph unicode="&#xe5;" horiz-adv-x="987" d="M92 293q0 -142 80 -225.5t234 -83.5q163 0 280 108q24 -48 64 -75t90 -27q38 0 65 17t27 52q0 28 -16 49t-44 21q-4 0 -8.5 -1t-7.5 -1q-37 0 -37 61v451q0 208 -85 311t-273 103q-55 0 -106 -8t-93.5 -23t-66.5 -41.5t-21 -60.5q2 -27 16 -47.5t41 -20.5q8 0 17.5 2.5 t16 5t13 5.5t7.5 3q40 22 73 32.5t82 10.5q111 0 165 -53.5t54 -165.5v-117q-102 29 -206 29q-361 0 -361 -303v-8zM250 291v8q0 80 42.5 125t158.5 45q103 0 208 -31v-221q-106 -90 -229 -90q-180 0 -180 164zM291 1319q0 85 59.5 144t145.5 59q85 0 143.5 -59t58.5 -144 t-58.5 -144t-143.5 -59q-86 0 -145.5 59t-59.5 144zM385 1319q0 -46 32.5 -78.5t78.5 -32.5t78 32.5t32 78.5t-32.5 79.5t-77.5 33.5q-46 0 -78.5 -33.5t-32.5 -79.5z" />
<glyph unicode="&#xe6;" horiz-adv-x="1458" d="M92 293v8q0 303 361 303q105 0 206 -29v117q0 112 -54 165.5t-165 53.5q-49 0 -82 -10.5t-73 -32.5q-1 0 -7.5 -3t-13 -5.5t-16 -5t-17.5 -2.5q-27 0 -41 20.5t-16 47.5q-3 34 21 60.5t66.5 41.5t93.5 23t106 8q207 0 278 -168q38 78 115 123t188 45q160 0 246 -89.5 t86 -244.5q0 -303 -346 -303q-101 0 -209 18v-121q0 -88 57.5 -138t165.5 -50q58 0 102.5 13.5t110.5 43.5q18 6 29 6q30 0 51 -21.5t21 -49.5q0 -35 -36 -62.5t-89.5 -42t-105.5 -21.5t-95 -7q-197 0 -282 145q-142 -145 -342 -145q-154 0 -234 83.5t-80 225.5zM250 291 q0 -164 180 -164q123 0 229 90v221q-105 31 -208 31q-116 0 -158.5 -45t-42.5 -125v-8zM819 565q133 -14 215 -14q105 0 144 46.5t39 121.5q0 188 -187 188q-99 0 -155 -49.5t-56 -136.5v-156z" />
<glyph unicode="&#xe7;" horiz-adv-x="804" d="M92 360v310q0 168 92 272.5t275 104.5q40 0 85.5 -6.5t92 -20t76.5 -39t30 -59.5q0 -28 -20 -49t-49 -21q-15 0 -33 6q-31 16 -50 24t-50.5 15.5t-65.5 7.5q-117 0 -170 -59.5t-53 -175.5v-310q0 -116 53 -175.5t170 -59.5q34 0 65.5 7.5t50.5 15.5t50 24q18 6 33 6 q29 0 49 -20.5t20 -48.5q0 -33 -28 -58.5t-72.5 -39t-88 -20t-85.5 -7.5l-10 -66q225 -3 225 -180q0 -83 -75 -136t-210 -34q-51 6 -83.5 34.5t-14.5 61.5q5 10 12 15t18 5t19.5 -2t27.5 -6.5t32 -7.5q66 -12 103.5 16.5t37.5 67.5q0 68 -123 74q-49 3 -65.5 16t-10.5 49 l17 101q-139 24 -208 123t-69 245z" />
<glyph unicode="&#xe8;" horiz-adv-x="890" d="M92 324v383q0 153 98.5 249.5t276.5 96.5q167 0 253.5 -89t86.5 -245q0 -303 -346 -303q-101 0 -209 18v-121q0 -88 57.5 -138t165.5 -50q58 0 102.5 13.5t110.5 43.5q12 6 29 6q30 0 50.5 -21.5t20.5 -49.5q0 -35 -35.5 -62.5t-89.5 -42t-107 -21.5t-99 -7 q-169 0 -267 95.5t-98 244.5zM209 1423q0 28 20.5 48t43.5 20q13 0 24 -4.5t16 -8t18 -16.5l18 -18l159 -166q11 -14 11 -31q0 -31 -20.5 -51t-47.5 -20q-30 0 -66 36l-165 177q-11 14 -11 34zM252 565q106 -14 215 -14q56 0 94 14t56 39.5t25 52.5t7 62q0 188 -186 188 q-99 0 -155 -49.5t-56 -136.5v-156z" />
<glyph unicode="&#xe9;" horiz-adv-x="890" d="M92 324q0 -149 98 -244.5t267 -95.5q46 0 99 7t107 21.5t89.5 42t35.5 62.5q0 28 -20.5 49.5t-50.5 21.5q-17 0 -29 -6q-44 -20 -69.5 -30t-64 -18.5t-79.5 -8.5q-108 0 -165.5 50t-57.5 138v121q108 -18 209 -18q346 0 346 303q0 156 -86.5 245t-253.5 89 q-178 0 -276.5 -96.5t-98.5 -249.5v-383zM252 565v156q0 87 56 136.5t155 49.5q186 0 186 -188q0 -35 -7 -62t-25 -52.5t-56 -39.5t-94 -14q-109 0 -215 14zM367 1247q0 19 10 31l160 166l18 18t17 16t16 8.5t24 4.5q23 0 43.5 -20t20.5 -48q0 -21 -10 -34l-166 -177 q-16 -14 -23 -20t-18.5 -11t-24.5 -5q-28 0 -47.5 19.5t-19.5 51.5z" />
<glyph unicode="&#xea;" horiz-adv-x="890" d="M92 324v383q0 153 98.5 249.5t276.5 96.5q167 0 253.5 -89t86.5 -245q0 -303 -346 -303q-101 0 -209 18v-121q0 -88 57.5 -138t165.5 -50q58 0 102.5 13.5t110.5 43.5q12 6 29 6q30 0 50.5 -21.5t20.5 -49.5q0 -35 -35.5 -62.5t-89.5 -42t-107 -21.5t-99 -7 q-169 0 -267 95.5t-98 244.5zM201 1219q0 28 37 61l161 137q25 17 45 17t46 -17l161 -137q37 -33 37 -61q0 -21 -16 -37.5t-37 -16.5q-27 0 -37 13l-154 125l-153 -125q-10 -13 -39 -13q-20 0 -35.5 16.5t-15.5 37.5zM252 565q106 -14 215 -14q56 0 94 14t56 39.5t25 52.5 t7 62q0 188 -186 188q-99 0 -155 -49.5t-56 -136.5v-156z" />
<glyph unicode="&#xeb;" horiz-adv-x="890" d="M92 324q0 -149 98 -244.5t267 -95.5q46 0 99 7t107 21.5t89.5 42t35.5 62.5q0 28 -20.5 49.5t-50.5 21.5q-17 0 -29 -6q-44 -20 -69.5 -30t-64 -18.5t-79.5 -8.5q-108 0 -165.5 50t-57.5 138v121q108 -18 209 -18q346 0 346 303q0 156 -86.5 245t-253.5 89 q-178 0 -276.5 -96.5t-98.5 -249.5v-383zM176 1309q0 39 27.5 67.5t66.5 28.5q41 0 70 -28t29 -68q0 -41 -29 -71t-70 -30q-39 0 -66.5 30.5t-27.5 70.5zM252 565v156q0 87 56 136.5t155 49.5q186 0 186 -188q0 -35 -7 -62t-25 -52.5t-56 -39.5t-94 -14q-109 0 -215 14z M520 1309q0 38 29 67t69 29t68.5 -28t28.5 -68q0 -41 -28.5 -71t-68.5 -30q-39 0 -68.5 30.5t-29.5 70.5z" />
<glyph unicode="&#xec;" horiz-adv-x="501" d="M30 1423q0 28 20.5 48t43.5 20q13 0 24 -4.5t16 -8t18 -16.5l18 -18l159 -166q11 -14 11 -31q0 -31 -20.5 -51t-47.5 -20q-30 0 -66 36l-165 177q-11 14 -11 34zM170 63v904q0 33 23.5 56.5t56.5 23.5t56.5 -23.5t23.5 -56.5v-904q0 -34 -23 -56.5t-57 -22.5t-57 22.5 t-23 56.5z" />
<glyph unicode="&#xed;" horiz-adv-x="501" d="M168 1247q0 19 10 31l160 166l15 15t14 13.5t12.5 9.5t15.5 7t19 2q23 0 43 -20t20 -48q0 -21 -10 -34l-166 -177q-16 -15 -22.5 -20.5t-18 -10.5t-24.5 -5q-28 0 -48 20t-20 51zM170 63v904q0 33 23.5 56.5t56.5 23.5t56.5 -23.5t23.5 -56.5v-904q0 -34 -23 -56.5 t-57 -22.5t-57 22.5t-23 56.5z" />
<glyph unicode="&#xee;" horiz-adv-x="501" d="M8 1219q0 28 37 61l161 137q25 17 45 17q21 0 46 -17l161 -137q37 -33 37 -61q0 -21 -16 -37.5t-37 -16.5q-27 0 -37 13l-154 125l-153 -125q-10 -13 -39 -13q-20 0 -35.5 16.5t-15.5 37.5zM170 63v904q0 33 23.5 56.5t56.5 23.5t56.5 -23.5t23.5 -56.5v-904 q0 -34 -23 -56.5t-57 -22.5t-57 22.5t-23 56.5z" />
<glyph unicode="&#xef;" horiz-adv-x="501" d="M-18 1309q0 39 27.5 67.5t66.5 28.5q41 0 69.5 -28t28.5 -68q0 -42 -28.5 -71.5t-69.5 -29.5q-39 0 -66.5 30.5t-27.5 70.5zM170 63v904q0 33 23.5 56.5t56.5 23.5t56.5 -23.5t23.5 -56.5v-904q0 -34 -23 -56.5t-57 -22.5t-57 22.5t-23 56.5zM326 1309q0 38 29 67t69 29 t68 -28t28 -68q0 -41 -28 -71t-68 -30q-39 0 -68.5 30.5t-29.5 70.5z" />
<glyph unicode="&#xf0;" horiz-adv-x="1024" d="M84 432q0 130 42 233.5t130 166.5t209 63q73 0 157.5 -22.5t149.5 -73.5q0 205 -43 323l-133 -71q-29 -15 -47 -15q-22 0 -40 21t-15 47q3 34 30 49l146 78q-28 32 -67 51t-66.5 24.5t-73.5 10.5q-13 1 -21 3t-18.5 8.5t-14.5 21t-3 36.5q3 36 26 51t86 15 q178 0 285 -149l108 59q21 12 47 12q22 -1 35 -13t15 -24l2 -12q1 0 2 -1t2 -5t0 -10q-3 -34 -31 -49l-123 -66q80 -199 80 -528q0 -163 -19 -283.5t-52.5 -197t-86.5 -123t-113.5 -64.5t-140.5 -18q-222 0 -333 124t-111 328zM244 442q0 -142 66 -226.5t208 -84.5 q145 0 201.5 102.5t56.5 341.5v58q-48 50 -135.5 82.5t-161.5 32.5q-110 0 -172.5 -81.5t-62.5 -224.5z" />
<glyph unicode="&#xf1;" horiz-adv-x="1042" d="M106 944q0 31 22 51.5t54 20.5q47 0 86 -60q133 93 293 93q159 0 242.5 -104.5t83.5 -282.5v-599q0 -33 -21.5 -55t-58.5 -22t-58.5 22t-21.5 55v599q0 118 -48 180.5t-140 62.5q-114 0 -228 -86q6 -35 6 -59v-697q0 -34 -20.5 -55.5t-58.5 -21.5t-59 21.5t-21 55.5v697 q0 40 -4 66.5t-7 35t-13 23t-13 18.5q-1 1 -4 6.5t-5 9.5t-4 11t-2 14zM215 1272q0 56 50.5 94.5t117.5 38.5q47 0 111.5 -31.5t92.5 -34.5q44 0 78.5 28t53.5 30q25 0 43 -19t18 -47q0 -51 -53.5 -86.5t-114.5 -38.5q-49 0 -115 32t-90 34q-42 0 -77 -27.5t-54 -27.5 q-24 0 -41 15.5t-20 39.5z" />
<glyph unicode="&#xf2;" horiz-adv-x="950" d="M92 348v342q0 160 101 262.5t282 102.5t282 -102.5t101 -262.5v-342q0 -160 -100.5 -262t-282.5 -102t-282.5 102t-100.5 262zM252 348q0 -103 57 -160t166 -57t166 57t57 160v344q0 101 -57 158t-166 57t-166 -57t-57 -158v-344zM264 1423q0 28 20.5 48t43.5 20 q13 0 24 -4.5t16 -8t18 -16.5l18 -18l159 -166q11 -14 11 -31q0 -31 -20.5 -51t-47.5 -20q-30 0 -66 36l-165 177q-11 14 -11 34z" />
<glyph unicode="&#xf3;" horiz-adv-x="950" d="M92 348v342q0 160 101 262.5t282 102.5t282 -102.5t101 -262.5v-342q0 -160 -100.5 -262t-282.5 -102t-282.5 102t-100.5 262zM252 348q0 -103 57 -160t166 -57t166 57t57 160v344q0 101 -57 158t-166 57t-166 -57t-57 -158v-344zM319 1247q0 17 11 31l159 166l15 15 t14 13.5t12.5 9.5t15.5 7t19 2q23 0 43.5 -20t20.5 -48q0 -20 -11 -34l-165 -177q-16 -14 -23 -20t-18.5 -11t-24.5 -5q-29 0 -48.5 20t-19.5 51z" />
<glyph unicode="&#xf4;" horiz-adv-x="950" d="M92 348v342q0 160 101 262.5t282 102.5t282 -102.5t101 -262.5v-342q0 -160 -100.5 -262t-282.5 -102t-282.5 102t-100.5 262zM232 1219q0 28 37 61l161 137q25 17 45 17q21 0 46 -17l161 -137q37 -33 37 -61q0 -21 -16 -37.5t-37 -16.5q-27 0 -37 13l-154 125l-153 -125 q-10 -13 -39 -13q-20 0 -35.5 16.5t-15.5 37.5zM252 348q0 -103 57 -160t166 -57t166 57t57 160v344q0 101 -57 158t-166 57t-166 -57t-57 -158v-344z" />
<glyph unicode="&#xf5;" horiz-adv-x="950" d="M92 348v342q0 160 101 262.5t282 102.5t282 -102.5t101 -262.5v-342q0 -160 -100.5 -262t-282.5 -102t-282.5 102t-100.5 262zM193 1272q0 56 50 94.5t117 38.5q47 0 112 -31.5t93 -34.5q44 0 78 28t53 30q25 0 43.5 -19.5t18.5 -46.5q0 -51 -53.5 -86.5t-114.5 -38.5 q-49 0 -115 32t-90 34q-42 0 -77 -27.5t-54 -27.5q-24 0 -41 15.5t-20 39.5zM252 348q0 -103 57 -160t166 -57t166 57t57 160v344q0 101 -57 158t-166 57t-166 -57t-57 -158v-344z" />
<glyph unicode="&#xf6;" horiz-adv-x="950" d="M92 348v342q0 160 101 262.5t282 102.5t282 -102.5t101 -262.5v-342q0 -160 -100.5 -262t-282.5 -102t-282.5 102t-100.5 262zM204 1309q0 39 28 67.5t67 28.5q41 0 69.5 -28t28.5 -68q0 -42 -28.5 -71.5t-69.5 -29.5q-39 0 -67 30.5t-28 70.5zM252 348q0 -103 57 -160 t166 -57t166 57t57 160v344q0 101 -57 158t-166 57t-166 -57t-57 -158v-344zM549 1309q0 38 29 67t69 29t68 -28t28 -68q0 -41 -28 -71t-68 -30q-39 0 -68.5 30.5t-29.5 70.5z" />
<glyph unicode="&#xf8;" horiz-adv-x="950" d="M73.5 2.5q-3.5 21.5 8.5 40.5l68 96q-58 85 -58 209v342q0 160 101 262.5t282 102.5q157 0 258 -82l55 80q12 18 33.5 21.5t40.5 -9.5q20 -13 23.5 -34.5t-8.5 -39.5l-72 -100q53 -86 53 -201v-342q0 -160 -100.5 -262t-282.5 -102q-151 0 -252 75l-53 -77 q-12 -17 -34.5 -21t-39.5 8q-19 12 -22.5 33.5zM252 348q0 -23 4 -55l387 553q-58 61 -168 61q-109 0 -166 -57t-57 -158v-344zM311 184q56 -53 164 -53q109 0 166 57t57 160v344q0 27 -2 41z" />
<glyph unicode="&#xf9;" horiz-adv-x="1042" d="M152 371v598q0 34 21 56t58 22t58.5 -22.5t21.5 -55.5v-598q0 -118 48.5 -181t140.5 -63q117 0 225 68q-4 40 -4 57v717q0 34 21 56t59 22t59 -22t21 -56v-717q0 -40 4 -66.5t8 -35.5t13 -22t12 -19q14 -28 14 -41q0 -30 -22 -51t-54 -21q-50 0 -88 61q-129 -73 -291 -73 q-159 0 -242 104.5t-83 282.5zM282 1423q0 28 20.5 48t43.5 20q13 0 24 -4.5t16 -8t18 -16.5l18 -18l159 -166q11 -14 11 -31q0 -31 -20.5 -51t-47.5 -20q-30 0 -66 36l-165 177q-11 14 -11 34z" />
<glyph unicode="&#xfa;" horiz-adv-x="1042" d="M152 371v598q0 34 21 56t58 22t58.5 -22.5t21.5 -55.5v-598q0 -118 48.5 -181t140.5 -63q117 0 225 68q-4 40 -4 57v717q0 34 21 56t59 22t59 -22t21 -56v-717q0 -40 4 -66.5t8 -35.5t13 -22t12 -19q14 -28 14 -41q0 -30 -22 -51t-54 -21q-50 0 -88 61q-129 -73 -291 -73 q-159 0 -242 104.5t-83 282.5zM434 1247q0 19 10 31l160 166l15 15t14 13.5t12.5 9.5t15.5 7t19 2q23 0 43 -20t20 -48q0 -21 -10 -34l-166 -177q-16 -15 -22.5 -20.5t-18 -10.5t-24.5 -5q-28 0 -48 20t-20 51z" />
<glyph unicode="&#xfb;" horiz-adv-x="1042" d="M152 371v598q0 34 21 56t58 22t58.5 -22.5t21.5 -55.5v-598q0 -118 48.5 -181t140.5 -63q117 0 225 68q-4 40 -4 57v717q0 34 21 56t59 22t59 -22t21 -56v-717q0 -40 4 -66.5t8 -35.5t13 -22t12 -19q14 -28 14 -41q0 -30 -22 -51t-54 -21q-50 0 -88 61q-129 -73 -291 -73 q-159 0 -242 104.5t-83 282.5zM277 1219q0 28 37 61l161 137q25 17 45 17t46 -17l161 -137q37 -33 37 -61q0 -21 -16 -37.5t-37 -16.5q-27 0 -37 13l-154 125l-153 -125q-10 -13 -39 -13q-20 0 -35.5 16.5t-15.5 37.5z" />
<glyph unicode="&#xfc;" horiz-adv-x="1042" d="M152 371v598q0 34 21 56t58 22t58.5 -22.5t21.5 -55.5v-598q0 -118 48.5 -181t140.5 -63q117 0 225 68q-4 40 -4 57v717q0 34 21 56t59 22t59 -22t21 -56v-717q0 -40 4 -66.5t8 -35.5t13 -22t12 -19q14 -28 14 -41q0 -30 -22 -51t-54 -21q-50 0 -88 61q-129 -73 -291 -73 q-159 0 -242 104.5t-83 282.5zM252 1309q0 39 27.5 67.5t66.5 28.5q41 0 69.5 -28t28.5 -68q0 -42 -28.5 -71.5t-69.5 -29.5q-39 0 -66.5 30.5t-27.5 70.5zM596 1309q0 38 29 67t69 29t68.5 -28t28.5 -68q0 -41 -28.5 -71t-68.5 -30q-39 0 -68.5 30.5t-29.5 70.5z" />
<glyph unicode="&#xfd;" horiz-adv-x="843" d="M33 973q0 32 23 53t57 21q52 0 71 -54l256 -776l224 776q9 26 29 40t44 14q32 0 56 -23t24 -57q0 -9 -4 -25l-250 -813q-25 -81 -41.5 -131t-42 -114t-48 -102.5t-55.5 -80t-68.5 -63.5t-83 -37.5t-103.5 -16.5q-35 0 -58.5 22t-23.5 56q0 29 21 52t55 24 q95 4 147.5 62.5t99.5 203.5l-325 940q-4 6 -4 29zM365 1247q0 19 10 31l160 166l18 18t17 16t16 8.5t24 4.5q23 0 43.5 -20t20.5 -48q0 -21 -10 -34l-166 -177q-16 -14 -23 -20t-18.5 -11t-24.5 -5q-28 0 -47.5 19.5t-19.5 51.5z" />
<glyph unicode="&#xfe;" horiz-adv-x="993" d="M152 -367v1774q0 32 21 55t58 23t58.5 -23t21.5 -55v-438q120 84 273 84q165 0 241 -87t76 -233v-385q0 -146 -76 -232.5t-241 -86.5q-153 0 -273 84v-480q0 -32 -21.5 -54.5t-58.5 -22.5t-58 22.5t-21 54.5zM311 270q92 -102 234 -102q196 0 196 180v385q0 180 -196 180 q-142 0 -234 -102v-541z" />
<glyph unicode="&#xff;" horiz-adv-x="843" d="M33 973q0 32 23 53t57 21q52 0 71 -54l256 -776l224 776q9 26 29 40t44 14q32 0 56 -23t24 -57q0 -9 -4 -25l-250 -813q-25 -81 -41.5 -131t-42 -114t-48 -102.5t-55.5 -80t-68.5 -63.5t-83 -37.5t-103.5 -16.5q-35 0 -58.5 22t-23.5 56q0 29 21 52t55 24 q95 4 147.5 62.5t99.5 203.5l-325 940q-4 6 -4 29zM152 1309q0 39 27.5 67.5t66.5 28.5q41 0 69.5 -28t28.5 -68q0 -42 -28.5 -71.5t-69.5 -29.5q-39 0 -66.5 30.5t-27.5 70.5zM496 1309q0 38 29 67t69 29t68 -28t28 -68q0 -41 -28 -71t-68 -30q-39 0 -68.5 30.5t-29.5 70.5 z" />
<glyph unicode="&#x100;" horiz-adv-x="1124" d="M51 61q0 -36 25 -58.5t61 -22.5q23 0 46 17t32 44l86 285h518l88 -285q7 -27 31 -44t49 -17q37 0 61.5 22.5t24.5 58.5q0 19 -4 31l-399 1264q-17 53 -41.5 80.5t-67.5 27.5q-74 0 -106 -108l-400 -1264q-4 -12 -4 -31zM231 1714q0 31 22 53.5t54 22.5h510 q31 0 52.5 -22.5t21.5 -53.5t-21.5 -52.5t-52.5 -21.5h-510q-32 0 -54 21.5t-22 52.5zM350 485l211 695l211 -695h-422z" />
<glyph unicode="&#x101;" horiz-adv-x="987" d="M92 293v8q0 303 361 303q105 0 206 -29v117q0 112 -54 165.5t-165 53.5q-49 0 -82 -10.5t-73 -32.5q-1 0 -7.5 -3t-13 -5.5t-16 -5t-17.5 -2.5q-27 0 -41 20.5t-16 47.5q-3 34 21 60.5t66.5 41.5t93.5 23t106 8q188 0 273 -103t85 -311v-451q0 -61 37 -61q3 0 7.5 1 t8.5 1q28 0 44 -21t16 -49q0 -35 -27 -52t-65 -17q-50 0 -90 27t-64 75q-117 -108 -280 -108q-154 0 -234 83.5t-80 225.5zM117 1305q0 31 22 53t54 22h510q31 0 52 -22t21 -53t-21 -52.5t-52 -21.5h-510q-32 0 -54 21.5t-22 52.5zM250 291q0 -164 180 -164q123 0 229 90 v221q-105 31 -208 31q-116 0 -158.5 -45t-42.5 -125v-8z" />
<glyph unicode="&#x102;" horiz-adv-x="1124" d="M51 61q0 19 4 31l400 1264q32 108 106 108q43 0 67.5 -27.5t41.5 -80.5l399 -1264q4 -12 4 -31q0 -36 -24.5 -58.5t-61.5 -22.5q-25 0 -49 17t-31 44l-88 285h-518l-86 -285q-9 -27 -32 -44t-46 -17q-36 0 -61 22.5t-25 58.5zM311 1747q-8 37 9 56.5t46 19.5q42 0 62 -33 q59 -84 133 -84t133 84q20 33 61 33q29 0 46.5 -19.5t7.5 -56.5q-19 -77 -94.5 -121.5t-153.5 -44.5t-154 44.5t-96 121.5zM350 485h422l-211 695z" />
<glyph unicode="&#x103;" horiz-adv-x="987" d="M92 293q0 -142 80 -225.5t234 -83.5q163 0 280 108q24 -48 64 -75t90 -27q38 0 65 17t27 52q0 28 -16 49t-44 21q-4 0 -8.5 -1t-7.5 -1q-37 0 -37 61v451q0 208 -85 311t-273 103q-55 0 -106 -8t-93.5 -23t-66.5 -41.5t-21 -60.5q2 -27 16 -47.5t41 -20.5q8 0 17.5 2.5 t16 5t13 5.5t7.5 3q40 22 73 32.5t82 10.5q111 0 165 -53.5t54 -165.5v-117q-102 29 -206 29q-361 0 -361 -303v-8zM244 1337q-8 37 9 56.5t46 19.5q41 0 61 -33q59 -84 134 -84q74 0 133 84q20 33 61 33q29 0 46 -19.5t7 -56.5q-19 -77 -94 -121.5t-153 -44.5t-154 44.5 t-96 121.5zM250 291v8q0 80 42.5 125t158.5 45q103 0 208 -31v-221q-106 -90 -229 -90q-180 0 -180 164z" />
<glyph unicode="&#x104;" horiz-adv-x="1124" d="M51 61q0 19 4 31l400 1264q32 108 106 108q43 0 67.5 -27.5t41.5 -80.5l399 -1264q4 -12 4 -31q0 -28 -31 -63q-29 -33 -45 -83.5t-16 -96.5q0 -40 23 -66t67 -26q28 0 53 5t33 5q23 0 39 -16.5t16 -38.5q0 -80 -157 -80q-99 0 -155 46t-56 138q0 103 84 221 q-14 11 -21 35l-88 285h-518l-86 -285q-9 -27 -32 -44t-46 -17q-36 0 -61 22.5t-25 58.5zM350 485h422l-211 695z" />
<glyph unicode="&#x105;" horiz-adv-x="987" d="M92 293v8q0 303 361 303q105 0 206 -29v117q0 112 -54 165.5t-165 53.5q-49 0 -82 -10.5t-73 -32.5q-1 0 -7.5 -3t-13 -5.5t-16 -5t-17.5 -2.5q-27 0 -41 20.5t-16 47.5q-3 34 21 60.5t66.5 41.5t93.5 23t106 8q188 0 273 -103t85 -311v-451q0 -61 37 -61q3 0 7.5 1 t8.5 1q28 0 44 -21t16 -49q0 -9 -2 -16t-7 -14t-8 -10t-11.5 -10t-10.5 -9q-30 -30 -47 -82.5t-17 -99.5q0 -40 23.5 -66t67.5 -26q28 0 53 5t33 5q23 0 39 -16.5t16 -38.5q0 -80 -158 -80q-99 0 -155 46t-56 138q0 105 84 217q-59 24 -90 90q-117 -108 -280 -108 q-154 0 -234 83.5t-80 225.5zM250 291q0 -164 180 -164q123 0 229 90v221q-105 31 -208 31q-116 0 -158.5 -45t-42.5 -125v-8z" />
<glyph unicode="&#x106;" horiz-adv-x="987" d="M92 504v438q0 244 115.5 383t345.5 139q141 0 251.5 -52.5t110.5 -123.5q0 -30 -20.5 -50.5t-52.5 -20.5q-10 0 -19.5 3t-15 6t-18.5 11.5t-21 13.5q-91 64 -205 64q-166 0 -236.5 -95.5t-70.5 -277.5v-438q0 -182 70.5 -277.5t236.5 -95.5q114 0 205 64q10 6 22 13.5 t18 11t15 6.5t19 3q32 0 52.5 -20.5t20.5 -50.5q0 -71 -110.5 -123.5t-251.5 -52.5q-230 0 -345.5 139t-115.5 383zM477 1657q0 19 10 31l160 166l18 18t17 16t16 8.5t24 4.5q23 0 43.5 -20t20.5 -48q0 -21 -10 -34l-166 -177q-16 -14 -23 -20t-18.5 -11t-24.5 -5 q-28 0 -47.5 19.5t-19.5 51.5z" />
<glyph unicode="&#x107;" horiz-adv-x="804" d="M92 360v310q0 168 92 272.5t275 104.5q40 0 85.5 -6.5t92 -20t76.5 -39t30 -59.5q0 -28 -20 -49t-49 -21q-15 0 -33 6q-31 16 -50 24t-50.5 15.5t-65.5 7.5q-117 0 -170 -59.5t-53 -175.5v-310q0 -116 53 -175.5t170 -59.5q34 0 65.5 7.5t50.5 15.5t50 24q18 6 33 6 q29 0 49 -20.5t20 -48.5q0 -34 -30 -59.5t-76.5 -39t-92 -20t-85.5 -6.5q-183 0 -275 104t-92 272zM350 1247q0 19 10 31l160 166l15 15t14 13.5t12.5 9.5t15.5 7t19 2q23 0 43 -20t20 -48q0 -21 -10 -34l-166 -177q-16 -15 -22.5 -20.5t-18 -10.5t-24.5 -5q-28 0 -48 20 t-20 51z" />
<glyph unicode="&#x108;" horiz-adv-x="987" d="M92 504v438q0 244 115.5 383t345.5 139q141 0 251.5 -52.5t110.5 -123.5q0 -30 -20.5 -50.5t-52.5 -20.5q-10 0 -19.5 3t-15 6t-18.5 11.5t-21 13.5q-91 64 -205 64q-166 0 -236.5 -95.5t-70.5 -277.5v-438q0 -182 70.5 -277.5t236.5 -95.5q114 0 205 64q10 6 22 13.5 t18 11t15 6.5t19 3q32 0 52.5 -20.5t20.5 -50.5q0 -71 -110.5 -123.5t-251.5 -52.5q-230 0 -345.5 139t-115.5 383zM303 1629q0 28 37 61l161 137q25 17 45 17t46 -17l161 -137q37 -33 37 -61q0 -21 -16 -37.5t-37 -16.5q-27 0 -37 13l-154 125l-153 -125q-10 -13 -39 -13 q-20 0 -35.5 16.5t-15.5 37.5z" />
<glyph unicode="&#x109;" horiz-adv-x="804" d="M92 360v310q0 168 92 272.5t275 104.5q40 0 85.5 -6.5t92 -20t76.5 -39t30 -59.5q0 -28 -20 -49t-49 -21q-15 0 -33 6q-31 16 -50 24t-50.5 15.5t-65.5 7.5q-117 0 -170 -59.5t-53 -175.5v-310q0 -116 53 -175.5t170 -59.5q34 0 65.5 7.5t50.5 15.5t50 24q18 6 33 6 q29 0 49 -20.5t20 -48.5q0 -34 -30 -59.5t-76.5 -39t-92 -20t-85.5 -6.5q-183 0 -275 104t-92 272zM160 1219q0 28 37 61l161 137q26 17 45 17q21 0 46 -17l161 -137q37 -33 37 -61q0 -21 -16 -37.5t-37 -16.5q-27 0 -37 13l-154 125l-153 -125q-10 -13 -39 -13 q-20 0 -35.5 16.5t-15.5 37.5z" />
<glyph unicode="&#x10a;" horiz-adv-x="987" d="M92 504v438q0 244 115.5 383t345.5 139q141 0 251.5 -52.5t110.5 -123.5q0 -30 -20.5 -50.5t-52.5 -20.5q-10 0 -19.5 3t-15 6t-18.5 11.5t-21 13.5q-91 64 -205 64q-166 0 -236.5 -95.5t-70.5 -277.5v-438q0 -182 70.5 -277.5t236.5 -95.5q114 0 205 64q10 6 22 13.5 t18 11t15 6.5t19 3q32 0 52.5 -20.5t20.5 -50.5q0 -71 -110.5 -123.5t-251.5 -52.5q-230 0 -345.5 139t-115.5 383zM397 1718q0 39 28 68t67 29q41 0 69.5 -28.5t28.5 -68.5q0 -41 -28.5 -70.5t-69.5 -29.5q-39 0 -67 30t-28 70z" />
<glyph unicode="&#x10b;" horiz-adv-x="804" d="M92 360v310q0 168 92 272.5t275 104.5q40 0 85.5 -6.5t92 -20t76.5 -39t30 -59.5q0 -28 -20 -49t-49 -21q-15 0 -33 6q-31 16 -50 24t-50.5 15.5t-65.5 7.5q-117 0 -170 -59.5t-53 -175.5v-310q0 -116 53 -175.5t170 -59.5q34 0 65.5 7.5t50.5 15.5t50 24q18 6 33 6 q29 0 49 -20.5t20 -48.5q0 -34 -30 -59.5t-76.5 -39t-92 -20t-85.5 -6.5q-183 0 -275 104t-92 272zM305 1309q0 39 27.5 67.5t66.5 28.5q41 0 70 -28t29 -68q0 -41 -29 -71t-70 -30q-39 0 -66.5 30.5t-27.5 70.5z" />
<glyph unicode="&#x10c;" horiz-adv-x="987" d="M92 504v438q0 244 115.5 383t345.5 139q141 0 251.5 -52.5t110.5 -123.5q0 -30 -20.5 -50.5t-52.5 -20.5q-10 0 -19.5 3t-15 6t-18.5 11.5t-21 13.5q-91 64 -205 64q-166 0 -236.5 -95.5t-70.5 -277.5v-438q0 -182 70.5 -277.5t236.5 -95.5q114 0 205 64q10 6 22 13.5 t18 11t15 6.5t19 3q32 0 52.5 -20.5t20.5 -50.5q0 -71 -110.5 -123.5t-251.5 -52.5q-230 0 -345.5 139t-115.5 383zM295 1799q0 25 19 42t45 17q15 0 36 -14l170 -138l170 138q21 14 37 14q26 0 45 -17t19 -42q0 -35 -41 -70l-180 -150q-22 -18 -50 -18q-27 0 -49 18 l-180 150q-41 35 -41 70z" />
<glyph unicode="&#x10d;" horiz-adv-x="804" d="M92 360v310q0 168 92 272.5t275 104.5q40 0 85.5 -6.5t92 -20t76.5 -39t30 -59.5q0 -28 -20 -49t-49 -21q-15 0 -33 6q-31 16 -50 24t-50.5 15.5t-65.5 7.5q-117 0 -170 -59.5t-53 -175.5v-310q0 -116 53 -175.5t170 -59.5q34 0 65.5 7.5t50.5 15.5t50 24q18 6 33 6 q29 0 49 -20.5t20 -48.5q0 -34 -30 -59.5t-76.5 -39t-92 -20t-85.5 -6.5q-183 0 -275 104t-92 272zM186 1389q0 25 19 42t45 17q16 0 37 -14l170 -138l170 138q21 14 37 14q26 0 44.5 -16.5t18.5 -42.5q0 -35 -41 -70l-180 -150q-22 -18 -49 -18t-49 18l-181 150 q-41 35 -41 70z" />
<glyph unicode="&#x10e;" horiz-adv-x="1134" d="M150 98v1250q0 40 29 69t69 29h231q122 0 218.5 -28.5t160 -76.5t105 -115.5t59.5 -142t18 -159.5v-383q0 -88 -17.5 -164.5t-59.5 -147t-105 -120.5t-160 -79.5t-219 -29.5h-231q-40 0 -69 29t-29 69zM297 1799q0 25 19 42t45 17q15 0 36 -14l170 -138l170 138 q21 14 37 14q26 0 45 -17t19 -42q0 -35 -41 -70l-180 -150q-22 -18 -50 -18q-27 0 -49 18l-180 150q-41 35 -41 70zM313 160h201q98 0 170 29.5t113 82.5t60.5 120t19.5 149v383q0 79 -20 142.5t-61.5 114t-113 78t-168.5 27.5h-201v-1126z" />
<glyph unicode="&#x10f;" horiz-adv-x="1239" d="M92 371v260q0 95 17.5 168t56 129.5t106 86t162.5 29.5q116 0 228 -38v401q0 34 21 56t58 22t58.5 -22.5t21.5 -55.5v-1174q0 -44 11.5 -71.5t41.5 -50.5q15 -23 15 -41q0 -31 -22 -51.5t-50 -20.5q-66 0 -108 65q-158 -79 -291 -79q-157 0 -241.5 105t-84.5 282z M252 371q0 -244 199 -244q103 0 215 59q-4 16 -4 47v629q-48 20 -107 31.5t-100 11.5q-111 0 -157 -64.5t-46 -209.5v-260zM971 1376q0 44 32.5 76.5t77.5 32.5q44 0 76.5 -32.5t32.5 -76.5q0 -65 -27.5 -146t-64.5 -135.5t-64 -54.5q-39 0 -39 35q0 36 32.5 94t43.5 95 q-43 5 -71.5 36.5t-28.5 75.5z" />
<glyph unicode="&#x110;" horiz-adv-x="1175" d="M35 723q0 31 22 53.5t54 22.5h79v549q0 40 29.5 69t69.5 29h231q122 0 218.5 -28.5t160 -76.5t105 -115.5t59.5 -142t18 -159.5v-383q0 -88 -17.5 -164.5t-59.5 -147t-105 -120.5t-160 -79.5t-219 -29.5h-231q-40 0 -69.5 29t-29.5 69v551h-79q-32 0 -54 21.5t-22 52.5z M354 160h201q98 0 170 29.5t113 82.5t60.5 120t19.5 149v383q0 79 -20 142.5t-61.5 114t-113 78t-168.5 27.5h-201v-487h267q30 0 51.5 -22.5t21.5 -53.5t-21 -52.5t-52 -21.5h-267v-489z" />
<glyph unicode="&#x111;" horiz-adv-x="999" d="M92 371v260q0 95 17.5 168t56 129.5t106 86t162.5 29.5q116 0 228 -38v161h-254q-32 0 -54 21.5t-22 52.5t22 53.5t54 22.5h254v90q0 34 21 56t58 22t58.5 -22.5t21.5 -55.5v-90h97q30 0 51.5 -22.5t21.5 -53.5t-21 -52.5t-52 -21.5h-97v-934q0 -44 11.5 -71.5 t41.5 -50.5q15 -23 15 -41q0 -31 -22 -51.5t-50 -20.5q-66 0 -108 65q-158 -79 -291 -79q-157 0 -241.5 105t-84.5 282zM252 371q0 -244 199 -244q103 0 215 59q-4 16 -4 47v629q-48 20 -107 31.5t-100 11.5q-111 0 -157 -64.5t-46 -209.5v-260z" />
<glyph unicode="&#x112;" horiz-adv-x="970" d="M150 96v1252q0 37 28 66.5t68 29.5h555q34 0 58 -24t24 -58q0 -33 -24 -55.5t-58 -22.5h-488v-479h449q31 0 55.5 -23.5t24.5 -56.5q0 -34 -23 -57t-57 -23h-449v-485h508q32 0 57 -22.5t25 -53.5q0 -35 -24 -59.5t-58 -24.5h-542q-129 0 -129 96zM156 1715q0 31 22 53 t54 22h510q31 0 52 -22t21 -53t-21 -52.5t-52 -21.5h-510q-32 0 -54 21.5t-22 52.5z" />
<glyph unicode="&#x113;" horiz-adv-x="890" d="M92 324q0 -149 98 -244.5t267 -95.5q46 0 99 7t107 21.5t89.5 42t35.5 62.5q0 28 -20.5 49.5t-50.5 21.5q-17 0 -29 -6q-44 -20 -69.5 -30t-64 -18.5t-79.5 -8.5q-108 0 -165.5 50t-57.5 138v121q108 -18 209 -18q346 0 346 303q0 156 -86.5 245t-253.5 89 q-178 0 -276.5 -96.5t-98.5 -249.5v-383zM115 1305q0 31 21.5 53t53.5 22h510q31 0 52.5 -22t21.5 -53t-21.5 -52.5t-52.5 -21.5h-510q-32 0 -53.5 21.5t-21.5 52.5zM252 565v156q0 87 56 136.5t155 49.5q186 0 186 -188q0 -35 -7 -62t-25 -52.5t-56 -39.5t-94 -14 q-109 0 -215 14z" />
<glyph unicode="&#x114;" horiz-adv-x="970" d="M150 96v1252q0 37 28 66.5t68 29.5h555q34 0 58 -24t24 -58q0 -33 -24 -55.5t-58 -22.5h-488v-479h449q31 0 55.5 -23.5t24.5 -56.5q0 -34 -23 -57t-57 -23h-449v-485h508q32 0 57 -22.5t25 -53.5q0 -35 -24 -59.5t-58 -24.5h-542q-129 0 -129 96zM236 1747q-8 37 9 56.5 t46 19.5q42 0 62 -33q59 -84 133 -84t133 84q20 33 61 33q29 0 46.5 -19.5t7.5 -56.5q-19 -77 -94.5 -121.5t-153.5 -44.5t-154 44.5t-96 121.5z" />
<glyph unicode="&#x115;" horiz-adv-x="890" d="M92 324v383q0 153 98.5 249.5t276.5 96.5q167 0 253.5 -89t86.5 -245q0 -303 -346 -303q-101 0 -209 18v-121q0 -88 57.5 -138t165.5 -50q58 0 102.5 13.5t110.5 43.5q12 6 29 6q30 0 50.5 -21.5t20.5 -49.5q0 -35 -35.5 -62.5t-89.5 -42t-107 -21.5t-99 -7 q-169 0 -267 95.5t-98 244.5zM195 1337q-8 37 9 56.5t46 19.5q42 0 62 -33q59 -84 133 -84t133 84q20 33 61 33q29 0 46.5 -19.5t7.5 -56.5q-19 -77 -94.5 -121.5t-153.5 -44.5t-154 44.5t-96 121.5zM252 565q106 -14 215 -14q56 0 94 14t56 39.5t25 52.5t7 62 q0 188 -186 188q-99 0 -155 -49.5t-56 -136.5v-156z" />
<glyph unicode="&#x116;" horiz-adv-x="970" d="M150 96v1252q0 37 28 66.5t68 29.5h555q34 0 58 -24t24 -58q0 -33 -24 -55.5t-58 -22.5h-488v-479h449q31 0 55.5 -23.5t24.5 -56.5q0 -34 -23 -57t-57 -23h-449v-485h508q32 0 57 -22.5t25 -53.5q0 -35 -24 -59.5t-58 -24.5h-542q-129 0 -129 96zM389 1719q0 39 28 67.5 t67 28.5q41 0 69.5 -28t28.5 -68q0 -42 -28.5 -71.5t-69.5 -29.5q-39 0 -67 30.5t-28 70.5z" />
<glyph unicode="&#x117;" horiz-adv-x="890" d="M92 324q0 -149 98 -244.5t267 -95.5q46 0 99 7t107 21.5t89.5 42t35.5 62.5q0 28 -20.5 49.5t-50.5 21.5q-17 0 -29 -6q-44 -20 -69.5 -30t-64 -18.5t-79.5 -8.5q-108 0 -165.5 50t-57.5 138v121q108 -18 209 -18q346 0 346 303q0 156 -86.5 245t-253.5 89 q-178 0 -276.5 -96.5t-98.5 -249.5v-383zM252 565v156q0 87 56 136.5t155 49.5q186 0 186 -188q0 -35 -7 -62t-25 -52.5t-56 -39.5t-94 -14q-109 0 -215 14zM348 1309q0 39 27.5 67.5t66.5 28.5q41 0 70 -28t29 -68q0 -41 -29 -71t-70 -30q-39 0 -66.5 30.5t-27.5 70.5z" />
<glyph unicode="&#x118;" horiz-adv-x="970" d="M150 96v1252q0 37 28 66.5t68 29.5h555q34 0 58 -24t24 -58q0 -33 -24 -55.5t-58 -22.5h-488v-479h449q31 0 55.5 -23.5t24.5 -56.5q0 -34 -23 -57t-57 -23h-449v-485h508q32 0 57 -22.5t25 -53.5q0 -35 -24 -59.5t-58 -24.5q-63 -128 -63 -182q0 -40 23 -66t67 -26 q28 0 53 5t33 5q23 0 39 -16.5t16 -38.5q0 -80 -158 -80q-99 0 -154.5 46t-55.5 138q0 107 77 215h-419q-129 0 -129 96z" />
<glyph unicode="&#x119;" horiz-adv-x="890" d="M92 324v383q0 153 98.5 249.5t276.5 96.5q167 0 253.5 -89t86.5 -245q0 -303 -346 -303q-101 0 -209 18v-121q0 -88 57.5 -138t165.5 -50q58 0 102.5 13.5t110.5 43.5q12 6 29 6q30 0 50.5 -21.5t20.5 -49.5q0 -19 -13 -34.5t-28 -24.5t-46.5 -24.5t-47.5 -25.5 q-78 -46 -78 -190q0 -40 23.5 -66t67.5 -26q28 0 53 5t33 5q23 0 39 -16.5t16 -38.5q0 -80 -158 -80q-99 0 -155 46t-56 138q0 105 68 201q-9 0 -25.5 -1t-23.5 -1q-169 0 -267 95.5t-98 244.5zM252 565q106 -14 215 -14q56 0 94 14t56 39.5t25 52.5t7 62q0 188 -186 188 q-99 0 -155 -49.5t-56 -136.5v-156z" />
<glyph unicode="&#x11a;" horiz-adv-x="970" d="M150 96v1252q0 37 28 66.5t68 29.5h555q34 0 58 -24t24 -58q0 -33 -24 -55.5t-58 -22.5h-488v-479h449q31 0 55.5 -23.5t24.5 -56.5q0 -34 -23 -57t-57 -23h-449v-485h508q32 0 57 -22.5t25 -53.5q0 -35 -24 -59.5t-58 -24.5h-542q-129 0 -129 96zM276 1799q0 25 19 42 t45 17q15 0 36 -14l170 -138l170 138q21 14 37 14q26 0 45 -17t19 -42q0 -35 -41 -70l-180 -150q-22 -18 -50 -18q-27 0 -49 18l-180 150q-41 35 -41 70z" />
<glyph unicode="&#x11b;" horiz-adv-x="890" d="M92 324q0 -149 98 -244.5t267 -95.5q46 0 99 7t107 21.5t89.5 42t35.5 62.5q0 28 -20.5 49.5t-50.5 21.5q-17 0 -29 -6q-44 -20 -69.5 -30t-64 -18.5t-79.5 -8.5q-108 0 -165.5 50t-57.5 138v121q108 -18 209 -18q346 0 346 303q0 156 -86.5 245t-253.5 89 q-178 0 -276.5 -96.5t-98.5 -249.5v-383zM174 1389q0 25 19 42t45 17q15 0 36 -14l170 -138l170 138q21 14 37 14q26 0 45 -17t19 -42q0 -35 -41 -70l-180 -150q-22 -18 -50 -18q-27 0 -49 18l-180 150q-41 35 -41 70zM252 565v156q0 87 56 136.5t155 49.5q186 0 186 -188 q0 -35 -7 -62t-25 -52.5t-56 -39.5t-94 -14q-109 0 -215 14z" />
<glyph unicode="&#x11c;" horiz-adv-x="1064" d="M92 504v438q0 244 115.5 383t345.5 139q141 0 251.5 -52.5t110.5 -123.5q0 -30 -20.5 -50.5t-52.5 -20.5q-10 0 -19.5 3t-15 6t-18.5 11.5t-21 13.5q-91 64 -205 64q-166 0 -236.5 -95.5t-70.5 -277.5v-438q0 -182 70.5 -277.5t236.5 -95.5q133 0 232 76v440h-199 q-31 0 -54.5 23t-23.5 55t23.5 55t54.5 23h244q52 0 84 -23.5t32 -70.5v-490q0 -59 -37 -106.5t-97 -75t-129 -41.5t-140 -14q-230 0 -345.5 139t-115.5 383zM289 1628q0 29 37 62l161 137q24 16 45 16q22 0 46 -16l161 -137q37 -33 37 -62q0 -21 -16 -37t-37 -16 q-28 0 -37 12l-154 125l-153 -125q-9 -12 -39 -12q-20 0 -35.5 16.5t-15.5 36.5z" />
<glyph unicode="&#x11d;" horiz-adv-x="1009" d="M92 -182q0 139 109 245q-62 62 -62 158q0 98 78 168q-111 105 -111 289q0 167 94.5 271t272.5 104q147 0 268 -70q31 58 78 88.5t86 30.5q32 0 54 -20.5t22 -51.5q0 -27 -14 -41q-7 -6 -22 -21t-20 -19.5t-16.5 -16.5t-15 -17t-11 -15.5t-10 -17.5t-7 -18t-5.5 -21.5 t-2.5 -23.5t-1.5 -28v-127q0 -163 -96.5 -266t-274.5 -103q-91 0 -161 27q-25 -49 -25 -95q0 -48 34 -69t77 -21h86q183 0 296 -76.5t113 -224.5q0 -153 -117.5 -243.5t-302.5 -90.5q-176 0 -284.5 84.5t-108.5 231.5zM252 -160q0 -93 59.5 -141.5t177.5 -48.5 q115 0 185.5 46.5t70.5 135.5q0 81 -60.5 119.5t-184.5 38.5h-86q-47 0 -92 10q-70 -61 -70 -160zM260 1219q0 28 37 61l161 137q25 17 45 17q21 0 46 -17l161 -137q37 -33 37 -61q0 -21 -16 -37.5t-37 -16.5q-27 0 -37 13l-154 125l-153 -125q-10 -13 -39 -13 q-20 0 -35.5 16.5t-15.5 37.5zM266 674q0 -109 54 -170.5t165 -61.5q106 0 158.5 56.5t52.5 160.5v129q0 24 4 60q-99 61 -206 61q-113 0 -170.5 -60t-57.5 -175z" />
<glyph unicode="&#x11e;" horiz-adv-x="1064" d="M92 504v438q0 244 115.5 383t345.5 139q141 0 251.5 -52.5t110.5 -123.5q0 -30 -20.5 -50.5t-52.5 -20.5q-10 0 -19.5 3t-15 6t-18.5 11.5t-21 13.5q-91 64 -205 64q-166 0 -236.5 -95.5t-70.5 -277.5v-438q0 -182 70.5 -277.5t236.5 -95.5q133 0 232 76v440h-199 q-31 0 -54.5 23t-23.5 55t23.5 55t54.5 23h244q52 0 84 -23.5t32 -70.5v-490q0 -59 -37 -106.5t-97 -75t-129 -41.5t-140 -14q-230 0 -345.5 139t-115.5 383zM283 1747q-8 37 9 56.5t46 19.5q42 0 62 -33q59 -84 133 -84t133 84q20 33 61 33q29 0 46.5 -19.5t7.5 -56.5 q-19 -77 -94.5 -121.5t-153.5 -44.5t-154 44.5t-96 121.5z" />
<glyph unicode="&#x11f;" horiz-adv-x="1009" d="M92 -182q0 139 109 245q-62 62 -62 158q0 98 78 168q-111 105 -111 289q0 167 94.5 271t272.5 104q147 0 268 -70q31 58 78 88.5t86 30.5q32 0 54 -20.5t22 -51.5q0 -27 -14 -41q-7 -6 -22 -21t-20 -19.5t-16.5 -16.5t-15 -17t-11 -15.5t-10 -17.5t-7 -18t-5.5 -21.5 t-2.5 -23.5t-1.5 -28v-127q0 -163 -96.5 -266t-274.5 -103q-91 0 -161 27q-25 -49 -25 -95q0 -48 34 -69t77 -21h86q183 0 296 -76.5t113 -224.5q0 -153 -117.5 -243.5t-302.5 -90.5q-176 0 -284.5 84.5t-108.5 231.5zM252 -160q0 -93 59.5 -141.5t177.5 -48.5 q115 0 185.5 46.5t70.5 135.5q0 81 -60.5 119.5t-184.5 38.5h-86q-47 0 -92 10q-70 -61 -70 -160zM254 1337q-8 37 9 56.5t46 19.5q42 0 62 -33q59 -84 133 -84t133 84q20 33 61 33q29 0 46.5 -19.5t7.5 -56.5q-19 -77 -94.5 -121.5t-153.5 -44.5t-154 44.5t-96 121.5z M266 674q0 -109 54 -170.5t165 -61.5q106 0 158.5 56.5t52.5 160.5v129q0 24 4 60q-99 61 -206 61q-113 0 -170.5 -60t-57.5 -175z" />
<glyph unicode="&#x120;" horiz-adv-x="1064" d="M92 504v438q0 244 115.5 383t345.5 139q141 0 251.5 -52.5t110.5 -123.5q0 -30 -20.5 -50.5t-52.5 -20.5q-10 0 -19.5 3t-15 6t-18.5 11.5t-21 13.5q-91 64 -205 64q-166 0 -236.5 -95.5t-70.5 -277.5v-438q0 -182 70.5 -277.5t236.5 -95.5q133 0 232 76v440h-199 q-31 0 -54.5 23t-23.5 55t23.5 55t54.5 23h244q52 0 84 -23.5t32 -70.5v-490q0 -59 -37 -106.5t-97 -75t-129 -41.5t-140 -14q-230 0 -345.5 139t-115.5 383zM436 1718q0 39 27.5 68t66.5 29q41 0 70 -28.5t29 -68.5q0 -41 -29 -70.5t-70 -29.5q-39 0 -66.5 30t-27.5 70z " />
<glyph unicode="&#x121;" horiz-adv-x="1009" d="M92 -182q0 139 109 245q-62 62 -62 158q0 98 78 168q-111 105 -111 289q0 167 94.5 271t272.5 104q147 0 268 -70q31 58 78 88.5t86 30.5q32 0 54 -20.5t22 -51.5q0 -27 -14 -41q-7 -6 -22 -21t-20 -19.5t-16.5 -16.5t-15 -17t-11 -15.5t-10 -17.5t-7 -18t-5.5 -21.5 t-2.5 -23.5t-1.5 -28v-127q0 -163 -96.5 -266t-274.5 -103q-91 0 -161 27q-25 -49 -25 -95q0 -48 34 -69t77 -21h86q183 0 296 -76.5t113 -224.5q0 -153 -117.5 -243.5t-302.5 -90.5q-176 0 -284.5 84.5t-108.5 231.5zM252 -160q0 -93 59.5 -141.5t177.5 -48.5 q115 0 185.5 46.5t70.5 135.5q0 81 -60.5 119.5t-184.5 38.5h-86q-47 0 -92 10q-70 -61 -70 -160zM266 674q0 -109 54 -170.5t165 -61.5q106 0 158.5 56.5t52.5 160.5v129q0 24 4 60q-99 61 -206 61q-113 0 -170.5 -60t-57.5 -175zM408 1309q0 39 27.5 67.5t66.5 28.5 q41 0 69.5 -28t28.5 -68q0 -42 -28.5 -71.5t-69.5 -29.5q-39 0 -66.5 30.5t-27.5 70.5z" />
<glyph unicode="&#x122;" horiz-adv-x="1064" d="M92 504v438q0 244 115.5 383t345.5 139q141 0 251.5 -52.5t110.5 -123.5q0 -30 -20.5 -50.5t-52.5 -20.5q-10 0 -19.5 3t-15 6t-18.5 11.5t-21 13.5q-91 64 -205 64q-166 0 -236.5 -95.5t-70.5 -277.5v-438q0 -182 70.5 -277.5t236.5 -95.5q133 0 232 76v440h-199 q-31 0 -54.5 23t-23.5 55t23.5 55t54.5 23h244q52 0 84 -23.5t32 -70.5v-490q0 -59 -37 -106.5t-97 -75t-129 -41.5t-140 -14q-230 0 -345.5 139t-115.5 383zM465 -213q0 46 32 77.5t78 31.5q44 0 76.5 -32.5t32.5 -76.5q0 -54 -27.5 -119.5t-64.5 -110t-64 -44.5 q-39 0 -39 34q0 25 33 64t43 63q-43 3 -71.5 36t-28.5 77z" />
<glyph unicode="&#x123;" horiz-adv-x="1009" d="M92 -182q0 139 109 245q-62 62 -62 158q0 98 78 168q-111 105 -111 289q0 167 94.5 271t272.5 104q147 0 268 -70q31 58 78 88.5t86 30.5q32 0 54 -20.5t22 -51.5q0 -27 -14 -41q-7 -6 -22 -21t-20 -19.5t-16.5 -16.5t-15 -17t-11 -15.5t-10 -17.5t-7 -18t-5.5 -21.5 t-2.5 -23.5t-1.5 -28v-127q0 -163 -96.5 -266t-274.5 -103q-91 0 -161 27q-25 -49 -25 -95q0 -48 34 -69t77 -21h86q183 0 296 -76.5t113 -224.5q0 -153 -117.5 -243.5t-302.5 -90.5q-176 0 -284.5 84.5t-108.5 231.5zM252 -160q0 -93 59.5 -141.5t177.5 -48.5 q115 0 185.5 46.5t70.5 135.5q0 81 -60.5 119.5t-184.5 38.5h-86q-47 0 -92 10q-70 -61 -70 -160zM266 674q0 -109 54 -170.5t165 -61.5q106 0 158.5 56.5t52.5 160.5v129q0 24 4 60q-99 61 -206 61q-113 0 -170.5 -60t-57.5 -175zM397 1305q0 54 27.5 119.5t64.5 110 t64 44.5q39 0 39 -35q0 -25 -33 -64t-43 -63q43 -3 71.5 -35.5t28.5 -76.5q0 -46 -32 -77.5t-78 -31.5q-44 0 -76.5 32.5t-32.5 76.5z" />
<glyph unicode="&#x124;" horiz-adv-x="1187" d="M150 63v1319q0 33 24 57.5t57 24.5t57.5 -24.5t24.5 -57.5v-579h559v579q0 32 25 57t57 25t57 -25t25 -57v-1319q0 -34 -24 -58.5t-58 -24.5q-32 0 -57 25t-25 58v580h-559v-580q0 -34 -24 -58.5t-58 -24.5t-57.5 24.5t-23.5 58.5zM350 1629q0 28 37 61l161 137 q25 17 45 17q21 0 46 -17l161 -137q37 -33 37 -61q0 -21 -16 -37.5t-37 -16.5q-27 0 -37 13l-154 125l-153 -125q-10 -13 -39 -13q-20 0 -35.5 16.5t-15.5 37.5z" />
<glyph unicode="&#x128;" horiz-adv-x="464" d="M-49 1682q0 56 50.5 94.5t117.5 38.5q47 0 111.5 -31.5t92.5 -34.5q44 0 78.5 28t53.5 30q25 0 43 -19t18 -47q0 -51 -53.5 -86.5t-114.5 -38.5q-49 0 -115 32t-90 34q-42 0 -77 -27.5t-54 -27.5q-24 0 -41 15.5t-20 39.5zM150 61v1321q0 33 24 57.5t57 24.5t57.5 -24.5 t24.5 -57.5v-1321q0 -33 -24.5 -57t-57.5 -24t-57 24t-24 57z" />
<glyph unicode="&#x129;" horiz-adv-x="501" d="M-31 1272q0 56 50.5 94.5t117.5 38.5q47 0 112 -31.5t93 -34.5q44 0 78 28t53 30q25 0 43.5 -19.5t18.5 -46.5q0 -51 -53.5 -86.5t-114.5 -38.5q-49 0 -115 32t-90 34q-42 0 -77 -27.5t-54 -27.5q-24 0 -41.5 15.5t-20.5 39.5zM170 63v904q0 33 23.5 56.5t56.5 23.5 t56.5 -23.5t23.5 -56.5v-904q0 -34 -23 -56.5t-57 -22.5t-57 22.5t-23 56.5z" />
<glyph unicode="&#x12a;" horiz-adv-x="464" d="M-96 1715q0 31 22 53t54 22h510q31 0 52 -22t21 -53t-21 -52.5t-52 -21.5h-510q-32 0 -54 21.5t-22 52.5zM150 61v1321q0 33 24 57.5t57 24.5t57.5 -24.5t24.5 -57.5v-1321q0 -33 -24.5 -57t-57.5 -24t-57 24t-24 57z" />
<glyph unicode="&#x12b;" horiz-adv-x="501" d="M-78 1305q0 31 22 53t54 22h510q31 0 52 -22t21 -53t-21 -52.5t-52 -21.5h-510q-32 0 -54 21.5t-22 52.5zM170 63v904q0 33 23.5 56.5t56.5 23.5t56.5 -23.5t23.5 -56.5v-904q0 -34 -23 -56.5t-57 -22.5t-57 22.5t-23 56.5z" />
<glyph unicode="&#x12c;" horiz-adv-x="464" d="M-16 1747q-8 37 9 56.5t46 19.5q41 0 61 -33q59 -84 133 -84q75 0 134 84q20 33 61 33q29 0 46 -19.5t7 -56.5q-19 -77 -94.5 -121.5t-153.5 -44.5t-153.5 44.5t-95.5 121.5zM150 61v1321q0 33 24 57.5t57 24.5t57.5 -24.5t24.5 -57.5v-1321q0 -33 -24.5 -57t-57.5 -24 t-57 24t-24 57z" />
<glyph unicode="&#x12d;" horiz-adv-x="501" d="M2 1337q-8 37 9 56.5t46 19.5q42 0 62 -33q59 -84 133 -84t133 84q20 33 61 33q29 0 46.5 -19.5t7.5 -56.5q-19 -77 -94.5 -121.5t-153.5 -44.5t-154 44.5t-96 121.5zM170 63v904q0 33 23.5 56.5t56.5 23.5t56.5 -23.5t23.5 -56.5v-904q0 -34 -23 -56.5t-57 -22.5 t-57 22.5t-23 56.5z" />
<glyph unicode="&#x12e;" horiz-adv-x="464" d="M84 -215q0 111 86 221q-20 23 -20 55v1321q0 33 24 57.5t57 24.5t57.5 -24.5t24.5 -57.5v-1321q0 -24 -28 -61t-46 -88t-18 -94q0 -40 23 -66t67 -26q28 0 53 5t33 5q23 0 39.5 -16.5t16.5 -38.5q0 -80 -158 -80q-99 0 -155 46t-56 138z" />
<glyph unicode="&#x12f;" horiz-adv-x="501" d="M98 -215q0 114 90 225q-18 21 -18 53v904q0 33 23.5 56.5t56.5 23.5t56.5 -23.5t23.5 -56.5v-904q0 -12 -5 -24t-12 -20.5t-14 -18.5q-28 -34 -45.5 -86t-17.5 -96q0 -40 23 -66t67 -26q28 0 53 5t33 5q23 0 39 -16.5t16 -38.5q0 -80 -158 -80q-99 0 -155 46t-56 138z M152 1368q0 41 28.5 69.5t69.5 28.5t69.5 -28.5t28.5 -69.5q0 -40 -28.5 -69t-69.5 -29t-69.5 29t-28.5 69z" />
<glyph unicode="&#x130;" horiz-adv-x="464" d="M137 1719q0 39 28 67.5t67 28.5q41 0 69.5 -28t28.5 -68q0 -42 -28.5 -71.5t-69.5 -29.5q-39 0 -67 30.5t-28 70.5zM150 61v1321q0 33 24 57.5t57 24.5t57.5 -24.5t24.5 -57.5v-1321q0 -33 -24.5 -57t-57.5 -24t-57 24t-24 57z" />
<glyph unicode="&#x131;" horiz-adv-x="501" d="M170 63v904q0 33 23.5 56.5t56.5 23.5t56.5 -23.5t23.5 -56.5v-904q0 -34 -23 -56.5t-57 -22.5t-57 22.5t-23 56.5z" />
<glyph unicode="&#x134;" horiz-adv-x="788" d="M51 72q0 36 23 58t49 22q7 0 48 -7.5t77 -7.5q69 0 114.5 21.5t69.5 66.5t33.5 100.5t9.5 135.5v921q0 34 23.5 58t58.5 24q32 0 57 -25t25 -57v-921q0 -117 -20.5 -202t-67.5 -149.5t-128 -97t-198 -32.5q-174 0 -174 92zM310 1629q0 28 37 61l161 137q25 17 45 17 q21 0 46 -17l161 -137q37 -33 37 -61q0 -21 -16 -37.5t-37 -16.5q-27 0 -37 13l-154 125l-153 -125q-10 -13 -39 -13q-20 0 -35.5 16.5t-15.5 37.5z" />
<glyph unicode="&#x135;" horiz-adv-x="501" d="M-66 -362q-9 37 12 59.5t50 28.5q88 20 131 73.5t43 161.5v1006q0 33 23.5 56.5t56.5 23.5t56.5 -23.5t23.5 -56.5v-998q0 -162 -75.5 -262.5t-213.5 -120.5q-16 -2 -39 -2q-25 0 -43.5 14.5t-24.5 39.5zM8 1219q0 28 37 61l162 137q25 17 45 17t45 -17l162 -137 q37 -33 37 -61q0 -21 -16.5 -37.5t-37.5 -16.5q-26 0 -36 13l-154 125l-154 -125q-10 -13 -39 -13q-20 0 -35.5 16.5t-15.5 37.5z" />
<glyph unicode="&#x136;" horiz-adv-x="1019" d="M150 63v1319q0 33 24 57.5t57 24.5t57.5 -24.5t24.5 -57.5v-596l518 639q11 16 32 27.5t42 11.5q28 0 51.5 -21.5t20.5 -60.5q-2 -28 -19 -51l-440 -540l477 -685q11 -19 11 -38q0 -35 -18 -61.5t-58 -26.5q-45 0 -70 38l-444 646l-103 -125v-476q0 -34 -24 -58.5 t-58 -24.5t-57.5 24.5t-23.5 58.5zM479 -213q0 46 32.5 77.5t78.5 31.5q44 0 76 -32.5t32 -76.5q0 -54 -27 -119.5t-64 -110t-64 -44.5q-39 0 -39 34q0 25 33 64t43 63q-43 3 -72 36t-29 77z" />
<glyph unicode="&#x137;" horiz-adv-x="899" d="M152 63v1342q0 34 22.5 57t56.5 23t57 -23t23 -57v-764l371 385q15 18 49 18q32 0 54 -21t22 -52q0 -32 -21 -53l-301 -308l346 -512q13 -19 13 -47q-1 -30 -23 -48.5t-53 -18.5q-43 0 -66 39l-317 483l-74 -76v-367q0 -34 -23 -56.5t-57 -22.5t-56.5 22.5t-22.5 56.5z M395 -213q0 46 32.5 77.5t78.5 31.5q44 0 76 -32.5t32 -76.5q0 -54 -27 -119.5t-64 -110t-64 -44.5q-39 0 -39 34q0 25 33 64t43 63q-43 3 -72 36t-29 77z" />
<glyph unicode="&#x139;" horiz-adv-x="917" d="M150 92v1290q0 33 24 57.5t57 24.5t57.5 -24.5t24.5 -57.5v-1224h506q31 0 54.5 -23t23.5 -55q0 -34 -23 -57t-55 -23h-577q-37 0 -64.5 27t-27.5 65zM183 1657q0 19 10 31l160 166l18 18t17 16t16 8.5t24 4.5q23 0 43.5 -20t20.5 -48q0 -21 -10 -34l-166 -177 q-16 -14 -23 -20t-18.5 -11t-24.5 -5q-28 0 -47.5 19.5t-19.5 51.5z" />
<glyph unicode="&#x13a;" horiz-adv-x="466" d="M152 193v1212q0 33 23 56.5t56 23.5q34 0 57 -23t23 -57v-1212q0 -37 5.5 -58t23.5 -39q14 -19 14 -39q0 -31 -21 -52t-52 -21q-129 0 -129 209zM166 1628q0 18 10 31l160 166l15 15t14 13.5t12.5 9.5t15.5 7t19 2q23 0 43 -20t20 -48q0 -22 -10 -35l-166 -176 q-13 -12 -17.5 -16t-14 -10.5t-17 -8.5t-17.5 -2q-28 0 -47.5 20t-19.5 52z" />
<glyph unicode="&#x13b;" horiz-adv-x="917" d="M150 92v1290q0 33 24 57.5t57 24.5t57.5 -24.5t24.5 -57.5v-1224h506q31 0 54.5 -23t23.5 -55q0 -34 -23 -57t-55 -23h-577q-37 0 -64.5 27t-27.5 65zM442 -213q0 46 32.5 77.5t78.5 31.5q44 0 76.5 -32.5t32.5 -76.5q0 -54 -27.5 -119.5t-64.5 -110t-64 -44.5 q-39 0 -39 34q0 25 33 64t43 63q-43 3 -72 36t-29 77z" />
<glyph unicode="&#x13c;" horiz-adv-x="466" d="M125 -213q0 46 32.5 77.5t78.5 31.5q44 0 76 -32.5t32 -76.5q0 -54 -27.5 -119.5t-64.5 -110t-64 -44.5q-38 0 -38 34q0 25 32.5 64t42.5 63q-43 3 -71.5 36t-28.5 77zM152 193v1212q0 33 23 56.5t56 23.5q34 0 57 -23t23 -57v-1212q0 -37 5.5 -58t23.5 -39 q14 -19 14 -39q0 -31 -21 -52t-52 -21q-129 0 -129 209z" />
<glyph unicode="&#x13d;" horiz-adv-x="917" d="M150 92v1290q0 33 24 57.5t57 24.5t57.5 -24.5t24.5 -57.5v-1224h506q31 0 54.5 -23t23.5 -55q0 -34 -23 -57t-55 -23h-577q-37 0 -64.5 27t-27.5 65zM594 1376q0 44 32.5 76.5t78.5 32.5q44 0 76 -32.5t32 -76.5q0 -65 -27.5 -146t-64.5 -135.5t-64 -54.5q-38 0 -38 35 q0 36 32 94.5t43 94.5q-43 5 -71.5 36.5t-28.5 75.5z" />
<glyph unicode="&#x13e;" horiz-adv-x="735" d="M152 193v1212q0 33 23 56.5t56 23.5q34 0 57 -23t23 -57v-1212q0 -37 5.5 -58t23.5 -39q14 -19 14 -39q0 -31 -21 -52t-52 -21q-129 0 -129 209zM465 1376q0 44 32.5 76.5t77.5 32.5q44 0 76.5 -32.5t32.5 -76.5q0 -65 -27.5 -146t-64.5 -135.5t-64 -54.5q-39 0 -39 35 q0 36 32.5 94t43.5 95q-43 5 -71.5 36.5t-28.5 75.5z" />
<glyph unicode="&#x141;" horiz-adv-x="1011" d="M31 600q0 41 35 62l178 116v604q0 33 24.5 57.5t57.5 24.5t57.5 -24.5t24.5 -57.5v-497l110 73q31 21 60 21q22 0 41 -14t26 -37q4 -16 4 -25q0 -36 -33 -59l-208 -137v-549h505q31 0 54.5 -23t23.5 -55q0 -34 -23 -57t-55 -23h-577q-37 0 -64.5 27t-27.5 65v506l-82 -53 q-32 -23 -47 -23q-35 0 -59.5 20t-24.5 58z" />
<glyph unicode="&#x142;" horiz-adv-x="690" d="M31 600q0 41 35 62l180 116v627q0 33 23.5 56.5t56.5 23.5q34 0 57 -23t23 -57v-520l112 73q31 21 60 21q22 0 41 -14t26 -37q4 -16 4 -25q0 -36 -33 -59l-210 -139v-512q0 -37 5 -58t23 -39q15 -20 15 -39q0 -31 -21.5 -52t-52.5 -21q-129 0 -129 209v407l-84 -55 q-32 -23 -47 -23q-35 0 -59.5 20t-24.5 58z" />
<glyph unicode="&#x143;" horiz-adv-x="1228" d="M150 63v1311q0 38 25 64t63 26q27 0 50.5 -13t35.5 -36l589 -1089v1054q0 34 25 59t59 25q33 0 56.5 -25t23.5 -59v-1310q0 -37 -25.5 -63.5t-64.5 -26.5q-25 0 -48.5 13t-35.5 34l-590 1091v-1055q0 -34 -25 -58.5t-59 -24.5q-33 0 -56 24.5t-23 58.5zM543 1657 q0 19 10 31l160 166l18 18t17 16t16 8.5t24 4.5q23 0 43.5 -20t20.5 -48q0 -21 -10 -34l-166 -177q-16 -14 -23 -20t-18.5 -11t-24.5 -5q-28 0 -47.5 19.5t-19.5 51.5z" />
<glyph unicode="&#x144;" horiz-adv-x="1042" d="M106 944q0 31 22 51.5t54 20.5q47 0 86 -60q133 93 293 93q159 0 242.5 -104.5t83.5 -282.5v-599q0 -33 -21.5 -55t-58.5 -22t-58.5 22t-21.5 55v599q0 118 -48 180.5t-140 62.5q-114 0 -228 -86q6 -35 6 -59v-697q0 -34 -20.5 -55.5t-58.5 -21.5t-59 21.5t-21 55.5v697 q0 40 -4 66.5t-7 35t-13 23t-13 18.5q-1 1 -4 6.5t-5 9.5t-4 11t-2 14zM367 1247q0 19 10 31l160 166l18 18t17 16t16 8.5t24 4.5q23 0 43.5 -20t20.5 -48q0 -21 -10 -34l-166 -177q-16 -14 -23 -20t-18.5 -11t-24.5 -5q-28 0 -47.5 19.5t-19.5 51.5z" />
<glyph unicode="&#x145;" horiz-adv-x="1228" d="M150 63v1311q0 38 25 64t63 26q27 0 50.5 -13t35.5 -36l589 -1089v1054q0 34 25 59t59 25q33 0 56.5 -25t23.5 -59v-1310q0 -37 -25.5 -63.5t-64.5 -26.5q-25 0 -48.5 13t-35.5 34l-590 1091v-1055q0 -34 -25 -58.5t-59 -24.5q-33 0 -56 24.5t-23 58.5zM506 -213 q0 46 32 77.5t78 31.5q44 0 76.5 -32.5t32.5 -76.5q0 -54 -27.5 -119.5t-64.5 -110t-64 -44.5q-39 0 -39 34q0 25 33 64t43 63q-43 3 -71.5 36t-28.5 77z" />
<glyph unicode="&#x146;" horiz-adv-x="1042" d="M106 944q0 31 22 51.5t54 20.5q47 0 86 -60q133 93 293 93q159 0 242.5 -104.5t83.5 -282.5v-599q0 -33 -21.5 -55t-58.5 -22t-58.5 22t-21.5 55v599q0 118 -48 180.5t-140 62.5q-114 0 -228 -86q6 -35 6 -59v-697q0 -34 -20.5 -55.5t-58.5 -21.5t-59 21.5t-21 55.5v697 q0 40 -4 66.5t-7 35t-13 23t-13 18.5q-1 1 -4 6.5t-5 9.5t-4 11t-2 14zM412 -213q0 46 32 77.5t78 31.5q44 0 76.5 -32.5t32.5 -76.5q0 -54 -27.5 -119.5t-64.5 -110t-64 -44.5q-39 0 -39 34q0 25 33 64t43 63q-43 3 -71.5 36t-28.5 77z" />
<glyph unicode="&#x147;" horiz-adv-x="1228" d="M150 63v1311q0 38 25 64t63 26q27 0 50.5 -13t35.5 -36l589 -1089v1054q0 34 25 59t59 25q33 0 56.5 -25t23.5 -59v-1310q0 -37 -25.5 -63.5t-64.5 -26.5q-25 0 -48.5 13t-35.5 34l-590 1091v-1055q0 -34 -25 -58.5t-59 -24.5q-33 0 -56 24.5t-23 58.5zM344 1799 q0 25 19 42t45 17q15 0 36 -14l170 -138l170 138q21 14 37 14q26 0 45 -17t19 -42q0 -35 -41 -70l-180 -150q-22 -18 -50 -18q-27 0 -49 18l-180 150q-41 35 -41 70z" />
<glyph unicode="&#x148;" horiz-adv-x="1042" d="M106 944q0 31 22 51.5t54 20.5q47 0 86 -60q133 93 293 93q159 0 242.5 -104.5t83.5 -282.5v-599q0 -33 -21.5 -55t-58.5 -22t-58.5 22t-21.5 55v599q0 118 -48 180.5t-140 62.5q-114 0 -228 -86q6 -35 6 -59v-697q0 -34 -20.5 -55.5t-58.5 -21.5t-59 21.5t-21 55.5v697 q0 40 -4 66.5t-7 35t-13 23t-13 18.5q-1 1 -4 6.5t-5 9.5t-4 11t-2 14zM250 1389q0 26 18.5 42.5t44.5 16.5q16 0 37 -14l170 -138l170 138q21 14 37 14q26 0 45 -17t19 -42q0 -35 -41 -70l-181 -150q-22 -18 -49 -18t-49 18l-180 150q-41 35 -41 70z" />
<glyph unicode="&#x14c;" horiz-adv-x="1128" d="M92 504v438q0 110 26.5 202t81.5 165t147.5 114t215.5 41t215.5 -41t147.5 -114t81.5 -165t26.5 -202v-438q0 -149 -51.5 -265.5t-159.5 -187.5t-260 -71t-260 71t-159.5 187.5t-51.5 265.5zM234 1715q0 31 22 53t54 22h510q31 0 52 -22t21 -53t-21 -52.5t-52 -21.5h-510 q-32 0 -54 21.5t-22 52.5zM256 504q0 -168 77 -266.5t230 -98.5t230 98.5t77 266.5v438q0 363 -307 363t-307 -363v-438z" />
<glyph unicode="&#x14d;" horiz-adv-x="950" d="M92 348v342q0 160 101 262.5t282 102.5t282 -102.5t101 -262.5v-342q0 -160 -100.5 -262t-282.5 -102t-282.5 102t-100.5 262zM145 1305q0 31 22 53t54 22h510q31 0 52 -22t21 -53t-21 -52.5t-52 -21.5h-510q-32 0 -54 21.5t-22 52.5zM252 348q0 -103 57 -160t166 -57 t166 57t57 160v344q0 101 -57 158t-166 57t-166 -57t-57 -158v-344z" />
<glyph unicode="&#x14e;" horiz-adv-x="1128" d="M92 504v438q0 110 26.5 202t81.5 165t147.5 114t215.5 41t215.5 -41t147.5 -114t81.5 -165t26.5 -202v-438q0 -149 -51.5 -265.5t-159.5 -187.5t-260 -71t-260 71t-159.5 187.5t-51.5 265.5zM256 504q0 -168 77 -266.5t230 -98.5t230 98.5t77 266.5v438q0 363 -307 363 t-307 -363v-438zM313 1747q-8 37 9 56.5t46 19.5q42 0 62 -33q59 -84 133 -84t133 84q20 33 61 33q29 0 46.5 -19.5t7.5 -56.5q-19 -77 -94.5 -121.5t-153.5 -44.5t-154 44.5t-96 121.5z" />
<glyph unicode="&#x14f;" horiz-adv-x="950" d="M92 348v342q0 160 101 262.5t282 102.5t282 -102.5t101 -262.5v-342q0 -160 -100.5 -262t-282.5 -102t-282.5 102t-100.5 262zM225 1337q-8 37 9 56.5t46 19.5q42 0 62 -33q59 -84 133 -84t133 84q20 33 61 33q29 0 46.5 -19.5t7.5 -56.5q-19 -77 -94.5 -121.5 t-153.5 -44.5t-154 44.5t-96 121.5zM252 348q0 -103 57 -160t166 -57t166 57t57 160v344q0 101 -57 158t-166 57t-166 -57t-57 -158v-344z" />
<glyph unicode="&#x150;" horiz-adv-x="1128" d="M92 504v438q0 110 26.5 202t81.5 165t147.5 114t215.5 41t215.5 -41t147.5 -114t81.5 -165t26.5 -202v-438q0 -149 -51.5 -265.5t-159.5 -187.5t-260 -71t-260 71t-159.5 187.5t-51.5 265.5zM256 504q0 -168 77 -266.5t230 -98.5t230 98.5t77 266.5v438q0 363 -307 363 t-307 -363v-438zM346 1639q0 14 5 24l129 193q5 6 15 20.5t15.5 20.5t17 12t25.5 6q26 0 47 -21.5t21 -49.5q0 -9 -4 -21l-133 -203q-16 -20 -22 -27t-18.5 -14.5t-27.5 -7.5q-29 0 -49.5 19.5t-20.5 48.5zM623 1639q0 16 4 24l129 193q13 21 19 29.5t21 19t32 10.5 q24 0 47.5 -21t23.5 -46q0 -13 -6 -25l-133 -203q-2 -3 -9 -11.5t-9 -11t-7.5 -8.5t-9 -8t-9 -5t-11 -4t-12.5 -1q-29 0 -49.5 19.5t-20.5 48.5z" />
<glyph unicode="&#x151;" horiz-adv-x="950" d="M92 348v342q0 160 101 262.5t282 102.5t282 -102.5t101 -262.5v-342q0 -160 -100.5 -262t-282.5 -102t-282.5 102t-100.5 262zM252 348q0 -103 57 -160t166 -57t166 57t57 160v344q0 101 -57 158t-166 57t-166 -57t-57 -158v-344zM272 1229q0 16 4 24l130 193 q5 6 15 20.5t15.5 20.5t17 12t25.5 6q26 0 47 -21.5t21 -49.5q0 -9 -4 -21l-133 -203q-16 -20 -22 -27t-18.5 -14.5t-27.5 -7.5q-29 0 -49.5 19.5t-20.5 48.5zM549 1229q0 16 4 24l129 193q13 21 19 29.5t21 19t32 10.5q24 0 47.5 -21t23.5 -46q0 -13 -6 -25l-133 -203 q-2 -2 -8 -10t-8 -10t-7 -8t-7.5 -7.5t-7.5 -5.5t-9 -5t-9.5 -2t-11.5 -1q-29 0 -49 19.5t-20 48.5z" />
<glyph unicode="&#x152;" horiz-adv-x="1548" d="M92 463v520q0 102 24.5 187t74 152t134.5 104.5t197 37.5q167 0 266 -102q6 33 33 57.5t64 24.5h493q34 0 58 -24t24 -58q0 -33 -24 -55.5t-58 -22.5h-426v-479h387q31 0 55.5 -23.5t24.5 -56.5q0 -34 -23 -57t-57 -23h-387v-485h447q32 0 57 -22.5t25 -53.5 q0 -35 -24 -59.5t-58 -24.5h-481q-127 0 -130 92q-106 -112 -266 -112q-138 0 -237 66t-146 173.5t-47 243.5zM256 463q0 -149 67 -236.5t199 -87.5t199 87.5t67 236.5v520q0 322 -266 322t-266 -322v-520z" />
<glyph unicode="&#x153;" horiz-adv-x="1497" d="M92 348v342q0 157 101 261t274 104q222 0 309 -174q38 81 115.5 126.5t189.5 45.5q159 0 245.5 -89.5t86.5 -244.5q0 -303 -346 -303q-101 0 -209 18v-121q0 -88 57.5 -138t165.5 -50q58 0 102.5 13.5t110.5 43.5q12 6 29 6q30 0 51 -21.5t21 -49.5q0 -35 -36 -62.5 t-89.5 -42t-105.5 -21.5t-95 -7q-107 0 -182 45.5t-113 124.5q-39 -80 -117.5 -125t-189.5 -45q-173 0 -274 103.5t-101 260.5zM252 348q0 -103 57 -160t166 -57t166 57t57 160v344q0 101 -57 158t-166 57t-166 -57t-57 -158v-344zM858 565q133 -14 215 -14q56 0 94 14 t56 39.5t25 52.5t7 62q0 188 -186 188q-99 0 -155 -49.5t-56 -136.5v-156z" />
<glyph unicode="&#x154;" horiz-adv-x="1177" d="M150 66v1280q0 40 28 69t66 29h356q122 0 212 -35t139.5 -95t72.5 -129.5t23 -150.5q0 -160 -84.5 -259.5t-233.5 -129.5l328 -539q10 -20 10 -47q0 -30 -30 -53.5t-58 -23.5q-47 0 -68 38l-362 615h-236v-569q0 -34 -25 -60t-59 -26q-32 0 -55.5 25.5t-23.5 60.5z M313 793h291q136 0 207.5 61.5t71.5 179.5q0 250 -291 250h-279v-491zM434 1657q0 19 10 31l160 166l18 18t17 16t16 8.5t24 4.5q23 0 43.5 -20t20.5 -48q0 -21 -10 -34l-166 -177q-16 -14 -23 -20t-18.5 -11t-24.5 -5q-28 0 -47.5 19.5t-19.5 51.5z" />
<glyph unicode="&#x155;" horiz-adv-x="690" d="M111 940q0 31 21.5 51.5t51.5 20.5q48 0 82 -56q64 40 142.5 64t138.5 24q106 0 106 -77q0 -37 -23.5 -60.5t-56.5 -21.5q-53 1 -84 -1.5t-79.5 -19.5t-96.5 -53q4 -40 4 -55v-693q0 -34 -22.5 -56.5t-56.5 -22.5t-57 22.5t-23 56.5v693q0 94 -33 143q-14 21 -14 41z M322 1247q0 19 10 31l160 166l18 18t17 16t16 8.5t24 4.5q23 0 43.5 -20t20.5 -48q0 -21 -10 -34l-166 -177q-16 -14 -23 -20t-18.5 -11t-24.5 -5q-28 0 -47.5 19.5t-19.5 51.5z" />
<glyph unicode="&#x156;" horiz-adv-x="1177" d="M150 66v1280q0 40 28 69t66 29h356q122 0 212 -35t139.5 -95t72.5 -129.5t23 -150.5q0 -160 -84.5 -259.5t-233.5 -129.5l328 -539q10 -20 10 -47q0 -30 -30 -53.5t-58 -23.5q-47 0 -68 38l-362 615h-236v-569q0 -34 -25 -60t-59 -26q-32 0 -55.5 25.5t-23.5 60.5z M313 793h291q136 0 207.5 61.5t71.5 179.5q0 250 -291 250h-279v-491zM479 -213q0 46 32.5 77.5t78.5 31.5q44 0 76 -32.5t32 -76.5q0 -54 -27 -119.5t-64 -110t-64 -44.5q-39 0 -39 34q0 25 33 64t43 63q-43 3 -72 36t-29 77z" />
<glyph unicode="&#x157;" horiz-adv-x="690" d="M111 940q0 31 21.5 51.5t51.5 20.5q48 0 82 -56q64 40 142.5 64t138.5 24q106 0 106 -77q0 -37 -23.5 -60.5t-56.5 -21.5q-53 1 -84 -1.5t-79.5 -19.5t-96.5 -53q4 -40 4 -55v-693q0 -34 -22.5 -56.5t-56.5 -22.5t-57 22.5t-23 56.5v693q0 94 -33 143q-14 21 -14 41z M125 -213q0 46 32.5 77.5t78.5 31.5q44 0 76 -32.5t32 -76.5q0 -54 -27.5 -119.5t-64.5 -110t-64 -44.5q-38 0 -38 34q0 25 32.5 64t42.5 63q-43 3 -71.5 36t-28.5 77z" />
<glyph unicode="&#x158;" horiz-adv-x="1177" d="M150 66v1280q0 40 28 69t66 29h356q122 0 212 -35t139.5 -95t72.5 -129.5t23 -150.5q0 -160 -84.5 -259.5t-233.5 -129.5l328 -539q10 -20 10 -47q0 -30 -30 -53.5t-58 -23.5q-47 0 -68 38l-362 615h-236v-569q0 -34 -25 -60t-59 -26q-32 0 -55.5 25.5t-23.5 60.5z M313 793h291q136 0 207.5 61.5t71.5 179.5q0 250 -291 250h-279v-491zM317 1799q0 25 19 42t45 17q15 0 36 -14l170 -138l170 138q21 14 37 14q26 0 45 -17t19 -42q0 -35 -41 -70l-180 -150q-22 -18 -50 -18q-27 0 -49 18l-180 150q-41 35 -41 70z" />
<glyph unicode="&#x159;" horiz-adv-x="690" d="M76 1389q0 26 18.5 42.5t44.5 16.5q16 0 37 -14l170 -138l170 138q21 14 37 14q26 0 44.5 -16.5t18.5 -42.5q0 -35 -41 -70l-180 -150q-22 -18 -49 -18t-49 18l-180 150q-41 35 -41 70zM111 940q0 31 21.5 51.5t51.5 20.5q48 0 82 -56q64 40 142.5 64t138.5 24 q106 0 106 -77q0 -37 -23.5 -60.5t-56.5 -21.5q-53 1 -84 -1.5t-79.5 -19.5t-96.5 -53q4 -40 4 -55v-693q0 -34 -22.5 -56.5t-56.5 -22.5t-57 22.5t-23 56.5v693q0 94 -33 143q-14 21 -14 41z" />
<glyph unicode="&#x15a;" horiz-adv-x="995" d="M84 131q0 31 22 55.5t52 24.5q21 0 64.5 -18t107 -36t133.5 -18q135 0 204.5 65.5t69.5 186.5q0 89 -32.5 134.5t-83.5 72.5q-40 21 -106.5 45t-120 41t-113.5 49.5t-100.5 72t-67.5 106t-27 153.5q0 185 111.5 292t302.5 107q46 0 99 -6t113 -20t99 -43.5t39 -69.5 q0 -32 -22.5 -55t-59.5 -23q-24 0 -59.5 14.5t-86 29t-110.5 14.5q-52 0 -95.5 -11.5t-81 -36.5t-58.5 -71.5t-21 -110.5q0 -48 11 -84.5t31.5 -60t37 -36t39.5 -24.5q40 -21 107 -45t120 -41t113 -49.5t100 -71.5t67 -105t27 -152q0 -198 -125 -312t-323 -114 q-54 0 -115 8.5t-122 25t-100.5 47.5t-39.5 70zM437 1657q0 19 10 31l160 166l18 18t17 16t16 8.5t24 4.5q23 0 43.5 -20t20.5 -48q0 -21 -10 -34l-166 -177q-16 -14 -23 -20t-18.5 -11t-24.5 -5q-28 0 -47.5 19.5t-19.5 51.5z" />
<glyph unicode="&#x15b;" horiz-adv-x="831" d="M96 102q0 29 20.5 51.5t55.5 22.5q9 0 21 -4q116 -47 204 -47q89 0 139 37t50 114q0 51 -20 79t-56 48q-26 14 -74 31.5t-88 31.5t-86 39.5t-78 56t-53.5 81.5t-21.5 115q0 135 86 215t245 80q43 0 88 -6t88 -19t70 -36t27 -54q0 -30 -21 -52t-53 -22q-17 0 -37 10 q-80 37 -156 37q-182 0 -182 -143q0 -47 21.5 -75.5t74.5 -55.5q29 -15 92 -37t105 -42t88.5 -54.5t71 -89.5t24.5 -131q0 -140 -88.5 -219.5t-255.5 -79.5q-44 0 -91.5 5.5t-97 18t-81 37t-31.5 57.5zM350 1247q0 19 10 31l160 166l15 15t14 13.5t12.5 9.5t15.5 7t19 2 q23 0 43 -20t20 -48q0 -21 -10 -34l-166 -177q-16 -15 -22.5 -20.5t-18 -10.5t-24.5 -5q-28 0 -48 20t-20 51z" />
<glyph unicode="&#x15c;" horiz-adv-x="995" d="M84 131q0 31 22 55.5t52 24.5q21 0 64.5 -18t107 -36t133.5 -18q135 0 204.5 65.5t69.5 186.5q0 89 -32.5 134.5t-83.5 72.5q-40 21 -106.5 45t-120 41t-113.5 49.5t-100.5 72t-67.5 106t-27 153.5q0 185 111.5 292t302.5 107q46 0 99 -6t113 -20t99 -43.5t39 -69.5 q0 -32 -22.5 -55t-59.5 -23q-24 0 -59.5 14.5t-86 29t-110.5 14.5q-52 0 -95.5 -11.5t-81 -36.5t-58.5 -71.5t-21 -110.5q0 -48 11 -84.5t31.5 -60t37 -36t39.5 -24.5q40 -21 107 -45t120 -41t113 -49.5t100 -71.5t67 -105t27 -152q0 -198 -125 -312t-323 -114 q-54 0 -115 8.5t-122 25t-100.5 47.5t-39.5 70zM254 1629q0 28 37 61l161 137q25 17 45 17q21 0 46 -17l161 -137q37 -33 37 -61q0 -21 -16 -37.5t-37 -16.5q-27 0 -37 13l-154 125l-153 -125q-10 -13 -39 -13q-20 0 -35.5 16.5t-15.5 37.5z" />
<glyph unicode="&#x15d;" horiz-adv-x="831" d="M96 102q0 29 20.5 51.5t55.5 22.5q9 0 21 -4q116 -47 204 -47q89 0 139 37t50 114q0 51 -20 79t-56 48q-26 14 -74 31.5t-88 31.5t-86 39.5t-78 56t-53.5 81.5t-21.5 115q0 135 86 215t245 80q43 0 88 -6t88 -19t70 -36t27 -54q0 -30 -21 -52t-53 -22q-17 0 -37 10 q-80 37 -156 37q-182 0 -182 -143q0 -47 21.5 -75.5t74.5 -55.5q29 -15 92 -37t105 -42t88.5 -54.5t71 -89.5t24.5 -131q0 -140 -88.5 -219.5t-255.5 -79.5q-44 0 -91.5 5.5t-97 18t-81 37t-31.5 57.5zM172 1219q0 28 37 61l161 137q26 17 45 17q21 0 46 -17l161 -137 q37 -33 37 -61q0 -21 -16 -37.5t-37 -16.5q-27 0 -37 13l-154 125l-153 -125q-10 -13 -39 -13q-20 0 -35.5 16.5t-15.5 37.5z" />
<glyph unicode="&#x15e;" horiz-adv-x="995" d="M84 131q0 31 22 55.5t52 24.5q21 0 64.5 -18t107 -36t133.5 -18q135 0 204.5 65.5t69.5 186.5q0 89 -32.5 134.5t-83.5 72.5q-40 21 -106.5 45t-120 41t-113.5 49.5t-100.5 72t-67.5 106t-27 153.5q0 185 111.5 292t302.5 107q46 0 99 -6t113 -20t99 -43.5t39 -69.5 q0 -32 -22.5 -55t-59.5 -23q-24 0 -59.5 14.5t-86 29t-110.5 14.5q-52 0 -95.5 -11.5t-81 -36.5t-58.5 -71.5t-21 -110.5q0 -48 11 -84.5t31.5 -60t37 -36t39.5 -24.5q40 -21 107 -45t120 -41t113 -49.5t100 -71.5t67 -105t27 -152q0 -183 -107 -295t-282 -127l-10 -66 q225 -3 225 -180q0 -83 -74.5 -136t-209.5 -34q-51 6 -84 34.5t-15 61.5q5 10 12 15t18 5t19.5 -2t27.5 -6.5t32 -7.5q66 -12 103.5 16.5t37.5 67.5q0 68 -123 74q-49 3 -65.5 16t-10.5 49l15 91q-76 3 -147.5 18t-129 49.5t-57.5 81.5z" />
<glyph unicode="&#x15f;" horiz-adv-x="831" d="M96 102q0 29 20.5 51.5t55.5 22.5q9 0 21 -4q116 -47 204 -47q89 0 139 37t50 114q0 51 -20 79t-56 48q-26 14 -74 31.5t-88 31.5t-86 39.5t-78 56t-53.5 81.5t-21.5 115q0 135 86 215t245 80q43 0 88 -6t88 -19t70 -36t27 -54q0 -30 -21 -52t-53 -22q-17 0 -37 10 q-80 37 -156 37q-182 0 -182 -143q0 -47 21.5 -75.5t74.5 -55.5q29 -15 92 -37t105 -42t88.5 -54.5t71 -89.5t24.5 -131q0 -131 -77 -209t-224 -88l-10 -68q225 -3 225 -180q0 -83 -74.5 -136t-209.5 -34q-51 6 -84 34.5t-15 61.5q5 10 12 15t18 5t19.5 -2t27.5 -6.5 t32 -7.5q66 -12 103.5 16.5t37.5 67.5q0 68 -123 74q-49 3 -65 16t-10 49l16 95q-44 3 -83.5 10.5t-77.5 20.5t-60.5 35t-22.5 50z" />
<glyph unicode="&#x160;" horiz-adv-x="995" d="M84 131q0 31 22 55.5t52 24.5q21 0 64.5 -18t107 -36t133.5 -18q135 0 204.5 65.5t69.5 186.5q0 89 -32.5 134.5t-83.5 72.5q-40 21 -106.5 45t-120 41t-113.5 49.5t-100.5 72t-67.5 106t-27 153.5q0 185 111.5 292t302.5 107q46 0 99 -6t113 -20t99 -43.5t39 -69.5 q0 -32 -22.5 -55t-59.5 -23q-24 0 -59.5 14.5t-86 29t-110.5 14.5q-52 0 -95.5 -11.5t-81 -36.5t-58.5 -71.5t-21 -110.5q0 -48 11 -84.5t31.5 -60t37 -36t39.5 -24.5q40 -21 107 -45t120 -41t113 -49.5t100 -71.5t67 -105t27 -152q0 -198 -125 -312t-323 -114 q-54 0 -115 8.5t-122 25t-100.5 47.5t-39.5 70zM227 1799q0 25 19 42t45 17q15 0 36 -14l170 -138l170 138q21 14 37 14q26 0 45 -17t19 -42q0 -35 -41 -70l-180 -150q-22 -18 -50 -18q-27 0 -49 18l-180 150q-41 35 -41 70z" />
<glyph unicode="&#x161;" horiz-adv-x="831" d="M96 102q0 29 20.5 51.5t55.5 22.5q9 0 21 -4q116 -47 204 -47q89 0 139 37t50 114q0 51 -20 79t-56 48q-26 14 -74 31.5t-88 31.5t-86 39.5t-78 56t-53.5 81.5t-21.5 115q0 135 86 215t245 80q43 0 88 -6t88 -19t70 -36t27 -54q0 -30 -21 -52t-53 -22q-17 0 -37 10 q-80 37 -156 37q-182 0 -182 -143q0 -47 21.5 -75.5t74.5 -55.5q29 -15 92 -37t105 -42t88.5 -54.5t71 -89.5t24.5 -131q0 -140 -88.5 -219.5t-255.5 -79.5q-44 0 -91.5 5.5t-97 18t-81 37t-31.5 57.5zM145 1389q0 25 19 42t45 17q16 0 37 -14l170 -138l170 138q21 14 37 14 q26 0 44.5 -16.5t18.5 -42.5q0 -35 -41 -70l-180 -150q-22 -18 -49 -18t-49 18l-181 150q-41 35 -41 70z" />
<glyph unicode="&#x162;" horiz-adv-x="989" d="M51 1364q0 28 25 54t57 26h721q33 0 58.5 -23.5t25.5 -56.5q0 -32 -25 -56t-59 -24h-279v-1223q0 -19 -10 -36l-16 -107q225 -3 225 -180q0 -83 -75 -136t-210 -34q-51 6 -83.5 34.5t-14.5 61.5q5 10 12 15t18 5t19.5 -2t27.5 -6.5t32 -7.5q66 -12 103.5 16.5t37.5 67.5 q0 68 -123 74q-49 3 -65.5 16t-10.5 49l17 97q-47 19 -47 73v1223h-279q-35 0 -58.5 23.5t-23.5 56.5z" />
<glyph unicode="&#x163;" horiz-adv-x="657" d="M152 416v856q0 34 21 56t58 22t58.5 -22.5t21.5 -55.5v-283h213q31 0 52.5 -22t21.5 -54t-21.5 -53.5t-52.5 -21.5h-213v-408q0 -86 5.5 -135.5t23.5 -87t51 -52t88 -14.5q6 0 19.5 1t19.5 1q107 0 107 -73q0 -47 -31.5 -62.5t-85.5 -15.5q-43 0 -109 8q-12 -49 -6 -82 q225 -3 225 -180q0 -83 -74.5 -136t-209.5 -34q-51 6 -83.5 34.5t-14.5 61.5q5 10 11.5 15t17.5 5t20 -2t27.5 -6.5t31.5 -7.5q66 -12 103.5 16.5t37.5 67.5q0 68 -123 74q-48 3 -63 16t-12 49q7 84 22 136q-88 42 -122.5 135.5t-34.5 253.5z" />
<glyph unicode="&#x164;" horiz-adv-x="989" d="M51 1364q0 28 25 54t57 26h721q33 0 58.5 -23.5t25.5 -56.5q0 -32 -25 -56t-59 -24h-279v-1223q0 -33 -24 -57t-57 -24q-34 0 -58 24t-24 57v1223h-279q-35 0 -58.5 23.5t-23.5 56.5zM223 1799q0 25 19 42t45 17q15 0 36 -14l170 -138l170 138q21 14 37 14q26 0 45 -17 t19 -42q0 -35 -41 -70l-180 -150q-22 -18 -50 -18q-27 0 -49 18l-180 150q-41 35 -41 70z" />
<glyph unicode="&#x165;" horiz-adv-x="882" d="M152 416v856q0 34 21 56t58 22t58.5 -22.5t21.5 -55.5v-283h213q31 0 52.5 -22t21.5 -54t-21.5 -53.5t-52.5 -21.5h-213v-408q0 -86 5.5 -135.5t23.5 -87t51 -52t88 -14.5q6 0 19.5 1t19.5 1q107 0 107 -73q0 -47 -31.5 -62.5t-85.5 -15.5q-106 0 -176.5 25.5 t-109.5 81.5t-54.5 130.5t-15.5 186.5zM629 1376q0 44 32.5 76.5t77.5 32.5q44 0 76.5 -32.5t32.5 -76.5q0 -65 -27.5 -146t-64.5 -135.5t-64 -54.5q-39 0 -39 35q0 36 32.5 94t43.5 95q-43 5 -71.5 36.5t-28.5 75.5z" />
<glyph unicode="&#x168;" horiz-adv-x="1171" d="M133 471v907q0 37 24.5 61.5t59.5 24.5q32 0 56 -25.5t24 -60.5v-907q0 -153 73 -242.5t216 -89.5q142 0 214 90t72 242v907q0 34 23.5 60t56.5 26q36 0 61 -26t25 -60v-907q0 -218 -121 -354.5t-331 -136.5q-213 0 -333 136.5t-120 354.5zM303 1681q0 56 50.5 95 t117.5 39q47 0 112 -31.5t93 -34.5q44 0 78 27.5t53 29.5q25 0 43 -19t18 -46q0 -51 -53.5 -86.5t-114.5 -38.5q-49 0 -114.5 31.5t-89.5 33.5q-42 0 -77 -27.5t-54 -27.5q-24 0 -41.5 15.5t-20.5 39.5z" />
<glyph unicode="&#x169;" horiz-adv-x="1042" d="M152 371v598q0 34 21 56t58 22t58.5 -22.5t21.5 -55.5v-598q0 -118 48.5 -181t140.5 -63q117 0 225 68q-4 40 -4 57v717q0 34 21 56t59 22t59 -22t21 -56v-717q0 -40 4 -66.5t8 -35.5t13 -22t12 -19q14 -28 14 -41q0 -30 -22 -51t-54 -21q-50 0 -88 61q-129 -73 -291 -73 q-159 0 -242 104.5t-83 282.5zM238 1272q0 56 50.5 94.5t117.5 38.5q47 0 111.5 -31.5t92.5 -34.5q44 0 78.5 28t53.5 30q25 0 43 -19t18 -47q0 -51 -53.5 -86.5t-114.5 -38.5q-49 0 -115 32t-90 34q-42 0 -77 -27.5t-54 -27.5q-24 0 -41 15.5t-20 39.5z" />
<glyph unicode="&#x16a;" horiz-adv-x="1171" d="M133 471v907q0 37 24.5 61.5t59.5 24.5q32 0 56 -25.5t24 -60.5v-907q0 -153 73 -242.5t216 -89.5q142 0 214 90t72 242v907q0 34 23.5 60t56.5 26q36 0 61 -26t25 -60v-907q0 -218 -121 -354.5t-331 -136.5q-213 0 -333 136.5t-120 354.5zM256 1714q0 31 22 53.5 t54 22.5h510q30 0 51.5 -22.5t21.5 -53.5t-21 -52.5t-52 -21.5h-510q-32 0 -54 21.5t-22 52.5z" />
<glyph unicode="&#x16b;" horiz-adv-x="1042" d="M152 371v598q0 34 21 56t58 22t58.5 -22.5t21.5 -55.5v-598q0 -118 48.5 -181t140.5 -63q117 0 225 68q-4 40 -4 57v717q0 34 21 56t59 22t59 -22t21 -56v-717q0 -40 4 -66.5t8 -35.5t13 -22t12 -19q14 -28 14 -41q0 -30 -22 -51t-54 -21q-50 0 -88 61q-129 -73 -291 -73 q-159 0 -242 104.5t-83 282.5zM190 1305q0 31 22 53t54 22h510q31 0 52.5 -22t21.5 -53t-21.5 -52.5t-52.5 -21.5h-510q-32 0 -54 21.5t-22 52.5z" />
<glyph unicode="&#x16c;" horiz-adv-x="1171" d="M133 471v907q0 37 24.5 61.5t59.5 24.5q32 0 56 -25.5t24 -60.5v-907q0 -153 73 -242.5t216 -89.5q142 0 214 90t72 242v907q0 34 23.5 60t56.5 26q36 0 61 -26t25 -60v-907q0 -218 -121 -354.5t-331 -136.5q-213 0 -333 136.5t-120 354.5zM336 1747q-8 37 9 56.5 t46 19.5q42 0 62 -33q59 -84 133 -84t133 84q20 33 61 33q29 0 46.5 -19.5t7.5 -56.5q-19 -77 -94.5 -121.5t-153.5 -44.5t-154 44.5t-96 121.5z" />
<glyph unicode="&#x16d;" horiz-adv-x="1042" d="M152 371v598q0 34 21 56t58 22t58.5 -22.5t21.5 -55.5v-598q0 -118 48.5 -181t140.5 -63q117 0 225 68q-4 40 -4 57v717q0 34 21 56t59 22t59 -22t21 -56v-717q0 -40 4 -66.5t8 -35.5t13 -22t12 -19q14 -28 14 -41q0 -30 -22 -51t-54 -21q-50 0 -88 61q-129 -73 -291 -73 q-159 0 -242 104.5t-83 282.5zM270 1337q-8 37 9.5 56.5t46.5 19.5q41 0 61 -33q59 -84 133 -84t133 84q20 33 62 33q29 0 46 -19.5t7 -56.5q-19 -77 -94.5 -121.5t-153.5 -44.5t-154 44.5t-96 121.5z" />
<glyph unicode="&#x16e;" horiz-adv-x="1171" d="M133 471v907q0 37 24.5 61.5t59.5 24.5q32 0 56 -25.5t24 -60.5v-907q0 -153 73 -242.5t216 -89.5q142 0 214 90t72 242v907q0 34 23.5 60t56.5 26q36 0 61 -26t25 -60v-907q0 -218 -121 -354.5t-331 -136.5q-213 0 -333 136.5t-120 354.5zM381 1729q0 85 59.5 144 t145.5 59q85 0 143.5 -59t58.5 -144t-58.5 -144t-143.5 -59q-86 0 -145.5 59t-59.5 144zM475 1729q0 -46 32.5 -78.5t78.5 -32.5t78 32.5t32 78.5t-32.5 79.5t-77.5 33.5q-46 0 -78.5 -33.5t-32.5 -79.5z" />
<glyph unicode="&#x16f;" horiz-adv-x="1042" d="M152 371v598q0 34 21 56t58 22t58.5 -22.5t21.5 -55.5v-598q0 -118 48.5 -181t140.5 -63q117 0 225 68q-4 40 -4 57v717q0 34 21 56t59 22t59 -22t21 -56v-717q0 -40 4 -66.5t8 -35.5t13 -22t12 -19q14 -28 14 -41q0 -30 -22 -51t-54 -21q-50 0 -88 61q-129 -73 -291 -73 q-159 0 -242 104.5t-83 282.5zM317 1319q0 85 59.5 144t145.5 59q85 0 144 -59t59 -144t-59 -144t-144 -59q-86 0 -145.5 59t-59.5 144zM412 1319q0 -46 32 -78.5t78 -32.5t78.5 32.5t32.5 78.5t-32.5 79.5t-78.5 33.5q-45 0 -77.5 -33.5t-32.5 -79.5z" />
<glyph unicode="&#x170;" horiz-adv-x="1171" d="M133 471v907q0 37 24.5 61.5t59.5 24.5q32 0 56 -25.5t24 -60.5v-907q0 -153 73 -242.5t216 -89.5q142 0 214 90t72 242v907q0 34 23.5 60t56.5 26q36 0 61 -26t25 -60v-907q0 -218 -121 -354.5t-331 -136.5q-213 0 -333 136.5t-120 354.5zM385 1639q0 14 5 24l129 193 q5 6 15 20.5t15.5 20.5t17 12t25.5 6q26 0 47 -21.5t21 -49.5q0 -9 -4 -21l-133 -203q-16 -20 -22 -27t-18.5 -14.5t-27.5 -7.5q-29 0 -49.5 19.5t-20.5 48.5zM662 1639q0 16 4 24l129 193q13 21 19 29.5t21 19t32 10.5q24 0 47.5 -21t23.5 -46q0 -13 -6 -25l-133 -203 q-2 -3 -9 -11.5t-9 -11t-7.5 -8.5t-9 -8t-9 -5t-11 -4t-12.5 -1q-29 0 -49.5 19.5t-20.5 48.5z" />
<glyph unicode="&#x171;" horiz-adv-x="1042" d="M152 371v598q0 34 21 56t58 22t58.5 -22.5t21.5 -55.5v-598q0 -118 48.5 -181t140.5 -63q117 0 225 68q-4 40 -4 57v717q0 34 21 56t59 22t59 -22t21 -56v-717q0 -40 4 -66.5t8 -35.5t13 -22t12 -19q14 -28 14 -41q0 -30 -22 -51t-54 -21q-50 0 -88 61q-129 -73 -291 -73 q-159 0 -242 104.5t-83 282.5zM315 1229q0 16 4 24l130 193q5 6 15 20.5t15.5 20.5t17 12t25.5 6q26 0 47 -21.5t21 -49.5q0 -9 -4 -21l-133 -203q-16 -20 -22 -27t-18.5 -14.5t-27.5 -7.5q-29 0 -49.5 19.5t-20.5 48.5zM592 1229q0 16 4 24l129 193q13 21 19 29.5t21 19 t32 10.5q24 0 47.5 -21t23.5 -46q0 -13 -6 -25l-133 -203q-2 -3 -9 -11.5t-9 -11t-7.5 -8.5t-9 -8t-9 -5t-11 -4t-12.5 -1q-29 0 -49.5 19.5t-20.5 48.5z" />
<glyph unicode="&#x172;" horiz-adv-x="1171" d="M133 471v907q0 37 24.5 61.5t59.5 24.5q32 0 56 -25.5t24 -60.5v-907q0 -153 73 -242.5t216 -89.5q142 0 214 90t72 242v907q0 34 23.5 60t56.5 26q36 0 61 -26t25 -60v-907q0 -158 -66 -277t-186 -174q-75 -139 -75 -202q0 -40 23 -66t67 -26q28 0 53 5t33 5 q23 0 39 -16.5t16 -38.5q0 -80 -158 -80q-99 0 -155 46t-56 138q0 99 66 197q-18 -2 -53 -2q-213 0 -333 136.5t-120 354.5z" />
<glyph unicode="&#x173;" horiz-adv-x="1042" d="M152 371v598q0 34 21 56t58 22t58.5 -22.5t21.5 -55.5v-598q0 -118 48.5 -181t140.5 -63q116 0 225 66q-4 20 -4 59v717q0 34 21 56t59 22t59 -22t21 -56v-717q0 -40 4 -66.5t8 -35.5t13 -22t12 -19q14 -28 14 -41q0 -21 -23 -52q-30 -40 -49.5 -95.5t-19.5 -102.5 q0 -40 23 -66t67 -26q28 0 53 5t33 5q23 0 39 -16.5t16 -38.5q0 -80 -158 -80q-99 0 -155 46t-56 138q0 110 97 233q-19 16 -31 37q-130 -71 -291 -71q-159 0 -242 104.5t-83 282.5z" />
<glyph unicode="&#x174;" horiz-adv-x="1589" d="M31 1384q0 32 28.5 52t63.5 20q26 0 46.5 -15t27.5 -44l254 -1092l237 1041q15 63 36.5 90.5t70.5 27.5q46 0 68.5 -29t35.5 -89l238 -1041l254 1092q19 59 69 59q37 0 68 -19.5t31 -54.5q0 -2 -1 -5t-2 -8t-2 -9l-305 -1266q-12 -50 -38.5 -82t-69.5 -32t-71 33.5 t-40 82.5l-235 1030l-238 -1032q-30 -114 -108 -114q-42 0 -71 32.5t-40 81.5l-305 1268zM551 1628q0 29 37 62l162 137q24 16 45 16t45 -16l161 -137q37 -33 37 -62q0 -21 -16 -37t-37 -16q-28 0 -37 12l-153 125l-154 -125q-9 -12 -39 -12q-20 0 -35.5 16.5t-15.5 36.5z " />
<glyph unicode="&#x175;" horiz-adv-x="1341" d="M51 971q0 30 23.5 53t56.5 23q26 0 46.5 -15.5t27.5 -42.5l192 -753q119 467 185 739q8 32 32 52t60 20q34 0 57 -20t31 -52q23 -96 186 -739l191 753q6 25 26.5 41.5t46.5 16.5q31 0 54.5 -23.5t23.5 -56.5q0 -2 -1 -7.5t-1 -7.5l-235 -876q-14 -48 -37 -70t-66 -22 q-33 0 -59 18t-35 51l-184 719l-183 -719q-20 -69 -96 -69t-102 92l-238 882q-2 4 -2 13zM426 1219q0 28 37 61l162 137q25 17 45 17t45 -17l162 -137q36 -32 36 -61q0 -21 -16 -37.5t-37 -16.5q-27 0 -37 13l-153 125l-154 -125q-10 -13 -39 -13q-20 0 -35.5 16.5 t-15.5 37.5z" />
<glyph unicode="&#x176;" horiz-adv-x="974" d="M31 1380q0 33 25.5 58.5t58.5 25.5q46 0 63 -32l309 -674l310 674q17 32 63 32q33 0 58.5 -25.5t25.5 -58.5q0 -19 -8 -39l-365 -778v-497q0 -34 -24.5 -60t-59.5 -26t-59.5 25.5t-24.5 60.5v501l-364 774q-8 20 -8 39zM244 1628q0 29 37 62l161 137q24 16 45 16t45 -16 l162 -137q37 -33 37 -62q0 -21 -16 -37t-37 -16q-28 0 -37 12l-154 125l-153 -125q-9 -12 -39 -12q-20 0 -35.5 16.5t-15.5 36.5z" />
<glyph unicode="&#x177;" horiz-adv-x="841" d="M31 973q0 32 23 53t57 21q52 0 71 -54l256 -776l224 776q9 26 29 40t44 14q32 0 56 -23t24 -57q0 -9 -4 -25l-250 -813q-25 -81 -41.5 -131t-42 -114t-48 -102.5t-55.5 -80t-68.5 -63.5t-83 -37.5t-103.5 -16.5q-35 0 -58.5 22t-23.5 56q0 29 21 52t55 24 q95 4 147.5 62.5t99.5 203.5l-325 940q-4 6 -4 29zM125 1219q0 28 37 61l162 137q26 17 45 17t45 -17l161 -137q37 -33 37 -61q0 -21 -16 -37.5t-37 -16.5q-27 0 -37 13l-153 125l-154 -125q-10 -13 -39 -13q-20 0 -35.5 16.5t-15.5 37.5z" />
<glyph unicode="&#x178;" horiz-adv-x="974" d="M31 1380q0 33 25.5 58.5t58.5 25.5q46 0 63 -32l309 -674l310 674q17 32 63 32q33 0 58.5 -25.5t25.5 -58.5q0 -19 -8 -39l-365 -778v-497q0 -34 -24.5 -60t-59.5 -26t-59.5 25.5t-24.5 60.5v501l-364 774q-8 20 -8 39zM217 1719q0 39 28 67.5t67 28.5q41 0 69.5 -28 t28.5 -68q0 -42 -28.5 -71.5t-69.5 -29.5q-39 0 -67 30.5t-28 70.5zM562 1719q0 38 29 67t69 29t68 -28t28 -68q0 -41 -28 -71t-68 -30q-39 0 -68.5 30.5t-29.5 70.5z" />
<glyph unicode="&#x179;" horiz-adv-x="991" d="M59 90q0 29 21 66l631 1124h-568q-34 0 -57 23.5t-23 58.5q0 33 23.5 57.5t56.5 24.5h695q38 0 63 -25.5t25 -62.5q0 -26 -21 -64l-635 -1128h578q33 0 57.5 -23.5t24.5 -56.5q0 -35 -24 -59.5t-58 -24.5h-703q-36 0 -61 26.5t-25 63.5zM422 1657q0 19 10 31l160 166 l18 18t17 16t16 8.5t24 4.5q23 0 43.5 -20t20.5 -48q0 -21 -10 -34l-166 -177q-16 -14 -23 -20t-18.5 -11t-24.5 -5q-28 0 -47.5 19.5t-19.5 51.5z" />
<glyph unicode="&#x17a;" horiz-adv-x="786" d="M31 86q0 29 14 51l508 750h-428q-31 0 -52.5 21.5t-21.5 52.5q0 32 21.5 52.5t52.5 20.5h543q35 0 59.5 -22.5t24.5 -59.5q0 -28 -19 -57l-506 -748h453q32 0 54 -21t22 -52t-22 -52.5t-54 -21.5h-567q-33 0 -57.5 25t-24.5 61zM342 1247q0 19 10 31l160 166l15 15 t14 13.5t12.5 9.5t15.5 7t19 2q23 0 43 -20t20 -48q0 -21 -10 -34l-166 -177q-16 -15 -22.5 -20.5t-18 -10.5t-24.5 -5q-28 0 -48 20t-20 51z" />
<glyph unicode="&#x17b;" horiz-adv-x="991" d="M59 90q0 29 21 66l631 1124h-568q-34 0 -57 23.5t-23 58.5q0 33 23.5 57.5t56.5 24.5h695q38 0 63 -25.5t25 -62.5q0 -26 -21 -64l-635 -1128h578q33 0 57.5 -23.5t24.5 -56.5q0 -35 -24 -59.5t-58 -24.5h-703q-36 0 -61 26.5t-25 63.5zM399 1719q0 39 28 67.5t67 28.5 q41 0 69.5 -28t28.5 -68q0 -42 -28.5 -71.5t-69.5 -29.5q-39 0 -67 30.5t-28 70.5z" />
<glyph unicode="&#x17c;" horiz-adv-x="786" d="M31 86q0 29 14 51l508 750h-428q-31 0 -52.5 21.5t-21.5 52.5q0 32 21.5 52.5t52.5 20.5h543q35 0 59.5 -22.5t24.5 -59.5q0 -28 -19 -57l-506 -748h453q32 0 54 -21t22 -52t-22 -52.5t-54 -21.5h-567q-33 0 -57.5 25t-24.5 61zM297 1309q0 39 27.5 67.5t66.5 28.5 q41 0 69.5 -28t28.5 -68q0 -42 -28.5 -71.5t-69.5 -29.5q-39 0 -66.5 30.5t-27.5 70.5z" />
<glyph unicode="&#x17d;" horiz-adv-x="991" d="M59 90q0 29 21 66l631 1124h-568q-34 0 -57 23.5t-23 58.5q0 33 23.5 57.5t56.5 24.5h695q38 0 63 -25.5t25 -62.5q0 -26 -21 -64l-635 -1128h578q33 0 57.5 -23.5t24.5 -56.5q0 -35 -24 -59.5t-58 -24.5h-703q-36 0 -61 26.5t-25 63.5zM225 1799q0 25 19 42t45 17 q15 0 36 -14l170 -138l170 138q21 14 37 14q26 0 45 -17t19 -42q0 -35 -41 -70l-180 -150q-22 -18 -50 -18q-27 0 -49 18l-180 150q-41 35 -41 70z" />
<glyph unicode="&#x17e;" horiz-adv-x="786" d="M31 86q0 29 14 51l508 750h-428q-31 0 -52.5 21.5t-21.5 52.5q0 32 21.5 52.5t52.5 20.5h543q35 0 59.5 -22.5t24.5 -59.5q0 -28 -19 -57l-506 -748h453q32 0 54 -21t22 -52t-22 -52.5t-54 -21.5h-567q-33 0 -57.5 25t-24.5 61zM125 1389q0 26 18.5 42.5t44.5 16.5 q16 0 37 -14l170 -138l170 138q21 14 37 14q26 0 45 -17t19 -42q0 -35 -41 -70l-181 -150q-22 -18 -49 -18t-49 18l-180 150q-41 35 -41 70z" />
<glyph unicode="&#x192;" horiz-adv-x="1007" d="M6 -356q0 35 22 55t58 20q5 0 26.5 -1t32.5 -1q75 0 109.5 43t52.5 142l154 876h-172q-30 0 -50 18t-20 54t19.5 53t50.5 17h196l52 292q21 117 104.5 184.5t216.5 67.5q25 0 43.5 -3t37.5 -11.5t29.5 -27t10.5 -46.5q0 -33 -15 -48.5t-34 -14.5t-37 2q-32 4 -55 4 q-55 0 -95.5 -35.5t-50.5 -95.5l-45 -268h172q30 0 50 -18t20 -54t-19.5 -53t-50.5 -17h-198l-152 -864q-15 -82 -36 -141t-55 -107t-85.5 -72t-120.5 -24q-35 0 -54 0.5t-44 4.5t-37.5 11.5t-21.5 22t-9 35.5z" />
<glyph unicode="&#x218;" horiz-adv-x="995" d="M84 131q0 31 22 55.5t52 24.5q21 0 64.5 -18t107 -36t133.5 -18q135 0 204.5 65.5t69.5 186.5q0 89 -32.5 134.5t-83.5 72.5q-40 21 -106.5 45t-120 41t-113.5 49.5t-100.5 72t-67.5 106t-27 153.5q0 185 111.5 292t302.5 107q46 0 99 -6t113 -20t99 -43.5t39 -69.5 q0 -32 -22.5 -55t-59.5 -23q-24 0 -59.5 14.5t-86 29t-110.5 14.5q-52 0 -95.5 -11.5t-81 -36.5t-58.5 -71.5t-21 -110.5q0 -48 11 -84.5t31.5 -60t37 -36t39.5 -24.5q40 -21 107 -45t120 -41t113 -49.5t100 -71.5t67 -105t27 -152q0 -198 -125 -312t-323 -114 q-54 0 -115 8.5t-122 25t-100.5 47.5t-39.5 70zM389 -213q0 46 32.5 77.5t78.5 31.5q44 0 76 -32.5t32 -76.5q0 -54 -27 -119.5t-64 -110t-64 -44.5q-39 0 -39 34q0 25 32.5 64t42.5 63q-43 3 -71.5 36t-28.5 77z" />
<glyph unicode="&#x219;" horiz-adv-x="831" d="M96 102q0 29 20.5 51.5t55.5 22.5q9 0 21 -4q116 -47 204 -47q89 0 139 37t50 114q0 51 -20 79t-56 48q-26 14 -74 31.5t-88 31.5t-86 39.5t-78 56t-53.5 81.5t-21.5 115q0 135 86 215t245 80q43 0 88 -6t88 -19t70 -36t27 -54q0 -30 -21 -52t-53 -22q-17 0 -37 10 q-80 37 -156 37q-182 0 -182 -143q0 -47 21.5 -75.5t74.5 -55.5q29 -15 92 -37t105 -42t88.5 -54.5t71 -89.5t24.5 -131q0 -140 -88.5 -219.5t-255.5 -79.5q-44 0 -91.5 5.5t-97 18t-81 37t-31.5 57.5zM307 -213q0 46 32.5 77.5t78.5 31.5q44 0 76 -32.5t32 -76.5 q0 -54 -27 -119.5t-64 -110t-64 -44.5q-39 0 -39 34q0 25 33 64t43 63q-43 3 -72 36t-29 77z" />
<glyph unicode="&#x21a;" horiz-adv-x="989" d="M51 1364q0 28 25 54t57 26h721q33 0 58.5 -23.5t25.5 -56.5q0 -32 -25 -56t-59 -24h-279v-1223q0 -33 -24 -57t-57 -24q-34 0 -58 24t-24 57v1223h-279q-35 0 -58.5 23.5t-23.5 56.5zM385 -213q0 46 32.5 77.5t78.5 31.5q44 0 76 -32.5t32 -76.5q0 -54 -27 -119.5 t-64 -110t-64 -44.5q-39 0 -39 34q0 25 32.5 64t42.5 63q-43 3 -71.5 36t-28.5 77z" />
<glyph unicode="&#x21b;" horiz-adv-x="657" d="M152 416v856q0 34 21 56t58 22t58.5 -22.5t21.5 -55.5v-283h213q31 0 52.5 -22t21.5 -54t-21.5 -53.5t-52.5 -21.5h-213v-408q0 -86 5.5 -135.5t23.5 -87t51 -52t88 -14.5q6 0 19.5 1t19.5 1q107 0 107 -73q0 -47 -31.5 -62.5t-85.5 -15.5q-106 0 -176.5 25.5 t-109.5 81.5t-54.5 130.5t-15.5 186.5zM342 -213q0 46 32.5 77.5t78.5 31.5q44 0 76 -32.5t32 -76.5q0 -54 -27 -119.5t-64 -110t-64 -44.5q-39 0 -39 34q0 25 32.5 64t42.5 63q-43 3 -71.5 36t-28.5 77z" />
<glyph unicode="&#x237;" horiz-adv-x="501" d="M-66 -362q-9 37 12 59.5t50 28.5q88 20 131 73.5t43 161.5v1006q0 33 23.5 56.5t56.5 23.5t56.5 -23.5t23.5 -56.5v-998q0 -162 -75.5 -262.5t-213.5 -120.5q-16 -2 -39 -2q-25 0 -43.5 14.5t-24.5 39.5z" />
<glyph unicode="&#x2c6;" horiz-adv-x="811" d="M160 1219q0 28 37 61l161 137q26 17 45 17q21 0 46 -17l161 -137q37 -33 37 -61q0 -21 -16 -37.5t-37 -16.5q-27 0 -37 13l-154 125l-153 -125q-10 -13 -39 -13q-20 0 -35.5 16.5t-15.5 37.5z" />
<glyph unicode="&#x2c7;" horiz-adv-x="800" d="M129 1389q0 25 19 42t45 17q15 0 36 -14l170 -138l170 138q21 14 37 14q26 0 45 -17t19 -42q0 -35 -41 -70l-180 -150q-22 -18 -50 -18q-27 0 -49 18l-180 150q-41 35 -41 70z" />
<glyph unicode="&#x2d8;" horiz-adv-x="753" d="M125 1337q-8 37 9 56.5t46 19.5q42 0 62 -33q59 -84 133 -84t133 84q20 33 61 33q29 0 46.5 -19.5t7.5 -56.5q-19 -77 -94.5 -121.5t-153.5 -44.5t-154 44.5t-96 121.5z" />
<glyph unicode="&#x2d9;" horiz-adv-x="487" d="M147 1309q0 39 28 67.5t67 28.5q41 0 69.5 -28t28.5 -68q0 -42 -28.5 -71.5t-69.5 -29.5q-39 0 -67 30.5t-28 70.5z" />
<glyph unicode="&#x2da;" horiz-adv-x="1169" d="M373 1319q0 85 59.5 144t145.5 59q85 0 143.5 -59t58.5 -144t-58.5 -144t-143.5 -59q-86 0 -145.5 59t-59.5 144zM467 1319q0 -46 32.5 -78.5t78.5 -32.5t78 32.5t32 78.5t-32.5 79.5t-77.5 33.5q-46 0 -78.5 -33.5t-32.5 -79.5z" />
<glyph unicode="&#x2db;" horiz-adv-x="659" d="M141 -215q0 105 78 215h123q-63 -128 -63 -182q0 -40 23 -66t67 -26q28 0 53 5t33 5q23 0 39 -16.5t16 -38.5q0 -80 -158 -80q-99 0 -155 46t-56 138z" />
<glyph unicode="&#x2dc;" horiz-adv-x="768" d="M117 1272q0 56 50.5 94.5t117.5 38.5q47 0 111.5 -31.5t92.5 -34.5q44 0 78.5 28t53.5 30q25 0 43 -19t18 -47q0 -51 -53.5 -86.5t-114.5 -38.5q-49 0 -115 32t-90 34q-42 0 -77 -27.5t-54 -27.5q-24 0 -41 15.5t-20 39.5z" />
<glyph unicode="&#x2dd;" horiz-adv-x="839" d="M145 1229q0 14 5 24l129 193q5 6 15 20.5t15.5 20.5t17 12t25.5 6q26 0 47 -21.5t21 -49.5q0 -9 -4 -21l-133 -203q-16 -20 -22 -27t-18.5 -14.5t-27.5 -7.5q-29 0 -49.5 19.5t-20.5 48.5zM422 1229q0 16 4 24l129 193q13 21 19 29.5t21 19t32 10.5q24 0 47.5 -21 t23.5 -46q0 -13 -6 -25l-133 -203q-2 -3 -9 -11.5t-9 -11t-7.5 -8.5t-9 -8t-9 -5t-11 -4t-12.5 -1q-29 0 -49.5 19.5t-20.5 48.5z" />
<glyph unicode="&#x400;" horiz-adv-x="970" d="M150 96v1252q0 37 28 66.5t68 29.5h555q34 0 58 -24t24 -58q0 -33 -24 -55.5t-58 -22.5h-488v-479h449q31 0 55.5 -23.5t24.5 -56.5q0 -34 -23 -57t-57 -23h-449v-485h508q32 0 57 -22.5t25 -53.5q0 -35 -24 -59.5t-58 -24.5h-542q-129 0 -129 96zM329 1835q0 28 20.5 48 t43.5 20q13 0 24 -4.5t16 -8t18 -16.5l18 -18l159 -166q11 -14 11 -31q0 -31 -20.5 -51t-47.5 -20q-30 0 -66 36l-165 177q-11 14 -11 34z" />
<glyph unicode="&#x401;" horiz-adv-x="970" d="M150 96v1252q0 37 28 66.5t68 29.5h555q34 0 58 -24t24 -58q0 -33 -24 -55.5t-58 -22.5h-488v-479h449q31 0 55.5 -23.5t24.5 -56.5q0 -34 -23 -57t-57 -23h-449v-485h508q32 0 57 -22.5t25 -53.5q0 -35 -24 -59.5t-58 -24.5h-542q-129 0 -129 96zM279 1720q0 39 27.5 68 t66.5 29q41 0 69.5 -28.5t28.5 -68.5q0 -41 -28.5 -70.5t-69.5 -29.5q-39 0 -66.5 30t-27.5 70zM623 1720q0 38 29.5 67.5t68.5 29.5q40 0 68 -28.5t28 -68.5q0 -41 -28 -70.5t-68 -29.5t-69 30t-29 70z" />
<glyph unicode="&#x402;" horiz-adv-x="1318" d="M51 1364q0 30 24.5 56t57.5 26h721q33 0 58.5 -23.5t25.5 -56.5q0 -32 -25 -56t-59 -24h-360v-428q117 53 266 53q207 0 318.5 -117t111.5 -345q0 -216 -96.5 -342.5t-262.5 -126.5q-90 0 -149 35t-59 87q0 30 20.5 51t50.5 21q17 0 46.5 -17.5t74.5 -17.5q211 0 211 305 q0 166 -66.5 237t-211.5 71q-150 0 -254 -58v-633q0 -33 -24 -57t-58 -24t-58 24t-24 57v1225h-197q-34 0 -58 24t-24 54z" />
<glyph unicode="&#x403;" horiz-adv-x="880" d="M150 63v1291q0 35 27 63.5t65 28.5h557q33 0 56.5 -23.5t23.5 -56.5q0 -34 -23 -57t-57 -23h-486v-1223q0 -33 -24.5 -57t-57.5 -24t-57 24t-24 57zM446 1659q0 17 11 31l159 165q6 6 18 18.5t17.5 16.5t16.5 8.5t24 4.5q23 0 43.5 -20t20.5 -48q0 -21 -11 -35l-165 -176 q-13 -12 -17.5 -16t-14 -10.5t-17 -8.5t-17.5 -2q-28 0 -48 20t-20 52z" />
<glyph unicode="&#x404;" horiz-adv-x="987" d="M92 504v438q0 244 115.5 383t345.5 139q141 0 251.5 -52.5t110.5 -123.5q0 -30 -20.5 -50.5t-52.5 -20.5q-10 0 -19.5 3t-15 6t-18.5 11.5t-21 13.5q-91 64 -205 64q-166 0 -236.5 -95.5t-70.5 -277.5v-137h381q31 0 54.5 -23.5t23.5 -56.5q0 -34 -22.5 -58t-55.5 -24 h-381v-139q0 -182 70.5 -277.5t236.5 -95.5q114 0 205 64q10 6 22 13.5t18 11t15 6.5t19 3q32 0 52.5 -20.5t20.5 -50.5q0 -71 -110.5 -123.5t-251.5 -52.5q-230 0 -345.5 139t-115.5 383z" />
<glyph unicode="&#x405;" horiz-adv-x="995" d="M84 131q0 31 22 55.5t52 24.5q21 0 64.5 -18t107 -36t133.5 -18q135 0 204.5 65.5t69.5 186.5q0 89 -32.5 134.5t-83.5 72.5q-40 21 -106.5 45t-120 41t-113.5 49.5t-100.5 72t-67.5 106t-27 153.5q0 185 111.5 292t302.5 107q46 0 99 -6t113 -20t99 -43.5t39 -69.5 q0 -32 -22.5 -55t-59.5 -23q-24 0 -59.5 14.5t-86 29t-110.5 14.5q-52 0 -95.5 -11.5t-81 -36.5t-58.5 -71.5t-21 -110.5q0 -48 11 -84.5t31.5 -60t37 -36t39.5 -24.5q40 -21 107 -45t120 -41t113 -49.5t100 -71.5t67 -105t27 -152q0 -198 -125 -312t-323 -114 q-54 0 -115 8.5t-122 25t-100.5 47.5t-39.5 70z" />
<glyph unicode="&#x406;" horiz-adv-x="464" d="M150 61v1321q0 33 24 57.5t57 24.5t57.5 -24.5t24.5 -57.5v-1321q0 -33 -24.5 -57t-57.5 -24t-57 24t-24 57z" />
<glyph unicode="&#x407;" horiz-adv-x="464" d="M-37 1721q0 39 28 67.5t67 28.5q41 0 69.5 -28t28.5 -68q0 -42 -28.5 -71.5t-69.5 -29.5q-39 0 -67 30.5t-28 70.5zM150 61v1321q0 33 24 57.5t57 24.5t57.5 -24.5t24.5 -57.5v-1321q0 -33 -24.5 -57t-57.5 -24t-57 24t-24 57zM308 1721q0 38 29 67t69 29t68 -28t28 -68 q0 -41 -28 -71t-68 -30q-39 0 -68.5 30.5t-29.5 70.5z" />
<glyph unicode="&#x408;" horiz-adv-x="788" d="M51 72q0 36 23 58t49 22q7 0 48 -7.5t77 -7.5q69 0 114.5 21.5t69.5 66.5t33.5 100.5t9.5 135.5v921q0 34 23.5 58t58.5 24q32 0 57 -25t25 -57v-921q0 -117 -20.5 -202t-67.5 -149.5t-128 -97t-198 -32.5q-174 0 -174 92z" />
<glyph unicode="&#x409;" horiz-adv-x="1796" d="M20 66q0 42 22 63t54 21q13 0 27.5 -3.5t30.5 -3.5q54 0 81 46t35 145l74 1032q4 40 27.5 60t50.5 20h553q32 0 57 -24t25 -56v-453h192q214 0 337.5 -118.5t123.5 -333.5q0 -94 -25 -174t-77.5 -146t-144 -103.5t-214.5 -37.5h-260q-40 0 -69 29t-29 69v1076h2v112h-397 l-64 -940q-23 -362 -256 -362q-30 0 -47.5 1t-41 5t-36 12.5t-22 24.5t-9.5 39zM1055 160h194q297 0 297 299q0 295 -297 295h-192v-486h-2v-108z" />
<glyph unicode="&#x40a;" horiz-adv-x="1736" d="M150 63v1319q0 33 24 57.5t57 24.5t57.5 -24.5t24.5 -57.5v-579h518v575q0 35 24.5 60.5t57.5 25.5t57.5 -26t24.5 -60v-465h195q214 0 337.5 -118.5t123.5 -333.5q0 -94 -25 -174t-77.5 -146t-144 -103.5t-214.5 -37.5h-260q-40 0 -69.5 29t-29.5 69v545h-518v-580 q0 -34 -24 -58.5t-58 -24.5t-57.5 24.5t-23.5 58.5zM995 160h195q297 0 297 299q0 295 -297 295h-195v-594z" />
<glyph unicode="&#x40b;" horiz-adv-x="1318" d="M51 1366q0 28 25 54t57 26h721q33 0 58.5 -23.5t25.5 -56.5q0 -32 -25 -56t-59 -24h-360v-428q117 53 266 53q205 0 317.5 -117.5t112.5 -334.5v-393q0 -34 -24.5 -60t-57.5 -26t-57.5 25.5t-24.5 60.5v391q0 157 -68.5 226t-212.5 69q-147 0 -251 -58v-633 q0 -33 -24 -57t-58 -24t-58 24t-24 57v1225h-197q-35 0 -58.5 23.5t-23.5 56.5z" />
<glyph unicode="&#x40c;" horiz-adv-x="1056" d="M150 63v1319q0 33 24 57.5t57 24.5t57.5 -24.5t24.5 -57.5v-579h119l428 622q26 39 68 39q34 0 56 -28.5t22 -59.5q0 -20 -11 -39l-430 -616l430 -615q11 -19 11 -38q0 -31 -22 -59.5t-56 -28.5q-43 0 -68 38l-430 625h-117v-580q0 -34 -24 -58.5t-58 -24.5t-57.5 24.5 t-23.5 58.5zM483 1659q0 17 11 31l159 165q6 6 18 18.5t17.5 16.5t16.5 8.5t24 4.5q23 0 43.5 -20t20.5 -48q0 -21 -11 -35l-166 -176q-33 -30 -47 -35q-8 -2 -18 -2q-28 0 -48 20t-20 52z" />
<glyph unicode="&#x40d;" horiz-adv-x="1206" d="M150 70q0 -37 25.5 -63.5t64.5 -26.5q25 0 48.5 13t35.5 34l569 1081v-1045q0 -34 25 -58.5t59 -24.5q33 0 56.5 24.5t23.5 58.5v1311q0 38 -25 64t-63 26q-27 0 -50.5 -13t-35.5 -36l-570 -1079v1044q0 34 -25 59t-59 25q-33 0 -56 -25t-23 -59v-1310zM348 1835 q0 28 20.5 48t43.5 20q13 0 24 -4.5t16 -9t16.5 -16.5t18.5 -18l160 -165q10 -12 10 -31q0 -31 -20 -51.5t-47 -20.5q-29 0 -66 37l-166 176q-10 12 -10 35z" />
<glyph unicode="&#x40e;" horiz-adv-x="1030" d="M51 1391q0 32 23 52.5t57 20.5q24 0 43.5 -14t28.5 -39l317 -856l305 856q9 25 29.5 39t44.5 14q32 0 56 -23t24 -57q0 -16 -4 -24l-332 -893q-25 -72 -41.5 -116.5t-42 -101t-48 -90.5t-55.5 -70.5t-68.5 -56.5t-83 -33.5t-103.5 -14.5q-35 0 -58.5 21.5t-23.5 55.5 q0 29 21 52t55 24q96 4 148.5 48.5t98.5 156.5l-387 1020q-4 6 -4 29zM264 1749q-8 37 9 56.5t46 19.5q42 0 62 -33q59 -84 133 -84t133 84q20 33 62 33q29 0 46 -19.5t7 -56.5q-19 -77 -94.5 -121.5t-153.5 -44.5t-154 44.5t-96 121.5z" />
<glyph unicode="&#x40f;" horiz-adv-x="1185" d="M150 82v1300q0 34 24 59t57 25q34 0 58 -25t24 -59v-1222h559v1222q0 34 25 59t57 25q34 0 58 -25t24 -59v-1300q0 -32 -25 -57t-57 -25h-280v-246q0 -33 -24.5 -57.5t-57.5 -24.5t-57.5 24.5t-24.5 57.5v246h-279q-33 0 -57 24.5t-24 57.5z" />
<glyph unicode="&#x410;" horiz-adv-x="1124" d="M51 61q0 19 4 31l400 1264q32 108 106 108q43 0 67.5 -27.5t41.5 -80.5l399 -1264q4 -12 4 -31q0 -36 -24.5 -58.5t-61.5 -22.5q-25 0 -49 17t-31 44l-88 285h-518l-86 -285q-9 -27 -32 -44t-46 -17q-36 0 -61 22.5t-25 58.5zM350 485h422l-211 695z" />
<glyph unicode="&#x411;" horiz-adv-x="1087" d="M150 98v1256q0 35 27 63.5t65 28.5h598q33 0 56.5 -23.5t23.5 -56.5q0 -34 -23 -57t-57 -23h-527v-414h236q214 0 337.5 -113t123.5 -319q0 -90 -25 -166t-77.5 -139t-144 -99t-214.5 -36h-301q-40 0 -69 29t-29 69zM313 160h236q297 0 297 278q0 275 -297 275h-236v-553 z" />
<glyph unicode="&#x412;" horiz-adv-x="1110" d="M150 98v1248q0 41 29 69.5t69 28.5h346q96 0 174 -31.5t126 -84t73.5 -118.5t25.5 -139q0 -123 -68.5 -199t-195.5 -129q52 -16 85.5 -29t79 -40.5t72.5 -60t46.5 -85t19.5 -118.5q0 -177 -121.5 -293.5t-324.5 -116.5h-338q-41 0 -69.5 29t-28.5 69zM313 160h250 q149 0 227 67t78 181q0 124 -87 193t-226 69h-242v-510zM313 829h236q70 0 132 25.5t105 82.5t43 136q0 92 -58.5 151.5t-186.5 59.5h-271v-455z" />
<glyph unicode="&#x413;" horiz-adv-x="880" d="M150 63v1291q0 35 27 63.5t65 28.5h557q33 0 56.5 -23.5t23.5 -56.5q0 -34 -23 -57t-57 -23h-486v-1223q0 -33 -24.5 -57t-57.5 -24t-57 24t-24 57z" />
<glyph unicode="&#x414;" horiz-adv-x="1286" d="M55 55q0 44 23 74.5t57 30.5h60q97 131 116 542l31 664q3 40 26.5 60t51.5 20h594q34 0 58 -24t24 -56v-1206h51q35 0 59.5 -30.5t24.5 -74.5v-262q0 -34 -24.5 -57t-59.5 -23q-34 0 -57 23t-23 57v207h-852v-207q0 -34 -23 -57t-57 -23t-57 23t-23 57v262zM354 160h578 v1126h-436l-21 -584q-16 -362 -121 -542z" />
<glyph unicode="&#x415;" horiz-adv-x="970" d="M150 96v1252q0 37 28 66.5t68 29.5h555q34 0 58 -24t24 -58q0 -33 -24 -55.5t-58 -22.5h-488v-479h449q31 0 55.5 -23.5t24.5 -56.5q0 -34 -23 -57t-57 -23h-449v-485h508q32 0 57 -22.5t25 -53.5q0 -35 -24 -59.5t-58 -24.5h-542q-129 0 -129 96z" />
<glyph unicode="&#x416;" horiz-adv-x="1527" d="M51 68q0 20 10 38l377 615l-377 616q-10 17 -10 39q0 31 22 59.5t56 28.5q42 0 68 -39l389 -622h96v579q0 33 24.5 57.5t57.5 24.5t57.5 -24.5t24.5 -57.5v-579h94l391 622q26 39 68 39q34 0 56 -28.5t22 -59.5q0 -20 -11 -39l-379 -616l379 -615q11 -19 11 -38 q0 -31 -22 -59.5t-56 -28.5q-43 0 -68 38l-391 625h-94v-580q0 -34 -24 -58.5t-58 -24.5t-58 24.5t-24 58.5v580h-94l-391 -625q-25 -38 -68 -38q-34 0 -56 28.5t-22 59.5z" />
<glyph unicode="&#x417;" horiz-adv-x="993" d="M61 152q0 30 21.5 51.5t50.5 21.5q16 0 41 -14q48 -28 77.5 -42.5t81.5 -28t109 -13.5q148 0 227 75t79 193q0 244 -355 262q-22 1 -35.5 3t-30.5 9.5t-25.5 23.5t-8.5 42q0 14 3 25t6.5 18.5t11.5 13.5t12.5 9t15.5 5.5t15 3l16 2t14 1.5q51 4 95.5 14.5t88.5 31 t75.5 49t51 72t19.5 97.5q0 100 -62 170t-192 70q-107 0 -187 -41q-16 -8 -41.5 -24t-44.5 -24.5t-36 -8.5q-27 0 -48.5 19.5t-21.5 49.5q0 49 64.5 91t153 63.5t171.5 21.5q96 0 174 -34t126 -89.5t73.5 -124t25.5 -141.5q0 -228 -243 -332q280 -94 280 -346 q0 -173 -122.5 -295t-321.5 -122q-82 0 -171.5 18t-161 59t-71.5 95z" />
<glyph unicode="&#x418;" horiz-adv-x="1206" d="M150 70v1310q0 34 23 59t56 25q34 0 59 -25t25 -59v-1044l570 1079q12 23 35.5 36t50.5 13q38 0 63 -26t25 -64v-1311q0 -34 -23.5 -58.5t-56.5 -24.5q-34 0 -59 24.5t-25 58.5v1045l-569 -1081q-12 -21 -35.5 -34t-48.5 -13q-39 0 -64.5 26.5t-25.5 63.5z" />
<glyph unicode="&#x419;" horiz-adv-x="1206" d="M150 70q0 -37 25.5 -63.5t64.5 -26.5q25 0 48.5 13t35.5 34l569 1081v-1045q0 -34 25 -58.5t59 -24.5q33 0 56.5 24.5t23.5 58.5v1311q0 38 -25 64t-63 26q-27 0 -50.5 -13t-35.5 -36l-570 -1079v1044q0 34 -25 59t-59 25q-33 0 -56 -25t-23 -59v-1310zM352 1749 q-8 37 9.5 56.5t46.5 19.5q41 0 61 -33q59 -84 133 -84t133 84q20 33 62 33q29 0 46 -19.5t7 -56.5q-19 -77 -94.5 -121.5t-153.5 -44.5t-154 44.5t-96 121.5z" />
<glyph unicode="&#x41a;" horiz-adv-x="1056" d="M150 63v1319q0 33 24 57.5t57 24.5t57.5 -24.5t24.5 -57.5v-579h119l428 622q26 39 68 39q34 0 56 -28.5t22 -59.5q0 -20 -11 -39l-430 -616l430 -615q11 -19 11 -38q0 -31 -22 -59.5t-56 -28.5q-43 0 -68 38l-430 625h-117v-580q0 -34 -24 -58.5t-58 -24.5t-57.5 24.5 t-23.5 58.5z" />
<glyph unicode="&#x41b;" horiz-adv-x="1249" d="M20 66q0 42 22 63t54 21q13 0 27.5 -3.5t30.5 -3.5q54 0 81 46t35 145l74 1032q4 40 27.5 60t50.5 20h594q34 0 58 -24t24 -56v-1303q-1 -33 -25 -56t-57 -23q-35 0 -58.5 22.5t-23.5 56.5v1223h-438l-64 -940q-23 -362 -256 -362q-30 0 -47.5 1t-41 5t-36 12.5t-22 24.5 t-9.5 39z" />
<glyph unicode="&#x41c;" horiz-adv-x="1413" d="M133 59v1319q0 37 24.5 61.5t61.5 24.5q61 0 88 -53l400 -856l399 858q28 51 86 51q36 0 61 -25t25 -61v-1319q0 -32 -24 -55.5t-56 -23.5q-34 0 -59 23.5t-25 55.5v998l-330 -705q-24 -49 -79 -49q-54 0 -78 49l-330 705v-998q0 -32 -25.5 -55.5t-60.5 -23.5 q-32 0 -55 23.5t-23 55.5z" />
<glyph unicode="&#x41d;" horiz-adv-x="1187" d="M150 63v1319q0 33 24 57.5t57 24.5t57.5 -24.5t24.5 -57.5v-579h559v579q0 32 25 57t57 25t57 -25t25 -57v-1319q0 -34 -24 -58.5t-58 -24.5q-32 0 -57 25t-25 58v580h-559v-580q0 -34 -24 -58.5t-58 -24.5t-57.5 24.5t-23.5 58.5z" />
<glyph unicode="&#x41e;" horiz-adv-x="1128" d="M92 504v438q0 110 26.5 202t81.5 165t147.5 114t215.5 41t215.5 -41t147.5 -114t81.5 -165t26.5 -202v-438q0 -149 -51.5 -265.5t-159.5 -187.5t-260 -71t-260 71t-159.5 187.5t-51.5 265.5zM256 504q0 -168 77 -266.5t230 -98.5t230 98.5t77 266.5v438q0 363 -307 363 t-307 -363v-438z" />
<glyph unicode="&#x41f;" horiz-adv-x="1185" d="M150 63v1301q0 33 24 57.5t57 24.5h723q32 0 57 -25t25 -57v-1301q0 -34 -24 -58.5t-58 -24.5q-32 0 -57 25t-25 58v1223h-559v-1223q0 -34 -24 -58.5t-58 -24.5t-57.5 24.5t-23.5 58.5z" />
<glyph unicode="&#x420;" horiz-adv-x="1085" d="M150 66v1280q0 40 29 69t69 29h301q123 0 214.5 -37.5t144 -103t77.5 -145t25 -173.5q0 -216 -123.5 -334.5t-337.5 -118.5h-236v-466q0 -34 -24.5 -60t-57.5 -26q-32 0 -56.5 25.5t-24.5 60.5zM313 692h236q297 0 297 295q0 297 -297 297h-236v-592z" />
<glyph unicode="&#x421;" horiz-adv-x="985" d="M92 504v438q0 244 115.5 383t345.5 139q141 0 251.5 -52.5t110.5 -123.5q0 -30 -20.5 -50.5t-52.5 -20.5q-10 0 -19.5 3t-15 6t-18.5 11.5t-21 13.5q-91 64 -205 64q-166 0 -236.5 -95.5t-70.5 -277.5v-438q0 -182 70.5 -277.5t236.5 -95.5q114 0 205 64q10 6 22 13.5 t18 11t15 6.5t19 3q32 0 52.5 -20.5t20.5 -50.5q0 -71 -110.5 -123.5t-251.5 -52.5q-230 0 -345.5 139t-115.5 383z" />
<glyph unicode="&#x422;" horiz-adv-x="989" d="M51 1364q0 28 25 54t57 26h721q33 0 58.5 -23.5t25.5 -56.5q0 -32 -25 -56t-59 -24h-279v-1223q0 -33 -24 -57t-57 -24q-34 0 -58 24t-24 57v1223h-279q-35 0 -58.5 23.5t-23.5 56.5z" />
<glyph unicode="&#x423;" horiz-adv-x="1030" d="M51 1391q0 32 23 52.5t57 20.5q24 0 43.5 -14t28.5 -39l317 -856l305 856q9 25 29.5 39t44.5 14q32 0 56 -23t24 -57q0 -16 -4 -24l-332 -893q-25 -72 -41.5 -116.5t-42 -101t-48 -90.5t-55.5 -70.5t-68.5 -56.5t-83 -33.5t-103.5 -14.5q-35 0 -58.5 21.5t-23.5 55.5 q0 29 21 52t55 24q96 4 148.5 48.5t98.5 156.5l-387 1020q-4 6 -4 29z" />
<glyph unicode="&#x424;" horiz-adv-x="1536" d="M92 780q0 94 25 174t77.5 146t144 103.5t214.5 37.5h133v141q0 32 25.5 57t56.5 25q36 0 59 -24.5t23 -57.5v-141h133q123 0 214.5 -37.5t144 -103.5t77.5 -146t25 -174q0 -215 -123.5 -333.5t-337.5 -118.5h-133v-267q0 -33 -24 -57t-58 -24t-58 24t-24 57v267h-133 q-214 0 -337.5 118.5t-123.5 333.5zM256 782q0 -295 297 -295h133v594h-133q-297 0 -297 -299zM850 487h133q297 0 297 295q0 299 -297 299h-133v-594z" />
<glyph unicode="&#x425;" horiz-adv-x="989" d="M12 63q0 24 13 46l372 643l-342 587q-10 20 -10 45q0 31 23 55.5t53 24.5q50 0 88 -71l285 -510l284 510q41 71 90 71q30 0 52 -24.5t22 -57.5q0 -23 -10 -43l-342 -587l373 -643q12 -20 12 -46q0 -32 -23.5 -57.5t-52.5 -25.5q-47 0 -80 59l-325 582l-326 -582 q-31 -59 -78 -59q-31 0 -54.5 25.5t-23.5 57.5z" />
<glyph unicode="&#x426;" horiz-adv-x="1236" d="M150 82v1298q0 34 24 59t57 25q34 0 58 -25t24 -59v-1220h559v1220q0 34 25 59t57 25q34 0 58 -25t24 -59v-1220h82q32 0 57 -25t25 -57v-322q0 -34 -25 -59t-57 -25t-57 25t-25 59v244h-75h-7h-723q-33 0 -57 24.5t-24 57.5z" />
<glyph unicode="&#x427;" horiz-adv-x="1120" d="M109 985v393q0 34 24 60t57 26t57.5 -25.5t24.5 -60.5v-391q0 -157 68.5 -226t212.5 -69q146 0 252 56v630q0 34 24.5 60t57.5 26t57.5 -25.5t24.5 -60.5v-1312q0 -35 -24.5 -60.5t-57.5 -25.5t-57.5 26t-24.5 60v520q-123 -54 -266 -54q-205 0 -317.5 118t-112.5 335z " />
<glyph unicode="&#x428;" horiz-adv-x="1556" d="M150 82v1298q0 34 24 59t57 25q34 0 58 -25t24 -59v-1220h381v1222q0 33 24.5 57.5t57.5 24.5t57.5 -24.5t24.5 -57.5v-1222h383v1220q0 34 25 59t57 25q34 0 58 -25t24 -59v-1298q0 -32 -25 -57t-57 -25h-1092q-33 0 -57 24.5t-24 57.5z" />
<glyph unicode="&#x429;" horiz-adv-x="1605" d="M150 82v1298q0 34 24 59t57 25q34 0 58 -25t24 -59v-1220h381v1222q0 33 24.5 57.5t57.5 24.5t57.5 -24.5t24.5 -57.5v-1222h383v1220q0 34 25 59t57 25q34 0 58 -25t24 -59v-1220h82q32 0 57 -25t25 -57v-322q0 -34 -24 -59t-58 -25q-32 0 -57 25t-25 59v244h-1174 q-33 0 -57 24.5t-24 57.5z" />
<glyph unicode="&#x42a;" horiz-adv-x="1339" d="M33 1366q0 33 23.5 56.5t56.5 23.5h352q38 0 65 -28.5t27 -63.5v-441h236q214 0 337 -118t123 -334q0 -94 -25 -174t-77 -146t-143.5 -103.5t-214.5 -37.5h-301q-40 0 -69.5 29t-29.5 69v1188h-280q-34 0 -57 23t-23 57zM557 160h236q297 0 297 299q0 295 -297 295h-236 v-594z" />
<glyph unicode="&#x42b;" horiz-adv-x="1484" d="M150 98v1280q0 35 24.5 60.5t56.5 25.5q33 0 57.5 -26t24.5 -60v-465h236q214 0 337.5 -118.5t123.5 -333.5q0 -94 -25 -174t-77.5 -146t-144 -103.5t-214.5 -37.5h-301q-40 0 -69 29t-29 69zM313 160h236q297 0 297 299q0 295 -297 295h-236v-594zM1169 61v1321 q0 33 24.5 57.5t57.5 24.5t57.5 -24.5t24.5 -57.5v-1321q0 -33 -24.5 -57t-57.5 -24t-57.5 24t-24.5 57z" />
<glyph unicode="&#x42c;" horiz-adv-x="1095" d="M150 98v1280q0 35 24.5 60.5t56.5 25.5q33 0 57.5 -26t24.5 -60v-465h236q214 0 337.5 -118.5t123.5 -333.5q0 -94 -25 -174t-77.5 -146t-144 -103.5t-214.5 -37.5h-301q-40 0 -69 29t-29 69zM313 160h236q297 0 297 299q0 295 -297 295h-236v-594z" />
<glyph unicode="&#x42d;" horiz-adv-x="1019" d="M102 158q0 30 21 50.5t53 20.5q10 0 19 -3t15 -6.5t18 -11t22 -13.5q91 -64 205 -64q166 0 236.5 95.5t70.5 277.5v139h-381q-33 0 -55.5 24t-22.5 58q0 33 23.5 56.5t54.5 23.5h381v137q0 182 -70.5 277.5t-236.5 95.5q-114 0 -205 -64q-8 -5 -21 -13.5t-18.5 -11.5 t-15 -6t-19.5 -3q-32 0 -53 20.5t-21 50.5q0 71 110.5 123.5t252.5 52.5q230 0 345.5 -139t115.5 -383v-438q0 -244 -115.5 -383t-345.5 -139q-142 0 -252.5 52.5t-110.5 123.5z" />
<glyph unicode="&#x42e;" horiz-adv-x="1552" d="M150 63v1319q0 33 24 57.5t57 24.5t57.5 -24.5t24.5 -57.5v-579h246v160q0 106 25.5 194.5t78 158.5t141 109t206.5 39q95 0 171 -26t127.5 -71.5t86 -109t50 -137t15.5 -157.5v-480q0 -143 -49 -254.5t-152.5 -180t-248.5 -68.5q-109 0 -196 39t-142 108t-84 159.5 t-29 196.5v162h-246v-582q0 -34 -24 -58.5t-58 -24.5t-57.5 24.5t-23.5 58.5zM723 483q0 -159 72 -251.5t215 -92.5t214.5 92.5t71.5 251.5v480q0 342 -286 342q-287 0 -287 -342v-480z" />
<glyph unicode="&#x42f;" horiz-adv-x="1148" d="M123 59q0 27 10 47l328 539q-150 30 -234 129.5t-84 259.5q0 64 13.5 121t46.5 111.5t83 93.5t128 62.5t176 23.5h315q38 0 66 -29t28 -69v-1282q0 -36 -23 -61t-56 -25q-34 0 -59 26t-25 60v569h-197l-360 -615q-21 -38 -68 -38q-28 0 -58 23.5t-30 53.5zM307 1034 q0 -118 71.5 -179.5t207.5 -61.5h250v493h-238q-85 0 -145 -21.5t-90.5 -60t-43 -79.5t-12.5 -91z" />
<glyph unicode="&#x430;" horiz-adv-x="987" d="M92 293v8q0 303 361 303q105 0 206 -29v117q0 112 -54 165.5t-165 53.5q-49 0 -82 -10.5t-73 -32.5q-1 0 -7.5 -3t-13 -5.5t-16 -5t-17.5 -2.5q-27 0 -41 20.5t-16 47.5q-3 34 21 60.5t66.5 41.5t93.5 23t106 8q188 0 273 -103t85 -311v-451q0 -61 37 -61q3 0 7.5 1 t8.5 1q28 0 44 -21t16 -49q0 -35 -27 -52t-65 -17q-50 0 -90 27t-64 75q-117 -108 -280 -108q-154 0 -234 83.5t-80 225.5zM250 291q0 -164 180 -164q123 0 229 90v221q-105 31 -208 31q-116 0 -158.5 -45t-42.5 -125v-8z" />
<glyph unicode="&#x431;" horiz-adv-x="952" d="M92 348v629q0 199 98 310t308 132q14 2 36 3t32 2.5t30.5 7t47 16.5t67.5 29q12 6 28 6q31 0 51.5 -21.5t20.5 -52.5q0 -30 -23.5 -53t-54.5 -36t-79.5 -22.5t-79.5 -13t-74 -6.5q-36 -3 -60.5 -7.5t-63.5 -22.5t-63 -46.5t-42.5 -84t-18.5 -130.5v-104q88 112 254 112 q162 0 257 -103t95 -261v-283q0 -160 -100.5 -262t-282.5 -102t-282.5 102t-100.5 262zM252 348q0 -103 57 -160t166 -57t166 57t57 160v285q0 103 -53 159t-160 56t-168.5 -54.5t-64.5 -150.5v-295z" />
<glyph unicode="&#x432;" horiz-adv-x="958" d="M150 80v874q0 33 23 56.5t56 23.5h275q166 0 253 -79t87 -210q0 -161 -144 -217q164 -58 164 -237q0 -133 -87 -212t-253 -79h-295q-33 0 -56 23.5t-23 56.5zM309 137h211q187 0 187 160q0 33 -8.5 58.5t-29.5 50t-64.5 38t-106.5 13.5h-189v-320zM309 592h195 q105 0 143.5 40t38.5 105q0 160 -186 160h-191v-305z" />
<glyph unicode="&#x433;" horiz-adv-x="761" d="M150 63v900q0 31 21 51t52 20h461q30 0 52 -20.5t22 -50.5q0 -31 -21.5 -51.5t-52.5 -20.5h-375v-828q0 -34 -23 -56.5t-57 -22.5t-56.5 22.5t-22.5 56.5z" />
<glyph unicode="&#x434;" horiz-adv-x="1101" d="M47 55q0 34 23 57t57 23h39q90 90 106 404l19 415q4 40 27.5 60t50.5 20h471q33 0 56.5 -23.5t23.5 -56.5v-819h55q34 0 57 -23t23 -57v-262q0 -34 -23 -57t-57 -23t-57 23t-23 57v207h-688v-207q0 -34 -23 -57t-57 -23t-57 23t-23 57v262zM330 135h430v764h-324 l-14 -360q-9 -268 -92 -404z" />
<glyph unicode="&#x435;" horiz-adv-x="886" d="M92 324v383q0 153 98.5 249.5t276.5 96.5q167 0 253.5 -89t86.5 -245q0 -303 -346 -303q-101 0 -209 18v-121q0 -88 57.5 -138t165.5 -50q58 0 102.5 13.5t110.5 43.5q12 6 29 6q30 0 50.5 -21.5t20.5 -49.5q0 -35 -35.5 -62.5t-89.5 -42t-107 -21.5t-99 -7 q-169 0 -267 95.5t-98 244.5zM252 565q106 -14 215 -14q56 0 94 14t56 39.5t25 52.5t7 62q0 188 -186 188q-99 0 -155 -49.5t-56 -136.5v-156z" />
<glyph unicode="&#x436;" horiz-adv-x="1245" d="M51 51q0 29 12 47l256 416l-256 416q-12 14 -12 47q1 30 23 48.5t53 18.5q43 0 66 -38l247 -404h103v365q0 33 23.5 56.5t56.5 23.5t56 -23.5t23 -56.5v-365h101l250 404q20 38 65 38q33 0 54 -18t22 -49q0 -29 -12 -47l-256 -416l256 -416q12 -18 12 -47 q-1 -30 -23 -48.5t-53 -18.5q-42 0 -65 39l-275 444h-76v-404q0 -34 -22.5 -56.5t-56.5 -22.5t-57 22.5t-23 56.5v404h-76l-274 -444q-26 -39 -66 -39q-33 0 -54 18t-22 49z" />
<glyph unicode="&#x437;" horiz-adv-x="835" d="M80 104q0 28 20 50t62 22q8 0 16 -4q120 -47 223 -47q94 0 141.5 38.5t47.5 125.5q0 21 -3 38.5t-17.5 41t-38.5 40t-70.5 30t-110.5 16.5q-22 1 -35.5 3t-30.5 8.5t-25.5 21t-8.5 36.5q0 17 6.5 29.5t12 18.5t22 11t21.5 5.5t24 2.5q6 1 8 1q225 18 225 178 q0 141 -188 141q-82 0 -170 -37q-20 -10 -37 -10q-31 0 -52.5 21.5t-21.5 50.5q0 31 28.5 55t74 37t92.5 19t92 6q164 0 251 -80t87 -213q0 -194 -195 -232q215 -41 215 -249q0 -137 -88.5 -216t-261.5 -79q-46 0 -95 5.5t-101 18t-85.5 37.5t-33.5 59z" />
<glyph unicode="&#x438;" horiz-adv-x="1085" d="M150 70v895q0 34 22 59t55 25q34 0 58 -25t24 -59v-691l455 725q26 50 84 50q38 0 62 -26t24 -65v-895q0 -34 -23.5 -58.5t-56.5 -24.5t-56.5 24.5t-23.5 58.5v691l-452 -727q-29 -47 -82 -47q-39 0 -64.5 26.5t-25.5 63.5z" />
<glyph unicode="&#x439;" horiz-adv-x="1085" d="M150 70q0 -37 25.5 -63.5t64.5 -26.5q53 0 82 47l452 727v-691q0 -34 23.5 -58.5t56.5 -24.5t56.5 24.5t23.5 58.5v895q0 39 -24 65t-62 26q-58 0 -84 -50l-455 -725v691q0 34 -24 59t-58 25q-33 0 -55 -25t-22 -59v-895zM293 1337q-8 37 9 56.5t46 19.5q42 0 62 -33 q59 -84 133 -84t133 84q20 33 61 33q29 0 46.5 -19.5t7.5 -56.5q-19 -77 -94.5 -121.5t-153.5 -44.5t-154 44.5t-96 121.5z" />
<glyph unicode="&#x43a;" horiz-adv-x="892" d="M150 63v904q0 33 23 56.5t56 23.5t56.5 -23.5t23.5 -56.5v-365h125l266 404q23 38 66 38q31 0 53 -18.5t23 -48.5q0 -27 -13 -47l-280 -416l280 -416q13 -19 13 -47q-1 -30 -23 -48.5t-53 -18.5q-43 0 -66 39l-292 444h-99v-404q0 -34 -23 -56.5t-57 -22.5t-56.5 22.5 t-22.5 56.5z" />
<glyph unicode="&#x43b;" horiz-adv-x="1073" d="M23 61q0 39 22 58.5t53 19.5q6 0 13 -1t14 -1q55 0 82 44.5t35 140.5l53 632q4 40 27.5 60t50.5 20h471q33 0 56.5 -23.5t23.5 -56.5v-891q0 -34 -23 -56.5t-57 -22.5t-57 22.5t-23 56.5v836h-326l-45 -565q-27 -344 -246 -344q-31 0 -47.5 1.5t-37 7.5t-30 21.5 t-9.5 40.5z" />
<glyph unicode="&#x43c;" horiz-adv-x="1310" d="M150 63v898q0 37 24.5 61.5t61.5 24.5q52 0 81 -54l336 -612l336 612q29 54 82 54q37 0 61.5 -24.5t24.5 -61.5v-898q0 -32 -23.5 -55.5t-54.5 -23.5q-33 0 -56.5 23t-23.5 56v637l-266 -481q-25 -49 -78 -49h-4q-53 0 -78 49l-266 481v-637q0 -32 -24 -55.5t-56 -23.5 t-54.5 23.5t-22.5 55.5z" />
<glyph unicode="&#x43d;" horiz-adv-x="1052" d="M150 63v904q0 33 23 56.5t56 23.5t56.5 -23.5t23.5 -56.5v-365h434v365q0 33 23.5 56.5t56.5 23.5t56.5 -23.5t23.5 -56.5v-904q0 -34 -23 -56.5t-57 -22.5t-57 22.5t-23 56.5v404h-434v-404q0 -34 -23 -56.5t-57 -22.5t-56.5 22.5t-22.5 56.5z" />
<glyph unicode="&#x43e;" horiz-adv-x="952" d="M92 348v342q0 160 101 262.5t282 102.5t282 -102.5t101 -262.5v-342q0 -160 -100.5 -262t-282.5 -102t-282.5 102t-100.5 262zM252 348q0 -103 57 -160t166 -57t166 57t57 160v344q0 101 -57 158t-166 57t-166 -57t-57 -158v-344z" />
<glyph unicode="&#x43f;" horiz-adv-x="1032" d="M150 63v891q0 33 23 56.5t56 23.5h574q33 0 56.5 -23.5t23.5 -56.5v-891q0 -34 -23 -56.5t-57 -22.5t-57 22.5t-23 56.5v836h-414v-836q0 -34 -23 -56.5t-57 -22.5t-56.5 22.5t-22.5 56.5z" />
<glyph unicode="&#x440;" horiz-adv-x="978" d="M111 940q0 31 21.5 51.5t49.5 20.5q46 0 80 -49q169 90 299 90q157 0 241.5 -105t84.5 -282v-267q0 -95 -17.5 -168t-56 -129.5t-106 -86t-162.5 -29.5q-113 0 -228 39v-387q0 -34 -21 -56t-58 -22t-58.5 22.5t-21.5 55.5v1118q0 94 -33 143q-14 21 -14 41zM307 840 q10 -52 10 -84v-588q92 -43 207 -43q111 0 157 64.5t46 209.5v267q0 243 -199 243q-109 0 -221 -69z" />
<glyph unicode="&#x441;" horiz-adv-x="798" d="M92 360v310q0 168 92 272.5t275 104.5q40 0 85.5 -6.5t92 -20t76.5 -39t30 -59.5q0 -28 -20 -49t-49 -21q-15 0 -33 6q-31 16 -50 24t-50.5 15.5t-65.5 7.5q-117 0 -170 -59.5t-53 -175.5v-310q0 -116 53 -175.5t170 -59.5q34 0 65.5 7.5t50.5 15.5t50 24q18 6 33 6 q29 0 49 -20.5t20 -48.5q0 -34 -30 -59.5t-76.5 -39t-92 -20t-85.5 -6.5q-183 0 -275 104t-92 272z" />
<glyph unicode="&#x442;" horiz-adv-x="835" d="M51 958q0 32 21.5 54t52.5 22h586q31 0 52 -22t21 -54t-21 -53.5t-52 -21.5h-213v-820q0 -34 -23 -56.5t-57 -22.5t-57 22.5t-23 56.5v820h-213q-31 0 -52.5 21.5t-21.5 53.5z" />
<glyph unicode="&#x443;" horiz-adv-x="843" d="M33 973q0 32 23 53t57 21q52 0 71 -54l256 -776l224 776q9 26 29 40t44 14q32 0 56 -23t24 -57q0 -9 -4 -25l-250 -813q-25 -81 -41.5 -131t-42 -114t-48 -102.5t-55.5 -80t-68.5 -63.5t-83 -37.5t-103.5 -16.5q-35 0 -58.5 22t-23.5 56q0 29 21 52t55 24 q95 4 147.5 62.5t99.5 203.5l-325 940q-4 6 -4 29z" />
<glyph unicode="&#x444;" horiz-adv-x="1198" d="M92 451v155q0 129 47 228.5t144 159t233 59.5v352q0 33 23.5 56.5t56.5 23.5q34 0 57 -23t23 -57v-352h4q136 0 233 -59.5t144 -159t47 -228.5v-155q0 -207 -110.5 -337t-313.5 -130h-4v-344q0 -34 -23 -57t-57 -23q-33 0 -56.5 23.5t-23.5 56.5v344q-203 0 -313.5 130 t-110.5 337zM252 451q0 -151 67 -235.5t197 -84.5v774q-129 0 -196.5 -78.5t-67.5 -218.5v-157zM676 131h4q130 0 197 84.5t67 235.5v157q0 140 -67.5 218.5t-196.5 78.5h-4v-774z" />
<glyph unicode="&#x445;" horiz-adv-x="882" d="M51 63q0 20 10 35l287 426l-268 406q-12 15 -12 35q0 33 23 57.5t56 24.5q21 0 40 -12.5t28 -24.5t23 -33l206 -318l215 334q17 28 33.5 41t42.5 13q29 0 53.5 -22.5t24.5 -53.5q0 -24 -10 -39l-268 -404l286 -426q10 -15 10 -34q0 -35 -22.5 -59.5t-58.5 -24.5 q-26 0 -42 12t-36 43l-232 356l-241 -370q-25 -41 -66 -41q-34 0 -58 22t-24 57z" />
<glyph unicode="&#x446;" horiz-adv-x="1083" d="M150 80v887q0 34 22.5 57t56.5 23t57 -23t23 -57v-832h434v832q0 34 23 57t57 23t57 -23t23 -57v-832h55q34 0 57 -23t23 -57v-262q0 -34 -23 -57t-57 -23t-56.5 23t-22.5 57v207h-650q-33 0 -56 23.5t-23 56.5z" />
<glyph unicode="&#x447;" horiz-adv-x="958" d="M92 678v289q0 33 23.5 56.5t56.5 23.5t56.5 -23.5t23.5 -56.5v-289q0 -36 6.5 -62.5t24.5 -52.5t55.5 -39.5t93.5 -13.5q70 0 215 29v428q0 33 23.5 56.5t56.5 23.5t56.5 -23.5t23.5 -56.5v-904q0 -34 -23 -56.5t-57 -22.5t-57 22.5t-23 56.5v340q-115 -28 -209 -28 q-346 0 -346 303z" />
<glyph unicode="&#x448;" horiz-adv-x="1443" d="M150 80v887q0 34 22.5 57t56.5 23t57 -23t23 -57v-832h332v832q0 33 23.5 56.5t56.5 23.5t56.5 -23.5t23.5 -56.5v-832h332v832q0 34 22.5 57t56.5 23t57 -23t23 -57v-887q0 -33 -23.5 -56.5t-56.5 -23.5h-983q-33 0 -56 23.5t-23 56.5z" />
<glyph unicode="&#x449;" horiz-adv-x="1470" d="M150 80v887q0 34 22.5 57t56.5 23t57 -23t23 -57v-832h332v832q0 33 23.5 56.5t56.5 23.5t56.5 -23.5t23.5 -56.5v-832h332v832q0 34 22.5 57t56.5 23t57 -23t23 -57v-832h56q34 0 56.5 -23t22.5 -57v-262q0 -34 -22.5 -57t-56.5 -23t-57 23t-23 57v207h-1039 q-33 0 -56 23.5t-23 56.5z" />
<glyph unicode="&#x44a;" horiz-adv-x="1081" d="M20 963q0 30 22 50.5t52 20.5h256q31 0 52.5 -20.5t21.5 -50.5v-351h209q190 0 278 -78.5t88 -232.5q0 -138 -87 -219.5t-253 -81.5h-315q-33 0 -56.5 23.5t-23.5 56.5v811h-170q-31 0 -52.5 20.5t-21.5 51.5zM424 137h231q187 0 187 170t-209 170h-209v-340z" />
<glyph unicode="&#x44b;" horiz-adv-x="1339" d="M150 80v887q0 33 23 56.5t56 23.5t56.5 -23.5t23.5 -56.5v-355h209q190 0 278.5 -79t88.5 -232q0 -138 -87 -219.5t-253 -81.5h-316q-33 0 -56 23.5t-23 56.5zM309 137h232q186 0 186 170t-209 170h-209v-340zM1028 63v904q0 33 23.5 56.5t56.5 23.5t56.5 -23.5 t23.5 -56.5v-904q0 -34 -23 -56.5t-57 -22.5t-57 22.5t-23 56.5z" />
<glyph unicode="&#x44c;" horiz-adv-x="966" d="M150 80v887q0 33 23 56.5t56 23.5t56.5 -23.5t23.5 -56.5v-355h209q190 0 278.5 -79t88.5 -232q0 -138 -87 -219.5t-253 -81.5h-316q-33 0 -56 23.5t-23 56.5zM309 137h232q186 0 186 170t-209 170h-209v-340z" />
<glyph unicode="&#x44d;" horiz-adv-x="804" d="M59 109q0 28 20.5 48.5t49.5 20.5q15 0 33 -6q35 -16 56.5 -24t56.5 -15.5t73 -7.5q203 0 203 256v68h-313q-31 0 -52.5 20.5t-21.5 50.5q0 31 21.5 51.5t52.5 20.5h313v57q0 256 -203 256q-38 0 -73 -7.5t-56.5 -15.5t-56.5 -24q-18 -6 -33 -6q-29 0 -49.5 21t-20.5 49 q0 34 32.5 60t83 39t99 19.5t91.5 6.5q173 0 259.5 -110t86.5 -288v-268q0 -178 -86.5 -287.5t-259.5 -109.5q-43 0 -91.5 6.5t-99 19.5t-83 39t-32.5 60z" />
<glyph unicode="&#x44e;" horiz-adv-x="1394" d="M150 63v904q0 33 23 56.5t56 23.5t56.5 -23.5t23.5 -56.5v-365h226v86q0 160 101 262.5t282 102.5t281.5 -102.5t100.5 -262.5v-340q0 -160 -100.5 -262t-281.5 -102q-182 0 -282.5 102t-100.5 262v119h-226v-404q0 -34 -23 -56.5t-57 -22.5t-56.5 22.5t-22.5 56.5z M694 348q0 -103 57.5 -160t166.5 -57t166 57t57 160v342q0 101 -57 158t-166 57t-166.5 -57t-57.5 -158v-342z" />
<glyph unicode="&#x44f;" horiz-adv-x="997" d="M102 51q0 27 13 47l225 336q-229 49 -229 299q0 138 87 219.5t253 81.5h315q33 0 56.5 -23.5t23.5 -56.5v-891q0 -33 -23 -56t-57 -23t-57 23t-23 56v359h-180l-262 -399q-26 -39 -66 -39q-33 0 -54 18t-22 49zM268 727q0 -170 209 -170h209v340h-231q-187 0 -187 -170z " />
<glyph unicode="&#x450;" horiz-adv-x="886" d="M92 324q0 -149 98 -244.5t267 -95.5q46 0 99 7t107 21.5t89.5 42t35.5 62.5q0 28 -20.5 49.5t-50.5 21.5q-17 0 -29 -6q-44 -20 -69.5 -30t-64 -18.5t-79.5 -8.5q-108 0 -165.5 50t-57.5 138v121q108 -18 209 -18q346 0 346 303q0 156 -86.5 245t-253.5 89 q-178 0 -276.5 -96.5t-98.5 -249.5v-383zM244 1423q0 28 20 48t43 20q13 0 24 -4.5t16 -8t18 -16.5l18 -18l160 -166q10 -12 10 -31q0 -31 -20.5 -51t-47.5 -20q-19 0 -32 8t-33 28l-166 177q-10 13 -10 34zM252 565v156q0 87 56 136.5t155 49.5q186 0 186 -188 q0 -35 -7 -62t-25 -52.5t-56 -39.5t-94 -14q-109 0 -215 14z" />
<glyph unicode="&#x451;" horiz-adv-x="886" d="M92 324q0 -149 98 -244.5t267 -95.5q46 0 99 7t107 21.5t89.5 42t35.5 62.5q0 28 -20.5 49.5t-50.5 21.5q-17 0 -29 -6q-44 -20 -69.5 -30t-64 -18.5t-79.5 -8.5q-108 0 -165.5 50t-57.5 138v121q108 -18 209 -18q346 0 346 303q0 156 -86.5 245t-253.5 89 q-178 0 -276.5 -96.5t-98.5 -249.5v-383zM217 1309q0 39 27.5 67.5t66.5 28.5q41 0 70 -28t29 -68q0 -41 -29 -71t-70 -30q-39 0 -66.5 30.5t-27.5 70.5zM252 565v156q0 87 56 136.5t155 49.5q186 0 186 -188q0 -35 -7 -62t-25 -52.5t-56 -39.5t-94 -14q-109 0 -215 14z M561 1309q0 38 29 67t69 29t68.5 -28t28.5 -68q0 -41 -28.5 -71t-68.5 -30q-39 0 -68.5 30.5t-29.5 70.5z" />
<glyph unicode="&#x452;" horiz-adv-x="1191" d="M51 1241q0 31 22 53.5t54 22.5h178v100q0 32 22.5 56t55.5 24q34 0 57 -23t23 -57v-100h174q31 0 52.5 -22.5t21.5 -53.5t-21.5 -52.5t-52.5 -21.5h-174v-262q114 86 256 86q159 0 239 -103t80 -278v-559q0 -198 -75 -318.5t-213 -146.5q-16 -2 -39 -2q-25 0 -43.5 14.5 t-24.5 39.5q-9 37 12 59.5t50 28.5q87 26 130.5 99.5t43.5 217.5v565q0 119 -42.5 176.5t-136.5 57.5q-67 0 -131 -30t-106 -87v-662q0 -34 -22 -56.5t-56 -22.5t-57 22.5t-23 56.5v1104h-178q-32 0 -54 21.5t-22 52.5z" />
<glyph unicode="&#x453;" horiz-adv-x="761" d="M150 63v900q0 31 21 51t52 20h461q30 0 52 -20.5t22 -50.5q0 -31 -21.5 -51.5t-52.5 -20.5h-375v-828q0 -34 -23 -56.5t-57 -22.5t-56.5 22.5t-22.5 56.5zM387 1247q0 19 10 31l160 166l15 15t14 13.5t12.5 9.5t15.5 7t19 2q23 0 43 -20t20 -48q0 -21 -10 -34l-166 -177 q-16 -15 -22.5 -20.5t-18 -10.5t-24.5 -5q-29 0 -48.5 20t-19.5 51z" />
<glyph unicode="&#x454;" horiz-adv-x="798" d="M92 381v268q0 178 86.5 288t259.5 110q43 0 91.5 -6.5t98.5 -19.5t82.5 -39t32.5 -60q0 -28 -20 -49t-49 -21q-15 0 -33 6q-35 16 -56.5 24t-56.5 15.5t-73 7.5q-203 0 -203 -256v-57h313q31 0 52.5 -20.5t21.5 -51.5q0 -30 -21.5 -50.5t-52.5 -20.5h-313v-68 q0 -256 203 -256q38 0 73 7.5t56.5 15.5t56.5 24q18 6 33 6q29 0 49 -20.5t20 -48.5q0 -34 -32.5 -60t-82.5 -39t-98.5 -19.5t-91.5 -6.5q-173 0 -259.5 109.5t-86.5 287.5z" />
<glyph unicode="&#x455;" horiz-adv-x="851" d="M96 102q0 29 20.5 51.5t55.5 22.5q9 0 21 -4q116 -47 204 -47q89 0 139 37t50 114q0 51 -20 79t-56 48q-26 14 -74 31.5t-88 31.5t-86 39.5t-78 56t-53.5 81.5t-21.5 115q0 135 86 215t245 80q43 0 88 -6t88 -19t70 -36t27 -54q0 -30 -21 -52t-53 -22q-17 0 -37 10 q-80 37 -156 37q-182 0 -182 -143q0 -47 21.5 -75.5t74.5 -55.5q29 -15 92 -37t105 -42t88.5 -54.5t71 -89.5t24.5 -131q0 -140 -88.5 -219.5t-255.5 -79.5q-44 0 -91.5 5.5t-97 18t-81 37t-31.5 57.5z" />
<glyph unicode="&#x456;" horiz-adv-x="501" d="M152 1368q0 41 28.5 69.5t69.5 28.5t69.5 -28.5t28.5 -69.5q0 -40 -28.5 -69t-69.5 -29t-69.5 29t-28.5 69zM170 63v904q0 33 23.5 56.5t56.5 23.5t56.5 -23.5t23.5 -56.5v-904q0 -34 -23 -56.5t-57 -22.5t-57 22.5t-23 56.5z" />
<glyph unicode="&#x457;" horiz-adv-x="501" d="M-49 1268q0 43 31 74.5t75 31.5q46 0 77.5 -31t31.5 -75q0 -46 -31.5 -78.5t-77.5 -32.5q-44 0 -75 33t-31 78zM170 63v904q0 33 23.5 56.5t56.5 23.5t56.5 -23.5t23.5 -56.5v-904q0 -34 -23 -56.5t-57 -22.5t-57 22.5t-23 56.5zM334 1268q0 43 32 74.5t76 31.5 q45 0 77 -31t32 -75q0 -46 -32.5 -78.5t-76.5 -32.5t-76 33t-32 78z" />
<glyph unicode="&#x458;" horiz-adv-x="501" d="M-39 -362q-9 37 12 59.5t50 28.5q88 20 131 73.5t43 161.5v1006q0 33 23 56.5t56 23.5t56.5 -23.5t23.5 -56.5v-998q0 -162 -75 -262.5t-213 -120.5q-16 -2 -39 -2q-25 0 -43.5 14.5t-24.5 39.5zM178 1368q0 41 28.5 69.5t69.5 28.5t70 -28.5t29 -69.5q0 -40 -29 -69 t-70 -29t-69.5 29t-28.5 69z" />
<glyph unicode="&#x459;" horiz-adv-x="1509" d="M33 61q0 38 22.5 58t53.5 20q6 0 12.5 -1t13.5 -1q55 0 82 44.5t35 140.5l53 632q4 40 27.5 60t50.5 20h430q33 0 56.5 -23.5t23.5 -56.5v-342h168q190 0 278 -78.5t88 -232.5q0 -138 -87 -219.5t-253 -81.5h-274q-33 0 -56.5 23.5t-23.5 56.5v819h-284l-46 -565 q-27 -344 -245 -344q-24 0 -37.5 0.5t-33 4.5t-29.5 11t-17.5 21t-7.5 34zM893 137h190q187 0 187 170t-209 170h-168v-340z" />
<glyph unicode="&#x45a;" horiz-adv-x="1478" d="M150 63v904q0 33 23 56.5t56 23.5t56.5 -23.5t23.5 -56.5v-365h393v365q0 33 23.5 56.5t56.5 23.5t56.5 -23.5t23.5 -56.5v-365h168q190 0 278.5 -76t88.5 -225q0 -138 -87 -219.5t-253 -81.5h-275q-33 0 -56.5 23.5t-23.5 56.5v387h-393v-404q0 -34 -23 -56.5t-57 -22.5 t-56.5 22.5t-22.5 56.5zM862 137h191q186 0 186 170q0 33 -8.5 58.5t-29.5 50t-64.5 38t-106.5 13.5h-168v-330z" />
<glyph unicode="&#x45b;" horiz-adv-x="1191" d="M51 1241q0 31 22 53.5t54 22.5h178v100q0 32 22.5 56t55.5 24q34 0 57 -23t23 -57v-100h174q31 0 52.5 -22.5t21.5 -53.5t-21.5 -52.5t-52.5 -21.5h-174v-262q114 86 256 86q159 0 239 -92t80 -248v-588q0 -33 -23.5 -56t-56.5 -23q-34 0 -56.5 22.5t-22.5 56.5v586 q0 97 -42.5 145t-136.5 48q-67 0 -131 -30t-106 -87v-662q0 -34 -22 -56.5t-56 -22.5t-57 22.5t-23 56.5v1104h-178q-32 0 -54 21.5t-22 52.5z" />
<glyph unicode="&#x45c;" horiz-adv-x="892" d="M150 63v904q0 33 23 56.5t56 23.5t56.5 -23.5t23.5 -56.5v-365h125l266 404q23 38 66 38q31 0 53 -18.5t23 -48.5q0 -27 -13 -47l-280 -416l280 -416q13 -19 13 -47q-1 -30 -23 -48.5t-53 -18.5q-43 0 -66 39l-292 444h-99v-404q0 -34 -23 -56.5t-57 -22.5t-56.5 22.5 t-22.5 56.5zM428 1247q0 19 10 31l160 166l15 15t14 13.5t12.5 9.5t15.5 7t19 2q23 0 43 -20t20 -48q0 -21 -10 -34l-166 -177q-16 -15 -22.5 -20.5t-18 -10.5t-24.5 -5q-28 0 -48 20t-20 51z" />
<glyph unicode="&#x45d;" horiz-adv-x="1085" d="M150 70q0 -37 25.5 -63.5t64.5 -26.5q53 0 82 47l452 727v-691q0 -34 23.5 -58.5t56.5 -24.5t56.5 24.5t23.5 58.5v895q0 39 -24 65t-62 26q-58 0 -84 -50l-455 -725v691q0 34 -24 59t-58 25q-33 0 -55 -25t-22 -59v-895zM338 1423q0 28 20 48t43 20q13 0 24 -4.5t16 -8 t18 -16.5l18 -18l160 -166q10 -12 10 -31q0 -31 -20 -51t-47 -20q-30 0 -66 36l-166 177q-10 13 -10 34z" />
<glyph unicode="&#x45e;" horiz-adv-x="843" d="M33 973q0 32 23 53t57 21q52 0 71 -54l256 -776l224 776q9 26 29 40t44 14q32 0 56 -23t24 -57q0 -9 -4 -25l-250 -813q-25 -81 -41.5 -131t-42 -114t-48 -102.5t-55.5 -80t-68.5 -63.5t-83 -37.5t-103.5 -16.5q-35 0 -58.5 22t-23.5 56q0 29 21 52t55 24 q95 4 147.5 62.5t99.5 203.5l-325 940q-4 6 -4 29zM172 1337q-8 37 9 56.5t46 19.5q42 0 62 -33q59 -84 133 -84t133 84q20 33 61 33q29 0 46.5 -19.5t7.5 -56.5q-19 -77 -94.5 -121.5t-153.5 -44.5t-154 44.5t-96 121.5z" />
<glyph unicode="&#x45f;" horiz-adv-x="1032" d="M150 80v891q0 34 22.5 57t56.5 23t57 -23t23 -57v-836h414v836q0 34 23 57t57 23t57 -23t23 -57v-891q0 -33 -23.5 -56.5t-56.5 -23.5h-207v-207q0 -34 -23 -57t-57 -23t-57 23t-23 57v207h-207q-33 0 -56 23.5t-23 56.5z" />
<glyph unicode="&#x462;" horiz-adv-x="1318" d="M51 1262q0 30 24.5 55.5t57.5 25.5h197v142q0 33 24.5 57.5t57.5 24.5t57.5 -24.5t24.5 -57.5v-142h360q33 0 58.5 -23t25.5 -56q0 -32 -25 -56t-59 -24h-360v-312h235q214 0 337.5 -113t123.5 -319q0 -90 -25 -166t-77.5 -139t-144 -99t-214.5 -36h-301q-40 0 -69 29 t-29 69v1086h-197q-34 0 -58 24t-24 54zM494 160h235q297 0 297 278q0 275 -297 275h-235v-553z" />
<glyph unicode="&#x463;" horiz-adv-x="1191" d="M51 1141q0 31 22 52t54 21h178v183q0 34 23 57t57 23t57 -23t23 -57v-183h172q31 0 52.5 -22t21.5 -53t-21.5 -52.5t-52.5 -21.5h-172v-350h209q366 0 366 -348q0 -170 -87 -268.5t-253 -98.5h-315q-33 0 -56.5 23.5t-23.5 56.5v985h-178q-32 0 -54 22.5t-22 53.5z M465 137h231q187 0 187 228q0 34 -4.5 62.5t-18 58t-36 49.5t-61 32.5t-89.5 12.5h-209v-443z" />
<glyph unicode="&#x490;" horiz-adv-x="880" d="M150 63v1291q0 35 27 63.5t65 28.5h473v186q0 33 24.5 57.5t57.5 24.5t57.5 -24.5t24.5 -57.5v-266q0 -34 -23 -57t-57 -23h-486v-1223q0 -33 -24.5 -57t-57.5 -24t-57 24t-24 57z" />
<glyph unicode="&#x491;" horiz-adv-x="768" d="M150 63v900q0 31 21 51t52 20h381v199q0 34 23 57t57 23t57 -23t23 -57v-262q0 -34 -23 -57t-57 -23h-375v-828q0 -34 -23 -56.5t-57 -22.5t-56.5 22.5t-22.5 56.5z" />
<glyph unicode="&#x1e80;" horiz-adv-x="1589" d="M31 1384q0 32 28.5 52t63.5 20q26 0 46.5 -15t27.5 -44l254 -1092l237 1041q15 63 36.5 90.5t70.5 27.5q46 0 68.5 -29t35.5 -89l238 -1041l254 1092q19 59 69 59q37 0 68 -19.5t31 -54.5q0 -2 -1 -5t-2 -8t-2 -9l-305 -1266q-12 -50 -38.5 -82t-69.5 -32t-71 33.5 t-40 82.5l-235 1030l-238 -1032q-30 -114 -108 -114q-42 0 -71 32.5t-40 81.5l-305 1268zM639 1833q0 28 20 48t43 20q13 0 24 -4.5t16.5 -8.5t17.5 -16.5t18 -18.5l160 -165q10 -12 10 -31q0 -31 -20 -51.5t-47 -20.5q-29 0 -66 37l-166 176q-10 12 -10 35z" />
<glyph unicode="&#x1e81;" horiz-adv-x="1341" d="M51 971q0 30 23.5 53t56.5 23q26 0 46.5 -15.5t27.5 -42.5l192 -753q119 467 185 739q8 32 32 52t60 20q34 0 57 -20t31 -52q23 -96 186 -739l191 753q6 25 26.5 41.5t46.5 16.5q31 0 54.5 -23.5t23.5 -56.5q0 -2 -1 -7.5t-1 -7.5l-235 -876q-14 -48 -37 -70t-66 -22 q-33 0 -59 18t-35 51l-184 719l-183 -719q-20 -69 -96 -69t-102 92l-238 882q-2 4 -2 13zM516 1423q0 28 20.5 48t43.5 20q13 0 24 -4.5t16 -8.5t17 -16l18 -18l160 -166q10 -12 10 -31q0 -31 -20 -51t-47 -20q-30 0 -66 36l-166 177q-10 13 -10 34z" />
<glyph unicode="&#x1e82;" horiz-adv-x="1589" d="M31 1384q0 32 28.5 52t63.5 20q26 0 46.5 -15t27.5 -44l254 -1092l237 1041q15 63 36.5 90.5t70.5 27.5q46 0 68.5 -29t35.5 -89l238 -1041l254 1092q19 59 69 59q37 0 68 -19.5t31 -54.5q0 -2 -1 -5t-2 -8t-2 -9l-305 -1266q-12 -50 -38.5 -82t-69.5 -32t-71 33.5 t-40 82.5l-235 1030l-238 -1032q-30 -114 -108 -114q-42 0 -71 32.5t-40 81.5l-305 1268zM639 1657q0 19 10 31l160 166l18 18t17 16t16 8.5t24 4.5q23 0 43.5 -20t20.5 -48q0 -21 -10 -34l-166 -177q-16 -14 -23 -20t-18.5 -11t-24.5 -5q-28 0 -47.5 19.5t-19.5 51.5z" />
<glyph unicode="&#x1e83;" horiz-adv-x="1341" d="M51 971q0 30 23.5 53t56.5 23q26 0 46.5 -15.5t27.5 -42.5l192 -753q119 467 185 739q8 32 32 52t60 20q34 0 57 -20t31 -52q23 -96 186 -739l191 753q6 25 26.5 41.5t46.5 16.5q31 0 54.5 -23.5t23.5 -56.5q0 -2 -1 -7.5t-1 -7.5l-235 -876q-14 -48 -37 -70t-66 -22 q-33 0 -59 18t-35 51l-184 719l-183 -719q-20 -69 -96 -69t-102 92l-238 882q-2 4 -2 13zM516 1247q0 19 10 31l160 166l18 18t17 16t16 8.5t24 4.5q23 0 43.5 -20t20.5 -48q0 -21 -10 -34l-166 -177q-16 -14 -23 -20t-18.5 -11t-24.5 -5q-28 0 -47.5 19.5t-19.5 51.5z" />
<glyph unicode="&#x1e84;" horiz-adv-x="1589" d="M31 1384q0 32 28.5 52t63.5 20q26 0 46.5 -15t27.5 -44l254 -1092l237 1041q15 63 36.5 90.5t70.5 27.5q46 0 68.5 -29t35.5 -89l238 -1041l254 1092q19 59 69 59q37 0 68 -19.5t31 -54.5q0 -2 -1 -5t-2 -8t-2 -9l-305 -1266q-12 -50 -38.5 -82t-69.5 -32t-71 33.5 t-40 82.5l-235 1030l-238 -1032q-30 -114 -108 -114q-42 0 -71 32.5t-40 81.5l-305 1268zM524 1719q0 39 28 67.5t67 28.5q41 0 69.5 -28t28.5 -68q0 -42 -28.5 -71.5t-69.5 -29.5q-39 0 -67 30.5t-28 70.5zM869 1719q0 38 29 67t69 29t68 -28t28 -68q0 -41 -28 -71t-68 -30 q-39 0 -68.5 30.5t-29.5 70.5z" />
<glyph unicode="&#x1e85;" horiz-adv-x="1341" d="M51 971q0 30 23.5 53t56.5 23q26 0 46.5 -15.5t27.5 -42.5l192 -753q119 467 185 739q8 32 32 52t60 20q34 0 57 -20t31 -52q23 -96 186 -739l191 753q6 25 26.5 41.5t46.5 16.5q31 0 54.5 -23.5t23.5 -56.5q0 -2 -1 -7.5t-1 -7.5l-235 -876q-14 -48 -37 -70t-66 -22 q-33 0 -59 18t-35 51l-184 719l-183 -719q-20 -69 -96 -69t-102 92l-238 882q-2 4 -2 13zM401 1309q0 39 28 67.5t67 28.5q41 0 69.5 -28t28.5 -68q0 -42 -28.5 -71.5t-69.5 -29.5q-39 0 -67 30.5t-28 70.5zM746 1309q0 38 29 67t69 29t68 -28t28 -68q0 -41 -28 -71t-68 -30 q-39 0 -68.5 30.5t-29.5 70.5z" />
<glyph unicode="&#x1ef2;" horiz-adv-x="974" d="M31 1380q0 33 25.5 58.5t58.5 25.5q46 0 63 -32l309 -674l310 674q17 32 63 32q33 0 58.5 -25.5t25.5 -58.5q0 -19 -8 -39l-365 -778v-497q0 -34 -24.5 -60t-59.5 -26t-59.5 25.5t-24.5 60.5v501l-364 774q-8 20 -8 39zM272 1833q0 28 20.5 48t43.5 20q13 0 24 -4.5 t16 -8t18 -16.5l18 -18l159 -166q11 -14 11 -31q0 -31 -20.5 -51t-47.5 -20q-30 0 -66 36l-165 177q-11 14 -11 34z" />
<glyph unicode="&#x1ef3;" horiz-adv-x="843" d="M33 973q0 32 23 53t57 21q52 0 71 -54l256 -776l224 776q9 26 29 40t44 14q32 0 56 -23t24 -57q0 -9 -4 -25l-250 -813q-25 -81 -41.5 -131t-42 -114t-48 -102.5t-55.5 -80t-68.5 -63.5t-83 -37.5t-103.5 -16.5q-35 0 -58.5 22t-23.5 56q0 29 21 52t55 24 q95 4 147.5 62.5t99.5 203.5l-325 940q-4 6 -4 29zM266 1423q0 28 20.5 48t43.5 20q13 0 24 -4.5t16 -8t18 -16.5l18 -18l159 -166q11 -14 11 -31q0 -31 -20.5 -51t-47.5 -20q-30 0 -66 36l-165 177q-11 14 -11 34z" />
<glyph unicode="&#x2000;" horiz-adv-x="966" />
<glyph unicode="&#x2001;" horiz-adv-x="1932" />
<glyph unicode="&#x2002;" horiz-adv-x="966" />
<glyph unicode="&#x2003;" horiz-adv-x="1932" />
<glyph unicode="&#x2004;" horiz-adv-x="644" />
<glyph unicode="&#x2005;" horiz-adv-x="483" />
<glyph unicode="&#x2006;" horiz-adv-x="322" />
<glyph unicode="&#x2007;" horiz-adv-x="322" />
<glyph unicode="&#x2008;" horiz-adv-x="241" />
<glyph unicode="&#x2009;" horiz-adv-x="386" />
<glyph unicode="&#x200a;" horiz-adv-x="107" />
<glyph unicode="&#x2010;" horiz-adv-x="817" d="M78 604q0 31 22 53.5t54 22.5h510q30 0 51.5 -22.5t21.5 -53.5t-21 -52.5t-52 -21.5h-510q-32 0 -54 21.5t-22 52.5z" />
<glyph unicode="&#x2011;" horiz-adv-x="817" d="M78 604q0 31 22 53.5t54 22.5h510q30 0 51.5 -22.5t21.5 -53.5t-21 -52.5t-52 -21.5h-510q-32 0 -54 21.5t-22 52.5z" />
<glyph unicode="&#x2012;" horiz-adv-x="817" d="M78 604q0 31 22 53.5t54 22.5h510q30 0 51.5 -22.5t21.5 -53.5t-21 -52.5t-52 -21.5h-510q-32 0 -54 21.5t-22 52.5z" />
<glyph unicode="&#x2013;" horiz-adv-x="882" d="M78 588q0 31 22 53.5t54 22.5h573q32 0 54 -22.5t22 -53.5t-22.5 -52.5t-53.5 -21.5h-573q-32 0 -54 21.5t-22 52.5z" />
<glyph unicode="&#x2014;" horiz-adv-x="1085" d="M78 588q0 31 22 53.5t54 22.5h778q32 0 54 -22.5t22 -53.5t-22.5 -52.5t-53.5 -21.5h-778q-32 0 -54 21.5t-22 52.5z" />
<glyph unicode="&#x2018;" horiz-adv-x="471" d="M125 1149q0 65 27.5 146t64.5 135.5t64 54.5q38 0 38 -35q0 -36 -32 -93.5t-43 -94.5q43 -5 71.5 -37t28.5 -76t-32.5 -76.5t-78.5 -32.5q-44 0 -76 32.5t-32 76.5z" />
<glyph unicode="&#x2019;" horiz-adv-x="471" d="M125 1376q0 44 32.5 76.5t78.5 32.5q44 0 76 -32.5t32 -76.5q0 -65 -27.5 -146t-64.5 -135.5t-64 -54.5q-38 0 -38 35q0 36 32 94.5t43 94.5q-43 5 -71.5 36.5t-28.5 75.5z" />
<glyph unicode="&#x201a;" horiz-adv-x="471" d="M125 92q0 44 32.5 76.5t78.5 32.5q44 0 76 -32.5t32 -76.5q0 -65 -27.5 -146t-64.5 -135.5t-64 -54.5q-38 0 -38 35q0 36 32 94.5t43 94.5q-43 5 -71.5 36.5t-28.5 75.5z" />
<glyph unicode="&#x201c;" horiz-adv-x="755" d="M125 1149q0 65 27.5 146t64.5 135.5t64 54.5q38 0 38 -35q0 -36 -32 -93.5t-43 -94.5q43 -5 71.5 -37t28.5 -76t-32.5 -76.5t-78.5 -32.5q-44 0 -76 32.5t-32 76.5zM412 1149q0 65 27.5 146t64.5 135.5t63 54.5q39 0 39 -35q0 -36 -32.5 -93.5t-43.5 -94.5q43 -5 72 -37 t29 -76t-32.5 -76.5t-78.5 -32.5q-44 0 -76 32.5t-32 76.5z" />
<glyph unicode="&#x201d;" horiz-adv-x="755" d="M125 1376q0 44 32.5 76.5t78.5 32.5q44 0 76 -32.5t32 -76.5q0 -65 -28 -146t-65 -135.5t-63 -54.5q-38 0 -38 35q0 36 32 94.5t43 94.5q-43 5 -71.5 36.5t-28.5 75.5zM412 1376q0 44 32 76.5t78 32.5q44 0 76.5 -32.5t32.5 -76.5q0 -65 -27.5 -146t-64.5 -135.5 t-64 -54.5q-39 0 -39 35q0 36 32.5 94t43.5 95q-43 5 -71.5 36.5t-28.5 75.5z" />
<glyph unicode="&#x201e;" horiz-adv-x="755" d="M125 92q0 46 32.5 77.5t78.5 31.5q44 0 76 -32.5t32 -76.5q0 -65 -28 -146t-65 -135.5t-63 -54.5q-38 0 -38 35q0 37 32.5 95t42.5 94q-43 3 -71.5 35.5t-28.5 76.5zM412 92q0 46 32 77.5t78 31.5q44 0 76.5 -32.5t32.5 -76.5q0 -65 -27.5 -146t-64.5 -135.5t-64 -54.5 q-39 0 -39 35q0 37 32.5 95t43.5 94q-43 3 -71.5 35.5t-28.5 76.5z" />
<glyph unicode="&#x2020;" horiz-adv-x="884" d="M-20 971q0 31 21 52t52 21h307v332q0 29 2 43q6 28 28 47t50 19q29 0 51 -19t27 -47q4 -28 4 -43v-332h307q10 0 19 -6q23 -5 39 -23.5t16 -43.5q0 -30 -22 -52t-52 -22h-307v-1026q0 -17 -4 -45q-5 -27 -27 -45.5t-51 -18.5q-27 0 -49.5 18.5t-28.5 45.5q-2 14 -2 45 v1026h-307q-8 0 -20 4q-24 6 -38.5 25t-14.5 45z" />
<glyph unicode="&#x2021;" horiz-adv-x="1175" d="M117 82q0 32 22 53t54 21h305v741h-305q-32 0 -54 21.5t-22 52.5t22 53.5t54 22.5h305v356q0 8 4 16q5 28 27 47t51 19q34 0 58 -24t24 -58v-356h305q31 0 53 -22.5t22 -53.5t-22 -52.5t-53 -21.5h-305v-741h305q31 0 53 -21t22 -53q0 -31 -22 -52.5t-53 -21.5h-305v-350 q0 -9 -5 -39q-6 -27 -28 -45t-49 -18q-29 0 -51 18t-27 45q-4 24 -4 39v350h-305q-32 0 -54 21.5t-22 52.5z" />
<glyph unicode="&#x2022;" horiz-adv-x="620" d="M152 561q0 65 46.5 111.5t110.5 46.5q66 0 113 -46.5t47 -111.5q0 -66 -47 -113t-113 -47q-65 0 -111 47t-46 113z" />
<glyph unicode="&#x2026;" horiz-adv-x="1193" d="M125 90q0 46 32 78.5t76 32.5q46 0 78.5 -32.5t32.5 -78.5q0 -44 -33 -77t-78 -33q-44 0 -76 33t-32 77zM485 90q0 45 33 78t78 33q46 0 78.5 -32.5t32.5 -78.5q0 -44 -32.5 -77t-78.5 -33q-44 0 -77.5 33t-33.5 77zM850 90q0 46 32 78.5t76 32.5q46 0 78.5 -32.5 t32.5 -78.5q0 -44 -32.5 -77t-78.5 -33q-44 0 -76 33t-32 77z" />
<glyph unicode="&#x202f;" horiz-adv-x="386" />
<glyph unicode="&#x2039;" horiz-adv-x="651" d="M84 524l311 469q17 28 33.5 41t42.5 13q29 0 53.5 -22.5t24.5 -53.5q0 -24 -10 -39l-269 -404l287 -426q10 -15 10 -34q0 -35 -23 -59.5t-59 -24.5q-26 0 -41.5 12t-35.5 43z" />
<glyph unicode="&#x203a;" horiz-adv-x="651" d="M84 68q0 19 10 34l287 426l-268 404q-11 16 -11 39q0 31 24.5 53.5t53.5 22.5q26 0 42.5 -13t33.5 -41l311 -469l-323 -485q-20 -31 -36 -43t-42 -12q-36 0 -59 24.5t-23 59.5z" />
<glyph unicode="&#x2044;" horiz-adv-x="325" d="M-121 14q0 15 2 35l475 1333q6 25 21.5 37.5t34.5 7.5q17 -5 27 -22t7 -37q0 -23 -2 -33l-475 -1337q-6 -25 -21 -37.5t-34 -7.5q-17 5 -27.5 22.5t-7.5 38.5z" />
<glyph unicode="&#x205f;" horiz-adv-x="483" />
<glyph unicode="&#x2070;" d="M37 1006v297q0 106 55 173.5t160 67.5t157 -67t52 -174v-297q0 -96 -55 -157t-154 -61q-100 0 -157.5 61.5t-57.5 156.5zM139 1006q0 -57 29.5 -91t83.5 -34q53 0 83 34t30 91v305q0 139 -113 139t-113 -139v-305z" />
<glyph unicode="&#x2074;" d="M25 999q4 17 10 27l196 485q5 12 16 21.5t23 9.5q19 0 34 -15t15 -38q0 -12 -2 -16q-20 -50 -80 -202t-92 -231h172v187q0 22 14.5 35.5t37.5 13.5q21 0 35 -14t14 -35v-187h31q20 0 33.5 -13.5t13.5 -33.5q0 -19 -13.5 -33t-33.5 -14h-31v-112q0 -19 -14.5 -32.5 t-34.5 -13.5q-23 0 -37.5 13.5t-14.5 32.5v112h-239q-24 0 -38.5 15.5t-14.5 37.5z" />
<glyph unicode="&#x2075;" d="M41 868q0 22 14 37t35 15q10 0 27 -11q54 -30 110 -30q71 0 102 41.5t31 103.5q0 71 -32 107t-84 36q-33 0 -66 -20l-26 -17q-20 -12 -33 -12q-21 0 -35.5 15t-13.5 36l6 299q0 26 18.5 42t40.5 16h242q23 0 39 -12.5t16 -38.5q0 -23 -16 -34t-39 -11h-209l-8 -195 q41 20 86 20q97 0 155 -60t58 -167q0 -97 -53.5 -168.5t-157.5 -71.5q-22 0 -51.5 3t-67.5 10.5t-63 25t-25 41.5z" />
<glyph unicode="&#x2076;" d="M29 1139q0 194 58.5 294.5t174.5 100.5q19 0 41.5 -2.5t53.5 -8.5t51 -21t20 -36q0 -18 -13.5 -31.5t-33.5 -13.5l-25 6q-50 13 -80 13q-136 0 -143 -221q58 34 127 34q93 0 151 -58.5t58 -170.5q0 -103 -56 -169.5t-161 -66.5q-120 0 -171.5 92.5t-51.5 258.5zM131 1085 q0 -200 125 -200q61 0 89 39.5t28 97.5q0 69 -31 103t-86 34q-27 0 -63.5 -17.5t-61.5 -39.5v-17z" />
<glyph unicode="&#x2077;" d="M39 1473q0 23 14 38t37 15h324q18 0 32.5 -16t14.5 -40q0 -10 -4 -26l-248 -629q-3 -9 -17.5 -18t-27.5 -9q-19 0 -35.5 14.5t-13.5 37.5q2 8 4 12l231 573h-260q-22 0 -36.5 14t-14.5 34z" />
<glyph unicode="&#x2078;" d="M18 997q0 60 31 107t84 76q-92 68 -92 161q0 86 61 139.5t148 53.5q88 0 146.5 -54t58.5 -137q0 -101 -82 -157q108 -69 108 -185q0 -94 -63.5 -153.5t-165.5 -59.5t-168 58.5t-66 150.5zM117 1001q0 -52 39 -87t96 -35t95 36t38 89q0 50 -40.5 84.5t-96.5 48.5 q-55 -16 -93 -52.5t-38 -83.5zM141 1339q0 -47 31.5 -76.5t77.5 -37.5q46 11 78 42t32 72q0 46 -31 73.5t-77 27.5q-47 0 -79 -27.5t-32 -73.5z" />
<glyph unicode="&#x2079;" d="M29 1292q0 107 55 174.5t162 67.5q64 0 108.5 -25t69 -75t35 -113t10.5 -150q0 -192 -56 -287.5t-173 -95.5q-18 0 -41 2t-53.5 7.5t-50.5 19t-21 31.5q-1 29 13.5 44t35.5 7l27 -10q23 -10 77 -10q137 0 144 221q-51 -35 -127 -35q-93 0 -154 59t-61 168zM131 1292 q0 -64 31.5 -96.5t85.5 -32.5q66 0 123 49v17q0 205 -127 205q-59 0 -86 -40t-27 -102z" />
<glyph unicode="&#x207d;" horiz-adv-x="282" d="M53 1147q0 104 33 228t88 220q14 29 39 29q22 0 34.5 -17t12.5 -38q0 -12 -8 -25l-2 -4q-94 -167 -94 -393q0 -219 96 -393q8 -16 8 -25q0 -20 -12.5 -34.5t-34.5 -14.5q-24 0 -39 22q-57 95 -89 217t-32 228z" />
<glyph unicode="&#x207e;" horiz-adv-x="280" d="M12 729q7 15 15 29q94 180 94 389q0 228 -98 397l-3 4q-8 11 -8 21q0 21 13.5 38t37.5 17q21 0 43 -29q54 -96 83.5 -214.5t29.5 -233.5q0 -255 -113 -445q-17 -22 -43 -22q-25 0 -38 14.5t-13 34.5z" />
<glyph unicode="&#x2080;" d="M37 121v297q0 106 55 173.5t160 67.5t157 -67t52 -174v-297q0 -96 -54.5 -156.5t-154.5 -60.5t-157.5 61t-57.5 156zM139 121q0 -57 29.5 -91t83.5 -34q53 0 83 34t30 91v305q0 139 -113 139t-113 -139v-305z" />
<glyph unicode="&#x2081;" d="M57 469q0 25 27 45l199 125q15 10 28 10q22 0 36.5 -15.5t14.5 -39.5v-645q0 -18 -14.5 -31.5t-34.5 -13.5q-23 0 -38 13.5t-15 31.5v569l-106 -74q-29 -18 -48 -18q-20 0 -34.5 13t-14.5 30z" />
<glyph unicode="&#x2082;" d="M33 -39q0 23 10 43q18 43 51 88t58 71t71 70q8 9 42.5 45t45.5 50q54 50 54 116q0 55 -29.5 88t-85.5 33q-38 0 -90 -18l-27 -12q-25 -15 -39 -15q-18 0 -34.5 12.5t-16.5 30.5q0 23 12 35q95 61 195 61q98 0 154.5 -57t56.5 -145q0 -111 -70 -195q-7 -9 -65 -67l-21 -21 q-106 -98 -145 -166h260q18 0 31.5 -15t13.5 -36q0 -19 -13.5 -31t-31.5 -12h-332q-25 0 -40 12.5t-15 34.5z" />
<glyph unicode="&#x2083;" d="M41 -16q0 22 13.5 36.5t35.5 14.5q7 0 31 -12q52 -29 106 -29q70 0 101.5 41.5t31.5 99.5q0 63 -34.5 93t-92.5 30q-22 0 -34 -6l-6 -4q-2 -2 -17 -2q-27 0 -39.5 25t4.5 48l168 222h-203q-23 0 -38 12.5t-15 32.5q0 23 15 39t38 16h281q23 0 36 -15.5t13 -43.5 q0 -29 -6 -35l-160 -205q82 -6 135.5 -61.5t53.5 -143.5q0 -56 -20.5 -107t-70.5 -88.5t-122 -37.5q-22 0 -50.5 3t-66.5 10.5t-63 25t-25 41.5z" />
<glyph unicode="&#x2084;" d="M25 115q4 16 10 26l196 486q5 12 16 21t23 9q19 0 34 -15t15 -38q0 -12 -2 -16q-19 -47 -79 -200t-93 -232h172v186q0 22 14.5 35.5t37.5 13.5q21 0 35 -14t14 -35v-186h31q20 0 33.5 -13.5t13.5 -33.5q0 -19 -13.5 -33.5t-33.5 -14.5h-31v-112q0 -19 -14.5 -32 t-34.5 -13q-23 0 -37.5 13t-14.5 32v112h-239q-24 0 -38.5 15.5t-14.5 38.5z" />
<glyph unicode="&#x2085;" d="M41 -16q0 22 13.5 36.5t35.5 14.5q12 0 27 -10q55 -31 110 -31q71 0 102 41.5t31 103.5q0 71 -32 107.5t-84 36.5q-31 0 -66 -21l-26 -16q-22 -13 -33 -13q-21 0 -35.5 15.5t-13.5 36.5l6 299q0 26 18.5 41.5t40.5 15.5h242q23 0 39 -12.5t16 -38.5q0 -23 -16 -34 t-39 -11h-209l-8 -195q43 21 86 21q97 0 155 -60.5t58 -167.5q0 -61 -20.5 -113.5t-70 -89t-120.5 -36.5q-22 0 -51.5 3t-67.5 10.5t-63 25t-25 41.5z" />
<glyph unicode="&#x2086;" d="M29 254q0 194 58.5 294.5t174.5 100.5q19 0 41.5 -2t53.5 -8t51 -21t20 -36q0 -18 -13.5 -31.5t-33.5 -13.5l-25 6q-46 12 -80 12q-136 0 -143 -221q59 35 127 35q92 0 150.5 -59t58.5 -171q0 -102 -56 -168.5t-161 -66.5q-62 0 -106 25.5t-69.5 73.5t-36.5 109.5 t-11 141.5zM131 201q0 -201 125 -201q61 0 89 39.5t28 97.5q0 69 -31 103t-86 34q-27 0 -63.5 -17.5t-61.5 -39.5v-16z" />
<glyph unicode="&#x2087;" d="M39 588q0 23 14 38t37 15h324q18 0 32.5 -15.5t14.5 -39.5q0 -11 -4 -27l-248 -629q-3 -9 -17.5 -17.5t-27.5 -8.5q-20 0 -36 14t-13 37q2 8 4 12l231 574h-260q-22 0 -36.5 13.5t-14.5 33.5z" />
<glyph unicode="&#x2088;" d="M18 113q0 118 115 182q-92 68 -92 162q0 85 61 138.5t148 53.5q88 0 146.5 -53.5t58.5 -136.5q0 -102 -82 -158q108 -69 108 -184q0 -94 -63.5 -153.5t-165.5 -59.5t-168 58.5t-66 150.5zM117 117q0 -52 39 -87.5t96 -35.5t95 36t38 89q0 50 -40.5 84.5t-96.5 48.5 q-55 -16 -93 -52t-38 -83zM141 455q0 -47 31.5 -77t77.5 -38q45 11 77.5 42.5t32.5 72.5q0 46 -31 73t-77 27q-47 0 -79 -27t-32 -73z" />
<glyph unicode="&#x2089;" d="M29 408q0 107 54.5 174t162.5 67q64 0 108.5 -25t69 -74.5t35 -112.5t10.5 -150q0 -192 -56 -287.5t-173 -95.5q-19 0 -41.5 2t-53 7.5t-50.5 18.5t-21 31q-1 29 13.5 44t35.5 7l27 -10q23 -10 77 -10q137 0 144 221q-51 -35 -127 -35q-93 0 -154 59.5t-61 168.5z M131 408q0 -64 31.5 -96.5t85.5 -32.5q66 0 123 49v16q0 205 -127 205q-59 0 -86 -39.5t-27 -101.5z" />
<glyph unicode="&#x208d;" horiz-adv-x="282" d="M53 262q0 104 33 229t88 220q14 28 39 28q22 0 34.5 -17t12.5 -38q0 -12 -8 -25l-2 -4q-94 -167 -94 -393q0 -219 96 -393q8 -16 8 -25q0 -20 -12.5 -34.5t-34.5 -14.5q-24 0 -39 23q-57 96 -89 217t-32 227z" />
<glyph unicode="&#x208e;" horiz-adv-x="280" d="M12 -156q7 15 15 29q94 180 94 389q0 228 -98 397l-3 5q-8 11 -8 20q0 21 13.5 38t37.5 17q22 0 43 -28q54 -96 83.5 -215t29.5 -234q0 -254 -113 -444q-17 -23 -43 -23q-25 0 -38 14.5t-13 34.5z" />
<glyph unicode="&#x20ac;" horiz-adv-x="1024" d="M20 588q0 32 24.5 54t55.5 22h95v114h-95q-34 0 -57 22t-23 54t24.5 54t55.5 22h95v74q0 216 100 338t299 122q141 0 251.5 -52.5t110.5 -123.5q0 -30 -20.5 -50.5t-52.5 -20.5q-10 0 -19 3t-15 6.5t-18 11t-22 13.5q-91 64 -205 64q-133 0 -189.5 -79t-56.5 -232v-74 h373q31 0 55.5 -22t24.5 -54t-23 -54t-57 -22h-373v-114h291q31 0 55.5 -22t24.5 -54t-23 -54t-57 -22h-291v-70q0 -153 56.5 -232t189.5 -79q114 0 205 64q10 6 22 13.5t18 11t15 6.5t19 3q32 0 52.5 -20.5t20.5 -50.5q0 -71 -110.5 -123.5t-251.5 -52.5q-199 0 -299 122 t-100 338v70h-95q-34 0 -57 22t-23 54z" />
<glyph unicode="&#x20b4;" horiz-adv-x="1024" d="M35 588q0 32 24.5 54t55.5 22h227q20 16 70.5 54t76.5 60h-374q-34 0 -57 22t-23 54t24.5 54t55.5 22h524q92 125 92 235q0 74 -50 107t-165 33q-78 0 -131 -14.5t-85 -29t-58 -14.5q-38 0 -61 23t-23 55q0 40 38 69.5t98.5 43.5t115 20t106.5 6q180 0 282.5 -76.5 t102.5 -232.5q0 -123 -72 -225h80q31 0 55.5 -22t24.5 -54t-23 -54t-57 -22h-225q-19 -15 -67.5 -53.5t-73.5 -60.5h366q31 0 55.5 -22t24.5 -54t-23 -54t-57 -22h-508q-84 -118 -84 -233q0 -70 44 -105t165 -35q85 0 152 18t107.5 36t62.5 18q32 0 54 -24.5t22 -55.5 q0 -39 -39 -70t-100 -47.5t-124 -25t-122 -8.5q-117 0 -205 34t-141.5 108.5t-53.5 182.5q0 115 60 207h-84q-34 0 -57 22t-23 54z" />
<glyph unicode="&#x20bd;" horiz-adv-x="1024" d="M20 350q0 32 24.5 54t55.5 22h80v115h-80q-34 0 -57 21.5t-23 53.5t24.5 54t55.5 22h80v654q0 40 29.5 69t69.5 29h239q123 0 214.5 -37.5t144 -103t77.5 -145t25 -173.5q0 -216 -123.5 -334.5t-337.5 -118.5h-174v-106h305q31 0 55.5 -22t24.5 -54t-23 -54t-57 -22h-305 v-208q0 -34 -25 -60t-57 -26q-33 0 -57.5 25.5t-24.5 60.5v208h-80q-34 0 -57 22t-23 54zM344 692h174q297 0 297 295q0 297 -297 297h-174v-592z" />
<glyph unicode="&#x2122;" horiz-adv-x="1583" d="M20 1391q0 25 18 42t44 17h510q25 0 42 -17t17 -42q0 -26 -17 -43t-42 -17h-195v-700q0 -25 -17.5 -42.5t-43.5 -17.5t-44 17.5t-18 42.5v700h-192q-26 0 -44 17t-18 43zM758 629v768q0 28 17.5 45.5t45.5 17.5q43 0 62 -37l239 -493l242 493q16 37 61 37q25 0 44.5 -19 t19.5 -44v-768q0 -23 -18 -40.5t-41 -17.5q-25 0 -42.5 17.5t-17.5 40.5v549l-188 -387q-18 -37 -60 -37q-43 0 -59 37l-189 387v-549q0 -23 -18 -40.5t-41 -17.5q-24 0 -40.5 17t-16.5 41z" />
<glyph unicode="&#x212e;" horiz-adv-x="1849" d="M160 668q0 187 103 345.5t279 250.5t384 92q156 0 297 -54.5t243.5 -146.5t163 -219.5t60.5 -267.5v-19h-1239q-11 0 -11 -8v-375q0 -20 19 -43q89 -95 211 -149t258 -54q145 0 272.5 60.5t218.5 167.5h113q-106 -124 -265.5 -196t-340.5 -72q-208 0 -384 92t-279 250.5 t-103 345.5zM440 698q0 -10 11 -10h950q10 0 10 10v377q0 25 -20 45q-92 92 -211.5 143.5t-251.5 51.5q-135 0 -255 -53t-212 -148q-21 -21 -21 -47v-369z" />
<glyph unicode="&#x2190;" horiz-adv-x="1144" d="M133 674q-38 47 0 94l354 422q3 4 11.5 14t11.5 13l10 10t12.5 9t13.5 4.5t17 2.5q29 0 53.5 -22.5t24.5 -53.5q0 -24 -10 -39l-287 -329h614q31 0 52.5 -22.5t21.5 -53.5q0 -30 -22 -52t-52 -22h-612l303 -350q10 -15 10 -35q0 -35 -22.5 -59.5t-58.5 -24.5 q-8 0 -14.5 1t-12.5 4.5t-10 5.5t-10.5 8.5t-9 9.5t-10.5 13t-11 14z" />
<glyph unicode="&#x2191;" horiz-adv-x="1288" d="M113 799q0 9 2 17t5 13t9 12t10 10.5t13.5 11t13.5 11.5l422 355q47 38 94 0l438 -367q4 -3 12 -10t11.5 -9.5t9.5 -8t8.5 -8.5t6 -8.5t5 -10t2.5 -10.5t1 -13q0 -36 -24.5 -59t-59.5 -23q-24 0 -35 11l-350 303v-776q0 -30 -22 -52t-52 -22q-31 0 -53.5 21.5t-22.5 52.5 v776l-330 -285q-10 -10 -39 -10q-31 0 -53 24.5t-22 53.5z" />
<glyph unicode="&#x2192;" horiz-adv-x="1144" d="M113 723q0 31 21.5 53.5t51.5 22.5h613l-285 329q-10 15 -10 39q0 31 24.5 53.5t53.5 22.5q9 0 17 -2t13 -5t12 -9t10.5 -10t11 -13.5t11.5 -13.5l355 -422q38 -47 0 -94l-367 -438q-3 -4 -10 -12t-9.5 -11.5t-8 -9.5t-8.5 -8.5t-8.5 -6t-10 -5t-10.5 -2.5t-13 -1 q-36 0 -59 24.5t-23 59.5q0 18 11 35l303 350h-613q-30 0 -51.5 21.5t-21.5 52.5z" />
<glyph unicode="&#x2193;" horiz-adv-x="1288" d="M113 623q0 29 22 53t53 24q29 0 39 -10l330 -287v779q0 30 22.5 51.5t53.5 21.5t52.5 -21.5t21.5 -51.5v-776l350 303q10 10 35 10q35 0 59.5 -23t24.5 -59q0 -8 -1 -14.5t-4.5 -12.5t-5.5 -10t-8.5 -10.5t-9.5 -9t-13 -10.5t-14 -11l-438 -366q-47 -38 -94 0l-422 354 q-4 3 -14 11.5t-13 11.5l-10 10t-9 12.5t-4.5 13.5t-2.5 17z" />
<glyph unicode="&#x2196;" horiz-adv-x="1083" d="M113.5 438.5q-1.5 23.5 3.5 48.5l47 549q3 32 19 48.5t48 19.5l570 51q30 5 53 3.5t41 -19.5q25 -27 23.5 -60t-25.5 -57q-18 -18 -33 -18l-463 -35l551 -547q21 -22 21 -52.5t-21 -52.5q-22 -22 -53 -23t-53 21l-551 551l-29 -436q0 -15 -20 -35q-24 -22 -56.5 -20.5 t-52.5 22.5q-18 18 -19.5 41.5z" />
<glyph unicode="&#x2197;" horiz-adv-x="1089" d="M113.5 386q-0.5 30 21.5 52l549 549l-434 33q-15 0 -35 20q-22 24 -21 56t21 53q8 8 16 12.5t18 5.5t16.5 1t21 -1.5t20.5 -1.5l549 -49q60 -6 66 -65l51 -570q5 -32 3 -54t-20 -40q-27 -26 -59 -24.5t-57 26.5q-17 17 -17 31l-35 463l-548 -549q-20 -22 -50.5 -22 t-52.5 22q-23 22 -23.5 52z" />
<glyph unicode="&#x2198;" horiz-adv-x="1083" d="M114 1051.5q0 30.5 21 52.5q22 22 53.5 23t53.5 -21l549 -553l30 438q0 14 21 35q24 22 56 20.5t52 -22.5q18 -18 20 -41.5t-3 -48.5l-47 -549q-6 -62 -68 -68l-569 -51q-30 -5 -53.5 -3t-41.5 20q-25 27 -23.5 59.5t25.5 56.5q19 19 33 19l461 33l-549 548 q-21 22 -21 52.5z" />
<glyph unicode="&#x2199;" horiz-adv-x="1089" d="M113.5 993.5q1.5 22.5 19.5 40.5q27 26 59.5 24.5t57.5 -26.5q16 -16 16 -31l33 -462l551 548q20 22 50 22t52 -22q23 -22 23.5 -52t-21.5 -52l-548 -551l434 -31q14 0 34 -20q22 -24 21 -56t-21 -53q-8 -8 -16 -12.5t-18 -5.5t-16.5 -1t-21 1.5t-20.5 1.5l-549 49 q-59 6 -65 66l-51 569q-5 31 -3.5 53.5z" />
<glyph unicode="&#x2212;" horiz-adv-x="1024" d="M86 725q0 33 24.5 56.5t55.5 23.5h692q31 0 55.5 -23.5t24.5 -56.5q0 -34 -23 -57t-57 -23h-692q-34 0 -57 23t-23 57z" />
<glyph unicode="&#x25b2;" horiz-adv-x="1552" d="M122 34.5q-21 34.5 17 112.5l563 1125q38 78 74 78t74 -78l563 -1125q38 -78 17 -112.5t-107 -34.5h-1094q-86 0 -107 34.5z" />
<glyph unicode="&#x25ba;" horiz-adv-x="1607" d="M113 133v1120q0 86 34.5 107t112.5 -17l1155 -577q78 -38 78 -74t-78 -74l-1155 -575q-78 -38 -112.5 -17t-34.5 107z" />
<glyph unicode="&#x25bc;" horiz-adv-x="1552" d="M122 1354q21 35 107 35h1094q86 0 107 -35t-17 -113l-563 -1124q-38 -78 -74 -78t-74 78l-563 1124q-38 78 -17 113z" />
<glyph unicode="&#x25c4;" horiz-adv-x="1607" d="M115 692q0 36 78 74l1155 577q78 38 112.5 17t34.5 -107v-1120q0 -86 -34.5 -107t-112.5 17l-1155 575q-78 38 -78 74z" />
<glyph unicode="&#x25fc;" horiz-adv-x="1044" d="M0 0v1044h1044v-1044h-1044z" />
<glyph unicode="&#x2639;" horiz-adv-x="1501" d="M113 518q0 129 51 247t137 203.5t204 136t247 50.5t247 -51t203.5 -136.5t136 -203.5t50.5 -246q0 -127 -50.5 -244.5t-135.5 -203.5t-203.5 -137.5t-247.5 -51.5t-247 51t-204 136.5t-137 203.5t-51 246zM207 518q0 -148 73.5 -273.5t199 -198.5t272.5 -73 q146 0 271.5 73.5t199 199t73.5 272.5t-73.5 272.5t-199 199t-271.5 73.5t-271.5 -72.5t-199.5 -198t-74 -274.5zM426 649q0 34 24 58t56 24q34 0 58 -24t24 -58q0 -32 -24 -56t-58 -24q-32 0 -56 24t-24 56zM457 195q106 194 295 194q191 0 292 -194l-61 -35 q-82 143 -231 143q-153 0 -234 -143zM913 649q0 34 24 58t58 24t57 -24t23 -58q0 -33 -23.5 -56.5t-56.5 -23.5q-34 0 -58 24t-24 56z" />
<glyph unicode="&#x263a;" horiz-adv-x="1501" d="M113 518q0 129 51 247t137 203.5t204 136t247 50.5t247 -51t203.5 -136.5t136 -203.5t50.5 -246q0 -127 -50.5 -244.5t-135.5 -203.5t-203.5 -137.5t-247.5 -51.5t-247 51t-204 136.5t-137 203.5t-51 246zM207 518q0 -148 73.5 -273.5t199 -198.5t272.5 -73 q146 0 271.5 73.5t199 199t73.5 272.5t-73.5 272.5t-199 199t-271.5 73.5t-271.5 -72.5t-199.5 -198t-74 -274.5zM426 649q0 34 24 58t56 24q34 0 58 -24t24 -58q0 -32 -24 -56t-58 -24q-32 0 -56 24t-24 56zM457 313l61 35q81 -143 234 -143q150 0 231 143l61 -35 q-101 -194 -292 -194t-295 194zM913 649q0 34 24 58t58 24t57 -24t23 -58q0 -33 -23.5 -56.5t-56.5 -23.5q-34 0 -58 24t-24 56z" />
<glyph unicode="&#x263b;" horiz-adv-x="1499" d="M113 518q0 129 51 247.5t136.5 203.5t203.5 135.5t246 50.5q172 0 318.5 -85.5t232 -232.5t85.5 -319q0 -171 -85 -318t-231.5 -233t-319.5 -86q-129 0 -247 50.5t-203.5 136t-136 203.5t-50.5 247zM424 649q0 -32 24 -56t58 -24q33 0 56.5 23.5t23.5 56.5q0 34 -23 58 t-57 24t-58 -24t-24 -58zM457 313q104 -194 293 -194q190 0 294 194l-63 35q-78 -143 -231 -143q-151 0 -232 143zM913 649q0 -32 24 -56t58 -24q32 0 56 24t24 56q0 34 -24 58t-56 24q-34 0 -58 -24t-24 -58z" />
<glyph unicode="&#x2661;" horiz-adv-x="1314" d="M113 746v20q0 77 23 135.5t61.5 91t81.5 48.5t90 16q92 0 163.5 -62.5t106.5 -189.5q6 -34 18 -37q9 5 19 37q77 252 268 252q48 0 92 -16t82 -48.5t61 -91t23 -135.5q0 -79 -35 -141t-173 -245q-6 -8 -9 -12.5t-8.5 -11t-9.5 -12.5q-88 -116 -121.5 -165t-110.5 -171 q-18 -30 -34.5 -44.5t-43.5 -14.5q-26 0 -42.5 14.5t-34.5 44.5q-82 130 -112.5 174t-119.5 162q-155 205 -186 255q-45 75 -49 147zM195 772q0 -23 4.5 -44t10 -36.5t24.5 -45.5t32 -49.5t51 -72.5t64 -90l268 -383q3 -10 8 -10q2 0 9 10l268 383q26 37 64 90t51 72.5 t32 49.5t24.5 45.5t10 36.5t4.5 44q0 99 -53 151t-121 52q-30 0 -57 -13t-44.5 -29.5t-36.5 -46.5t-28 -50t-24 -54q-21 -48 -44.5 -74t-54.5 -26q-30 0 -52 23.5t-46 76.5q-20 46 -33.5 71.5t-37 58.5t-53 48t-66.5 15q-68 0 -121 -52t-53 -151z" />
<glyph unicode="&#x2665;" horiz-adv-x="1314" d="M113 746v20q0 77 23 135.5t61 91t82 48.5t92 16q89 0 161 -62.5t107 -189.5q20 -72 41 0q37 128 105 190t155 62q109 0 185.5 -73.5t76.5 -192.5q0 -96 -51.5 -190t-163.5 -239q-117 -152 -146.5 -193.5t-101.5 -160.5q-34 -59 -80 -59q-28 0 -44.5 14.5t-34.5 44.5 q-76 122 -108.5 168.5t-123.5 167.5q-155 205 -186 255q-45 75 -49 147z" />
<glyph unicode="&#x266a;" horiz-adv-x="1044" d="M47 186q0 106 77.5 177t197.5 71q84 0 174 -47v977q121 0 200.5 -10t141 -34t94.5 -69.5t49 -111.5t16 -164q0 -58 -11.5 -79.5t-37.5 -23.5q-46 3 -49 52q0 102 -75 156.5t-201 54.5h-27v-836q0 -336 -313 -336q-107 0 -171.5 61t-64.5 162z" />
<glyph unicode="&#x266b;" horiz-adv-x="1556" d="M96 94q0 106 77.5 177t197.5 71q78 0 174 -45v811q0 86 36.5 136.5t118.5 76.5l484 149q82 26 118.5 -1t36.5 -113v-944q0 -332 -307 -332q-109 0 -174 62t-65 161q0 102 78.5 174t197.5 72q43 0 69.5 -7t100.5 -36v661q0 32 -14 42t-45 1l-478 -147q-59 -17 -59 -80 v-774q0 -338 -311 -338q-107 0 -171.5 61.5t-64.5 161.5z" />
<glyph unicode="&#xe020;" horiz-adv-x="1812" d="M172 393q0 24 16 56l394 985q9 21 28 34t41 13q29 0 54.5 -24t25.5 -64q0 -11 -4 -21l-367 -913h408v514q0 34 23 57t57 23q33 0 56.5 -23.5t23.5 -56.5v-514h289l61 342q21 118 105 185t221 67q65 0 94 -19t22 -69q-5 -31 -19.5 -46.5t-31.5 -16t-35 0.5q-32 4 -57 4 q-54 0 -93.5 -35.5t-49.5 -95.5l-56 -317h170q32 0 54 -22.5t22 -53.5q0 -32 -22 -55t-54 -23h-198l-76 -436q-15 -82 -36 -141t-55 -107t-85.5 -72t-120.5 -24q-35 0 -54 0.5t-44 4.5t-37.5 11.5t-21.5 22t-9 35.5q0 35 22 55t58 20q5 0 26.5 -1t32.5 -1q75 0 109.5 43 t52.5 142l78 448h-262v-244q0 -34 -23 -56.5t-57 -22.5t-57 22.5t-23 56.5v244h-512q-36 0 -60 26t-24 62z" />
<glyph unicode="&#xf6c3;" horiz-adv-x="634" d="M207 -213q0 46 32 77.5t78 31.5q44 0 76.5 -32.5t32.5 -76.5q0 -54 -27.5 -119.5t-64.5 -110t-64 -44.5q-39 0 -39 34q0 25 33 64t43 63q-43 3 -71.5 36t-28.5 77z" />
<glyph unicode="&#xf6e1;" horiz-adv-x="235" d="M49 -37q0 29 19.5 48.5t48.5 19.5q26 0 42.5 -19.5t16.5 -48.5q0 -51 -29.5 -111.5t-52.5 -60.5q-33 0 -33 27q0 17 21 51l18 37q-22 6 -36.5 21t-14.5 36z" />
<glyph unicode="&#xf6e2;" horiz-adv-x="235" d="M49 848q0 29 19.5 48t48.5 19q26 0 42.5 -19t16.5 -48q0 -51 -29.5 -111.5t-52.5 -60.5q-33 0 -33 26q0 18 21 52l18 37q-22 6 -36.5 21t-14.5 36z" />
<glyph unicode="&#xf6e5;" horiz-adv-x="407" d="M27 215q0 22 13.5 36.5t35.5 14.5h252q19 0 32 -14.5t13 -36.5q0 -19 -13 -32t-32 -13h-252q-21 0 -35 13t-14 32z" />
<glyph unicode="&#xf6e6;" horiz-adv-x="407" d="M27 1100q0 22 13.5 36.5t35.5 14.5h252q19 0 32 -14.5t13 -36.5q0 -19 -13 -32t-32 -13h-252q-21 0 -35 13t-14 32z" />
<glyph unicode="&#xf6e7;" horiz-adv-x="235" d="M49 -37q0 29 19.5 48.5t48.5 19.5q26 0 42.5 -19.5t16.5 -48.5q0 -26 -16.5 -42.5t-42.5 -16.5q-29 0 -48.5 16.5t-19.5 42.5z" />
<glyph unicode="&#xf6e8;" horiz-adv-x="235" d="M49 848q0 29 19.5 48t48.5 19q26 0 42.5 -19t16.5 -48q0 -26 -16.5 -43t-42.5 -17q-29 0 -48.5 17t-19.5 43z" />
</font>
</defs>
</svg>
